<svg xmlns="http://www.w3.org/2000/svg" viewBox="500 400 1070 1240">
	<path fill="#0a7b3e" d="M1441 1254a284 284 0 0 1-6 10c-5 1-3-2-2-4l7-16 5-12c2-2 2-4 5-1l-9 22v1z" />
	<path fill="#0a7b3e"
		d="m1450 1231-2 2-13 29v2l-1 2-1 2-1 2c-1 2-3 3-3 6v2l-2 2-1 2-4 7v1l-1 1-1 2c-2 1-3 4-4 7l-4 7-1 3-2 2-1 2-1 2-1 1-1 2-1 2a9 9 0 0 0-1 1c-3 7-8 13-12 20-14 22-31 43-48 63l-27 31-20 20-28 26-29 23a754 754 0 0 1-211 118h-7a938 938 0 0 1-130-62 694 694 0 0 1-130-99 667 667 0 0 1-41-41 658 658 0 0 1-105-156l-8-17-4-9-1-3-1-2-4-9-6-18c-1 0 0 0 0 0a491 491 0 0 1-28-110c-6-37-8-74-8-111a3619 3619 0 0 0 0-125V597l-1-11c1-6 1-7 6-7l17-1 23-1c11-1 22-1 33-4h2c6 1 13 0 19-1l34-5 55-10c5-1 10-3 16-3l2-1 6-1c1 0 1 0 0 0l40-10c3 0 5-1 8-3h1l5-1 21-6c8-4 16-6 25-9l6-3 2-1 2-1c3-1 6-1 9-4l5-2 5-2 2-1c2 0 4 1 4-2h-1c4 0 7-2 10-4l34-18c22-13 42-28 61-45l15-15c3-3 5-2 7 0a369 369 0 0 0 67 54l2 1 2 1 1 1 4 3 2 1c2 3 6 4 9 6l15 7h1c1 3 4 3 7 4h1l8 4 3 1c6 4 12 7 20 9l3 1c4 3 8 4 13 5l3 1c3 3 8 4 12 5h1l32 10h2c7 4 15 5 22 7 16 5 32 8 49 11 5 1 9 3 15 3h2c8 3 16 3 25 5l41 5h3c6 3 13 2 19 3l29 2h2c3 2 7 1 11 2h22l2 1a37 37 0 0 1 5 0c2 2 4 1 6 1 6 0 6 0 6 5v390l-1 56-4 36-4 33-8 42-12 46c-3 7-6 14-8 23l-8 21z" />
	<path fill="#0a7b3e"
		d="M633 573c-3 3-7 3-11 3-20 1-40 4-61 4-5 0-6 2-6 8 2 12 1 24 1 36l-1 20a6100 6100 0 0 1 1 217v163c1 22 4 44 7 66 3 28 11 56 18 84l9 27 1 6c-3-3-4-7-5-11a640 640 0 0 1-32-201V592c0-14 0-13 13-14l66-5zm126-20c-7 4-15 5-22 7-23 4-46 8-69 10l-23 4-10-1 23-3h1c33-4 66-10 100-17zm114-33-5 4-41 13-6 1 33-12 19-6zm-58 19-3 3c-15 3-29 9-44 10 7-3 15-4 22-6a1968 1968 0 0 1 25-7zm-200 727c1 0 2 0 3 2 4 8 8 15 11 24-6-8-10-17-14-26zm-8-18c4 5 6 10 8 17-4-5-6-11-8-17zm-17-40c5 4 6 10 7 16l-7-16zm321-705c-2 3-5 4-9 4l9-4zm-308 737c3 1 4 4 4 8-3-2-3-5-4-8zm-6-15c3 2 3 5 4 9-2-2-3-5-4-9zm289-711c-1 4-5 4-8 4l8-4zm-119 38c-1 1-3 2-6 1l6-1zm134-45c0 2-1 3-3 2l3-2zm-5 3-4 2 4-2zm200-30c-1 0-2 0-3-2h1l2 1v1zm-205 32-4 2 4-2zm-70 26-4 1 4-1zm56-20-2 1 2-1zm-275 718 1 3-1-3zm-1-2 1 2-1-2z" />
	<path fill="#1a1a1a" d="M1096 480v-1l1 1h-1zm0-1-1-1 1 1z" />
	<path fill="#0a7b3e" d="M659 570h-1 1z" />
	<path fill="#1a1a1a"
		d="M1922 1943c3-2 7-3 10-2 6 1 9 4 9 9v13c0 4-3 5-5 4-2-2-4-1-6 0-3 1-7 1-10-2-2-2-3-5-2-9 1-3 5-5 8-5h4c2 0 4 1 4-1 1-2-1-3-3-4l-6 1c-2 2-4 1-5 0-2-3 1-3 2-4zm32 5v16c0 2-2 3-4 3s-3-1-3-3v-18c0-2 0-5 3-5s4 2 4 5v2zm0-11c-3 2-5 2-7 0v-5l4-2c3 1 4 4 3 7z" />
	<path fill="#0a7b3e"
		d="M1458 1210c1-9 5-17 8-26 9-32 17-63 20-96l5-37 3-66V587c0-4-1-7-6-6-2 0-4-1-5-3 13-1 13-1 13 12v403a695 695 0 0 1-31 199l-7 18zm-136-650c-5 1-10-1-15-2l-62-14c-3-1-6-2-9-5 28 8 57 15 86 21zm68 10c-4 2-8 0-12 0l-48-7-6-3 66 10zm51 5-9 1-33-3-6-3 48 5zm-207-36c-11-1-21-4-31-10a913 913 0 0 1 31 10zm239 38c-10 1-20 2-30-2l30 2zm-23 654c1-8 4-14 8-21l-8 21zm-249-702c-4 0-8-1-12-5l12 5zm-15-6c-5 0-9-1-13-5l12 4 1 1zm292 54h-2 2zm-62 723c0-3 0-5 4-7l-4 7zm-4 7c0-3 1-5 4-7 0 3-2 5-4 7zm17-31c-1-3 0-4 3-6l-3 6zm-7 13c0-3 1-5 4-7l-4 7zm-13 23c0-1 0-2 2-2l-2 2zm18-32 1-2-1 2zm6-12 1-2-1 2zm-28 51 1-2-1 2zm2-3 1-2-1 2zm-4 6 1-1-1 1zm18-31 1-1-1 1zm-291-792a649 649 0 0 1 0 0zm40 18a467 467 0 0 1 0 0zm-23-10c-3 1-6-1-8-4l8 4zm-9-4c-3 0-5 0-7-3l7 3zm-34-18-4-3 4 3z" />
	<path fill="#1a1a1a"
		d="M1331 931h-1l-7-4-36-14-39-13-33-9c-12-4-25-6-38-9l-37-7-18-2c-10-2-21-2-31-3l-16-2c-9 0-18-2-26-1-5 0-10 0-15-2-3-1-6 0-10 1l-16 1c-16-1-32 1-48 2l-26 3-17 2-34 6-20 4-49 12c-12 4-25 7-37 12l-28 11-33 13-26 12-36 19-20 10-18 12-18 11c-4 3-6 1-6-3V621c0-4 1-6 6-6a497 497 0 0 0 61-6l30-4 57-9 28-6 37-9c20-6 40-11 59-19l33-13 6-3c5-1 9-4 14-6l24-11c9-6 20-11 29-19 5-1 8-4 12-7l7-5c9-5 17-12 24-18 5-4 5-4 10 0l7 4 2 1c0 2 2 2 3 3a484 484 0 0 0 117 65l27 11 25 8 27 8 29 7 39 9c6 2 13 1 19 3l29 5c8 1 17 3 26 3h2l6 2 27 3 22 2h14c6 1 7 3 7 9l1 87-1 59v187c0 12 2 24 1 36 0 6 0 6-7 4-1-2-3-3-6-4-1-1-1-2-3-2l-2-1c-6-6-14-10-21-14a241 241 0 0 0-40-21l-14-7c-6-5-14-8-21-11l-13-5z" />
	<path fill="#1a1a1a"
		d="M1255 937h1l18 7a975 975 0 0 1 158 79l20 14c2 1 2 3 2 4-1 15 0 30-4 45l-1 2c0 6-2 10-7 13l-30 23 1 1c-3 0-5 2-7 3-17 10-33 22-51 32a1052 1052 0 0 1-126 56 626 626 0 0 1-102 24l-37 5-22 1a964 964 0 0 1-83-3c-19-2-39-4-59-8-24-5-48-10-72-17-29-10-57-20-85-32l-35-17-38-20-28-17c-5-4-11-6-15-10l-6-3-8-5c-6-6-14-10-21-16l-14-11c-4-2-5-7-6-11l-4-32c0-3 2-5 5-7l17-12v-1c5-1 9-5 13-7l35-21 33-18 51-23 21-7 21-8 32-10 21-6c9-2 16-5 25-6l14-3c8 0 15-4 23-4l24-3 18-3 29-3c20-1 40-2 60-1 15 0 30 0 46 2l32 3h2c4 3 8 2 12 3 9 0 17 2 26 3h2c8 3 17 4 25 6 15 3 30 6 44 11l6 1 14 4c3 2 6 2 10 3z" />
	<path fill="#1a1a1a"
		d="m684 1180 2 1 1 1 7 4c5 4 11 6 17 9 4 2 8 6 14 7 8 6 17 9 26 13l40 17 30 10 10 4 30 9 52 12a873 873 0 0 0 117 13 661 661 0 0 0 82-3l30-5 50-10 39-11 45-16 30-13 38-17c8-4 16-8 24-14l24-13 23-14 16-12c1-1 3-2 4-1 2 1 1 3 1 5a657 657 0 0 1-35 91l-20 39-21 33c-11 17-23 32-35 48a621 621 0 0 1-131 124c-16 12-33 24-50 34l-21 11a916 916 0 0 1-56 30l-15 6-22 9c-6 3-12 0-17-2l-12-5-25-11-30-15-38-21c-1-2-3-2-5-3l-3-2-11-7c-3-4-7-6-12-8l-7-5c-5-5-11-8-17-12l-32-26-6-4a9 9 0 0 0-1-1c-4-5-9-9-15-13l-2-2-1-1-1-1-5-5-16-16-4-3c-4-3-6-8-11-11l-17-20-18-20h-1c-2-6-6-10-9-14a641 641 0 0 1-51-77l-9-18-11-23a382 382 0 0 1-28-74l-5-20c-1-2-2-3 0-4a652 652 0 0 0 44 27l30 16z" />
	<path fill="#1a1a1a"
		d="M908 546c0 2-1 3-3 4l-54 20-60 17-43 10c-12 3-25 3-38 6-24 5-48 6-72 9l-39 4c-4 0-6 2-6 6a234 234 0 0 0 0 6v357c0 3-2 8 2 10 4 1 7-2 10-5 14-10 29-18 45-26l38-21 21-9c16-8 33-14 50-20 15-6 29-12 45-16l47-13 12-2c15-4 31-6 47-9 31-5 62-7 93-8h11c4 0 8 0 11-3 3-2 8-1 11 1l11 2a594 594 0 0 1 177 26l62 19 40 16 4 4-53-20a753 753 0 0 0-663 77l-23 13V618c0-3 1-4 4-4 64-5 128-14 190-28 42-10 83-23 123-40zm0 981c7 1 13 6 19 10 5 2 9 5 15 6l3 1c13 11 28 16 43 23l10 5a83 83 0 0 1 18 7c7 4 15 2 21-3 3-2 5-3 8-3a22 22 0 0 0 6-2c18-8 36-14 52-25l20-11 22-12a722 722 0 0 0 183-163c16-20 31-39 44-61 7-13 15-24 20-38 1-5 5-8 7-12 10-20 18-40 25-61l10-29c1-2 2-6-3-7l7-6v4c-11 43-28 84-49 123a712 712 0 0 1-360 309c-4 2-7 1-11 0-38-15-75-33-110-55zm-212-378a908 908 0 0 0 140 61c21 8 42 14 63 19h2c13 0 25 6 39 8l21 2c12 1 24 4 36 4 26 2 52 3 78 1 9 0 19 0 29-2l45-7c25-4 50-11 75-19 8-2 17-4 25-9l12-4 29-13c16-6 30-13 44-20 15-8 30-16 44-26 9-7 20-13 30-19h4a713 713 0 0 1-192 95 584 584 0 0 1-345 5 748 748 0 0 1-179-76z" />
	<path fill="#1a1a1a"
		d="m1368 1191-3 3c-10 6-19 13-30 17-6 2-12 4-17 8-3 3-8 3-13 5a657 657 0 0 1-173 51c-26 4-52 5-79 6-23 1-45-1-68-3-18-1-35-5-53-7-15-1-29-5-44-9-21-4-42-11-62-17-2 0-4-1-5-3 5 0 9 2 14 4a643 643 0 0 0 533-55zm-254-285h-5c-38-4-75-5-112-4-20 1-39 1-58 5-10 3-20 1-30 4-16 5-33 6-49 9l-15 6c-6 0-12 1-18 4-11 4-23 5-34 10-4 3-9 3-14 5l-48 19c-10 5-21 12-34 14 12-7 24-12 37-18a701 701 0 0 1 193-54 758 758 0 0 1 181-1c2 0 4-1 6 1zm337 90c5 0 6-2 6-7l-1-42V624c0-6-2-7-8-9h-3c-16 1-33-2-49-5-5-1-10 1-15-3 24 4 48 4 73 7 1 0 3-1 4 2l1 9v376c-3 0-5-3-8-5zm-38 129c1-5 6-8 10-10l20-16c5-5 5-12 7-19 2-9 2-19 2-29 1-9-3-15-9-19l-29-19-45-26c-25-13-50-24-75-34l-32-12c-2-1-5-1-6-4l32 11c49 19 95 42 139 70l27 19c2 1 3 3 3 5l-7 51c0 4-2 6-5 8l-32 24zm-729 55c-5 0-8-3-13-5l-55-34c-1-1-3-3-5-2-1 2 0 4 1 5l12 41c8 23 16 45 28 66 11 22 22 44 36 65l31 42c2 2 5 4 4 8a551 551 0 0 1-115-231l-1-3c25 17 51 33 77 48zm695-573h-7l-18-1c-8 0-15-4-23-5l-24-3c-7-1-15-5-23-6-15-3-30-8-45-10l-11-4a449 449 0 0 1-88-31l-45-22c-17-10-34-20-50-32-2-1-3-2-4-5 12 8 24 17 37 24a590 590 0 0 0 154 66l46 11 55 10 35 6 11 2z" />
	<path fill="#0a7b3e" d="m1459 1001-1-57V624l1-8c2 3 1 6 1 10v368l-1 7zM591 618v382l-1-6V625l1-7z" />
	<path fill="#1a1a1a"
		d="M615 1024c0 3-2 5-4 6l-12 9c-2 2-3 5-3 8l4 32c1 3 2 5 5 7 9 7 18 16 28 22 3 2 5 3 6 6a383 383 0 0 1-41-32l-5-39c0-3 2-4 3-6l19-13zm206 218-12-3c-18-6-35-14-53-21-8-3-16-9-25-10-3-1-4-3-6-6 4 0 8 3 11 5 23 11 46 20 70 29l15 6zM697 978c-2 4-6 5-9 7-14 6-28 14-42 23-7 5-16 8-23 14-2 1-4 3-7 2a613 613 0 0 1 81-47zm279-468c-1 3-4 5-7 7a356 356 0 0 1-60 29l34-17 33-19zm255 420c-9 0-18-4-27-6-12-3-23-6-35-7l-13-5c7 0 15 2 22 4l41 10 12 4zm200 222c-4 6-10 10-16 13l-25 16c-6 4-13 8-21 10l39-24 23-15zm-616 308a626 626 0 0 0 48 35l7 7c-19-12-37-27-55-42zm-168-341 9 3c10 8 22 14 33 21l7 6c-17-8-33-19-49-30zm742-160h4c15 8 30 17 44 27l3 3-51-30zm-665 408 4 2 28 33c1 1 3 2 3 5-13-12-24-26-35-40zm312-883c-3 0-5-2-7-3-3-3-6-3-9 0l-20 15-5 2 28-22c1-2 2-1 3 0l10 8zm118 428h-6c-8-2-16-2-25-2-2 0-5 0-7-4 6-1 12 1 18 2 7 0 13 2 20 4zm-429 290c-6 1-10-3-14-6-6-3-12-5-17-10l26 13c2 0 3 1 5 3zm606-271c4 0 9 2 13 4l17 8 4 4-34-16zm-561 487c3 0 5 2 7 4 4 5 9 10 15 14 1 2 3 3 3 6-9-7-17-15-25-24zm29 28c7 2 12 6 15 13l-15-13zm-40-39c6 1 8 6 11 11l-11-11zm486-473c-5 0-10 1-14-4 5 0 9 2 14 4zm120 13c5 0 10 2 14 7l-14-7zm-488 560c5 1 9 3 12 8l-12-8zm12 8c4 1 8 2 11 7l-11-7zm99-1012c-2 4-6 6-11 7l11-7zm-118 999c3 0 6 1 7 5l-7-5zm-231-388c3 0 6 2 8 5l-8-5zm616-177c-3 0-7 0-10-3l10 3zM995 498c-1 3-3 4-7 5l7-5zm-301 688c-3 0-5-1-7-4 2 1 5 1 7 4zm687-231c3-1 5 0 6 3l-6-3zm64 37c2 0 5 1 6 4l-6-4zm-542 532c2 0 4 1 5 3l-5-3zm539-534c1 0 2 0 3 2l-3-2zm-401-502-3-2 3 2zM900 1522l3 2-3-2zm-86-63 1 1-1-1zm-18-16 1 1-1-1zm-109-261-1-1 1 1z" />
	<path fill="#0a7b3e"
		d="M1054 817v2c-3 4-7 2-10 2h-91l-17-1c-2 0-3-2-5-4-3-4-2-8-2-12 4-63 0-127 1-190 1-6-1-13-1-19l2-9c0-1 0-2 2-3h135c4 0 7 1 10 4l35 34c3 3 5 6 5 10v81c0 8 0 8-8 8l-3-1-2-2v-22l1-51c-1-9-1-9-11-10l-2-1-4 1h-17c-6-1-8-3-8-9l-1-24c0-5 0-5-5-5h-95c-6-1-12-3-18 1v2c-2 9-1 18-1 26v132l1 34-1 6-1 6 1 2c5 3 9 2 14 2l53-1 34 1c7 0 9 3 9 10z" />
	<path fill="#1a1a1a"
		d="M963 753c-5-1-5-4-4-7 1-4 3-8 9-8 1-2 3-2 5-2 8 3 16 3 25 1 10-2 19 1 27 0-9 0-20-2-32 0-7 1-15-1-23-1l-3-2c-2 0-4-1-5-4 2-3 6-2 8-2l96-1h9c2 0 4-1 3-3l-3-1c-15-1-30-2-44-1a60 60 0 0 1-6 0h-55c-3 0-5 1-7-2 2-3 5-3 8-3 2 0 4-1 4-3s-2-3-3-3c-3-1-6-1-9-4 1-3 4-2 6-2l50-1h61l2-2c0-2-1-2-2-3h-8l-101-1c-2 0-5 1-8-2 3-3 8-1 11-3 2-2 6-1 5-4 0-3-3-2-6-2l-3-1c-9-1-10-3-8-13 4 6 9 8 16 8l94-1h7c1 0 2 0 2-2s-1-2-2-2h-6l-103-1c-2 0-5 1-7-2 3-3 7-2 11-2 10-1 20-2 30-1 26 1 52 2 78 0 8 0 11 3 9 11a27 27 0 0 1-2 6l1 6c3 8 3 12-4 18-2 2-3 4 0 7 5 4 3 10-4 13-4 2-8 3-13 3h-8c-5 1-7 2-6 7 2 9-3 14-11 15l-5 1c-3 2-7 2-10 1h-17c-2 2-5 2-8 2-6-1-11-2-18-1l-4 1-2-2h-9c-4 1-6-1-9-4 2-3 5-2 8-2l66-1h8c1 0 3-1 3-3s-2-2-4-2h-4l-61-1c-7 0-12 2-15 8z" />
	<path fill="#0a7b3e"
		d="M1064 754v-1l2-3 1-1 1-1 1-1h1c1-4 4-6 7-8 7-4 14-7 23-8h2a51 51 0 0 1 54 34c4 11 4 22 2 33-2 7-6 13-11 18l-10 10c-7 6-15 9-24 10h-13c-25-8-42-15-45-48v-9a38 38 0 0 1 8-24l1-1z" />
	<path fill="#1a1a1a"
		d="M1113 834c22-4 37-16 43-38 9-32-17-64-50-64h-6c-11 1-21 6-30 14 0-3 3-5 5-7 13-9 27-11 42-8 10 1 19 6 27 12 7 4 9 12 12 19 4 9 5 19 5 29-1 12-7 20-15 28l-3 3c-11 17-28 17-45 16-5-1-8-5-13-6-8-1-14-6-19-11-3-3-7-2-11-3l-2-1c-1-8-7-9-14-9h-91c-2 0-5 2-5-3l1-2c2 3 5 3 8 3 25-3 50-2 75-2 7 0 14 2 21 1 7 0 8-2 7-9-2-11-2-21 2-32 1-3 1-6 5-8-3 7-6 14-6 23v8c1 13 6 24 15 33 7 7 16 13 28 14h1a559 559 0 0 1 12 0h1z" />
	<path fill="#0a7b3e"
		d="M963 696h118c6 0 9 4 7 9-1 2-3 2-5 2H963v-11zM1066 659h-98c-3 0-6 1-6-4 1-4 0-6 6-6h115c4 0 5 1 5 5s-1 6-5 5h-17zM963 720h120c2 0 4-1 4 1l-1 4c-3 2-6 5-10 5H962c-2-3-1-6 0-10h1zM963 673h119c5 0 8 5 6 9-1 2-3 1-5 1H969c-7 0-7 0-7-7a63 63 0 0 0 0-2l1-1z" />
	<path fill="#1a1a1a"
		d="M932 815c2 3 5 4 9 4h113c1 2 0 3-2 4h-4c-19-3-38 1-57 0h-40l-15-2c-6-1-9-9-9-18a913 913 0 0 0 0-85l1-10v-51l-1-34 1-29c0-4 0-9 5-11l-1 2v230z" />
	<path fill="#1a1a1a"
		d="M944 797a6062 6062 0 0 1-1-199v-1c0-4 3-3 5-3h111c5 0 7 1 6 6v25c0 5 2 7 7 8v1c-6 1-9-2-10-9v-20c0-6 0-7-7-7h-82l-15-2c-9-1-13 2-13 11v146c0 13 0 25 2 37 0 3 0 5-3 7z" />
	<path fill="#0a7b3e" d="M1028 625h4c7 0 7 0 7 7 0 2-1 3-3 3h-70c-5 0-3-4-4-6 0-3 1-4 5-4h61z" />
	<path fill="#1a1a1a"
		d="M1010 764c6-1 11-4 17-3 4 0 7 2 7 6 1 8-1 12-5 13-5 1-10 2-15 1-14-2-29-1-43-1l-7-1c-4 0-6-2-7-6 0-4 1-7 5-9 5-3 11-2 17 0l5-2a465 465 0 0 1 21 0c2 0 3 0 5 2z" />
	<path fill="#1a1a1a"
		d="m967 734 31 1 31-1h5c1 0 3 0 3 2s-2 3-3 3c-9 1-18 1-27-1-4-1-7-1-11 1-6 4-13 2-20 1l-8-2-1-4zm43 30h-31l1-6h2l2-2c9-1 18 1 28 2l-2 6zM1095 634c12-1 12-1 12 10v75l-2-3c1-8-1-16-1-24-1-17 2-33 1-50 0-3-2-6-5-7l-5-1zm-7-1h5c-6 3-12 2-19 1l14-1z" />
	<path fill="#1a1a1a"
		d="m1088 633-14 1h-2v-1h16zM962 720v10c-2-3-2-6 0-10zm104 30c0 1 0 2-2 3l2-3zM944 803l-1 2v-2h1zM1069 747l-1 1 1-1zm-5 7-1 1 1-1zm-1 1-1 1 1-1zm4-6-1 1 1-1zm1-1-1 1 1-1z" />
	<path fill="#0a7b3e"
		d="M1081 1053c0 3 1 5 4 7l4 2c4 3 7 6 9-1 1-2 4-3 7-2s5 2 6 5v6c0 6 2 11 8 14l19 14c3 2 4 5 4 9v9c0 3-1 4-4 3l-70-25-23-7c-2-1-3-1-3 2l-4 63c0 2 1 3 3 5l19 16c4 4 6 8 6 14-1 8 0 8-8 5l-22-8c-2-1-3 0-4 2-7 10-7 10-14 0-2-2-3-2-5-1l-24 8c-4 1-5 1-5-3-1-8 1-14 8-19l17-14c2-1 3-2 3-5-2-20-4-41-4-61 0-5-1-5-5-4l-91 32c-3 1-5 1-5-3 0-15 0-15 12-24l16-11c2-1 3-3 3-6v-8c0-4 2-7 6-8s7 1 8 4c2 3 3 3 5 2 8-4 12-9 11-18-1-4 1-8 5-9 5-1 8 1 10 6 1 2 2 2 4 1l15-10c4-2 5-5 5-9 0-17-1-33 1-49 1-9 3-17 8-24 6-8 12-8 18 0s7 18 8 28l1 45c0 3 1 6 4 7l15 11c1 1 2 2 3-1 2-4 5-7 10-6 4 1 6 5 6 11v5zM998 1481c-4-2-7-1-10 2-11 8-11 7-21-2-11-10-11-10-3-22 4-8 0-19-9-21-13-4-13-4-13-17s0-13 13-17c9-2 13-11 9-19-3-4-7-9-7-14 1-4 7-7 10-11 8-8 8-8 18-2 5 3 10 5 16 2 3-2 5-3 5-7l3-10c1-5 3-6 7-6l18 1c3 0 4 1 5 4l2 7c1 6 4 11 11 12 3 1 5 1 8-1l11-6h6l15 15c2 2 2 3 1 5l-6 9c-3 4-3 8-1 13 2 6 5 8 10 9l9 2c2 1 3 3 3 5v19c0 3-1 5-4 5l-6 2c-7 0-11 4-13 10-1 3-1 6 1 9l6 11c2 2 2 4 0 5l-16 14c-1 2-3 3-5 1l-7-4c-5-4-9-4-15-2-3 2-5 4-6 8-1 5-1 11-5 14-3 3-9 1-14 1-12 0-12 0-15-11-2-6-3-12-11-13z" />
	<path fill="#1a1a1a"
		d="M1097 621c-6 2-13 1-19 1-2 0-2-2-2-3a824 824 0 0 1 1-16 1279 1279 0 0 1 20 18zM932 814l-1-7V593l1-8v229zM943 597v1-1z" />
	<path fill="#0a7b3e" d="M962 754c1-11 1-11 12-11h75c3 0 5 0 3 5-1 4-3 6-8 6h-82z" />
	<path fill="#1a1a1a"
		d="M1042 717c-21 1-42 1-62-2 1-3 4-4 8-4 15-1 29-3 44 0 7 1 14-2 21-2s13 2 19 5c-10 3-20 3-30 3zm-6-31h40c1 0 3 0 3 2s-2 2-3 2c-16 5-33 4-50 4l-12-3c0-1-2-1-2-3l3-1c7 0 14-2 21-1zm-37 2h3c1 1 0 2-1 2s-3 0-2-2zm-15 68-2 2 2-2zM1070 800c-5-16-4-30 6-43 16-19 44-18 59-3 17 17 16 45-2 60-21 17-51 11-63-14zM1100 732h1-1zm-44 48v-1 1zm0 7v-1 1zm44 47h-1 1zm13 0h-1 1z" />
	<path fill="#0a7b3e" d="M962 774c0-9-1-8 7-8h57c3 0 5 1 4 4 0 3 2 7-4 7h-59c-2 0-5 1-5-3z" />
	<path fill="#1a1a1a"
		d="M954 1415c11-1 17-5 21-16 2-8 2-13-3-20-4-5-2-11 4-14 2-1 3 0 4 1 8 8 15 7 25 3 8-3 11-7 12-15 1-7 2-7 9-7 3 0 5 1 5 5 1 10 6 15 16 19 8 3 13 3 20-2 5-4 10-3 13 3v4c-3 4-7 8-8 13 0 4 5 9 5 13 1 9 6 11 13 12h3c5 2 8 6 6 12l-4 2c-11 0-15 5-19 15-4 9-3 14 2 21 1 1 4 3 2 5l-8 8-2-1a26 26 0 0 1-3-2c-6-5-12-8-19-2l-2 1c-10 0-13 7-14 16 0 5-2 6-7 6-3 0-5-1-6-4-1-11-6-16-17-20-8-3-14-3-20 3-2 2-4 4-6 1s-9-5-4-11c7-7 6-14 1-23-4-8-7-12-16-13-6-1-7-8-3-13z" />
	<path fill="#0a7b3e"
		d="M1122 798c-1 3-3 5-6 6-3 2-6 3-6 8 0 2-2 2-3 2-2 0-4 0-4-2 0-5-4-5-7-6-3-2-6-3-4-8 1-3 2-4 5-3 3 2 6 3 9 2 2 0 5-1 5-3 1-3-1-4-3-5l-11-7c-9-6-8-18 2-22 3-2 4-3 4-6 0-2 1-3 3-3s3 0 3 3c0 4 2 4 6 5 2 1 5 1 5 4 1 5-2 7-6 6l-9-1-3 3c0 1 0 3 2 4 2 2 6 2 9 4 9 4 12 9 9 19zM1055 1447a39 39 0 0 1-45 12c-17-7-27-23-26-41 2-17 14-32 30-36 6-1 11-2 17-1 1 2 2 2 4 2 3 1 3 4 3 6s-2 2-4 3c-3 0-6 2-9 1-23 3-35 25-23 43 7 10 18 14 30 12 11-3 19-13 20-24v-10c-1-4 1-7 2-10s4-3 6 0l4 7v19l-1 3v1l-1 2-1 2-1 2-1 2-1 1-1 2v1l-2 1z" />
	<path fill="#0a7b3e"
		d="m1064 1411-3-4c-1-1-2-3-4-2s-2 2-2 4v6c-2 1-3-1-4-3-4-11-13-17-25-18-1-1-3 0-4-3 2-2 5-2 7-2 2 1 4 2 6 0 1-3-1-4-3-6l-1-1c17 2 28 12 33 29zm0 18v-16c3 5 2 10 0 16zm-1 4 1-3-1 3zm-1 3 1-2-1 2zm-1 2 1-2-1 2zm-1 2 1-2-1 2zm-1 2 1-2-1 2zm-2 3 1-2-1 2zm-2 2 1-1-1 1zm3-4 1-1-1 1z" />
	<path fill="#1a1a1a"
		d="M1022 1391c18 1 28 7 33 24 2 13-2 25-14 32-11 6-22 6-33-1-10-7-15-17-13-29 2-13 10-21 22-25l5-1z" />
</svg>