<?xml version="1.0" encoding="UTF-8"?>
<svg id="Layer_1" xmlns="http://www.w3.org/2000/svg" version="1.1" viewBox="0 0 360 360">
  <!-- Generator: Adobe Illustrator 29.5.1, SVG Export Plug-In . SVG Version: 2.1.0 Build 141)  -->
  <defs>
    <style>
      .st0, .st1 {
        fill: #a7905c;
      }

      .st1 {
        stroke: #a7905c;
        stroke-miterlimit: 10;
      }
    </style>
  </defs>
  <path class="st0" d="M180.07,34.52c-80.25,0-145.31,65.07-145.31,145.31s65.07,145.31,145.31,145.31,145.31-65.07,145.31-145.31S260.31,34.52,180.07,34.52ZM180.07,316.64c-75.56,0-136.81-61.25-136.81-136.81S104.51,43.02,180.07,43.02s136.81,61.25,136.81,136.81-61.25,136.81-136.81,136.81Z"/>
  <g>
    <path class="st0" d="M141.35,159.58l-9.29,27.68c-.65,1.94-3.39,1.96-4.07.02l-20.85-59.98c-.3-.86-1.12-1.44-2.03-1.44h-18.91c-1.19,0-2.15.96-2.15,2.15v.31c0,1.02.73,1.86,1.72,2.1,3.65.89,4.49,3.31,3.65,8.38l-10.74,70.39c-.84,4.81-2,7.53-5.69,8.41-1,.24-1.74,1.08-1.74,2.11v.41c0,1.19.96,2.15,2.15,2.15h15.81c1.19,0,2.15-.96,2.15-2.15v-.4c0-1.04-.75-1.89-1.77-2.11-3.71-.83-4.46-3.36-3.62-8.42l7.94-51.35c.34-2.21,3.41-2.49,4.15-.39l22.41,63.38c.3.86,1.12,1.43,2.03,1.43h4.37c.92,0,1.74-.59,2.04-1.46l8.88-26.41,1.72-5.11,8.23-24.46c.22-.64.11-1.34-.27-1.9-.79-1.17-1.52-2.38-2.16-3.64-.87-1.7-3.34-1.53-3.95.28Z"/>
    <path class="st0" d="M278.96,209.2l-34.31-82.05c-.33-.78-1.09-1.29-1.94-1.29h-18.53c-1.16,0-2.11.94-2.11,2.11v.38c0,.99.71,1.8,1.67,2.06,3.99,1.07,4.43,4.87,2.6,9.64l-11.75,31.9c-.28.77-.08,1.62.48,2.2,1.01,1.05,1.95,2.13,2.8,3.26,1,1.33,3.07,1.03,3.65-.53l9.37-25.43c.67-1.82,3.23-1.84,3.94-.04l12.01,30.8c.54,1.38-.48,2.87-1.96,2.87h-20.04c-1.37,0-2.35,1.29-2.03,2.62.26,1.09.46,2.23.58,3.4.11,1.05,1.03,1.83,2.08,1.83h24.24c.86,0,1.64.53,1.96,1.33l5.95,14.93c1.7,4.5-.04,7.61-4.17,8.46-1,.21-1.75,1.05-1.75,2.07v.45c0,1.16.94,2.11,2.11,2.11h32.99c1.16,0,2.11-.94,2.11-2.11v-.51c0-.99-.7-1.83-1.67-2.05-4.04-.91-6.31-3.92-8.25-8.42Z"/>
    <path class="st0" d="M211.51,148.65h0c-1.02,0-1.89-.69-2.16-1.67-4.96-18.41-13.09-25.47-25.59-26.08-12.21-.64-18.08,6.03-18.4,13.8-.22,5.12,2.12,9.34,6.19,13.26-.54-.09-1.09-.13-1.69-.13-.96,0-1.86.12-2.59.2h-.1c-1.05.12-2.11.28-3.16.42l-.26.03c-.39.04-.8.09-1.19.15-.17.03-.35.06-.6.09-1.09.13-2.17.25-3.26.36l-.76.07c-1.27.1-2.31.16-3.27.16-2.63,0-4.64-.36-6.29-1.15l-2.04-.95c-.77-.36-1.3-1.13-1.29-1.98,0-2.83.41-5.86,1.27-9.1,3.97-15.38,19.21-21.1,35.39-21.1,12.29,0,20.86,3.42,30.9,10.12.62.41.99,1.11,1,1.85l.14,19.41c0,1.24-.99,2.25-2.23,2.25Z"/>
    <path class="st0" d="M218.84,205.14c-4.76,17.61-21.58,24.11-39.19,24.11-13.93,0-27.71-3.32-37.94-10.25-.48-.33-.77-.88-.77-1.47v-23.33c0-.97.79-1.76,1.76-1.76h.93c.76,0,1.42.5,1.66,1.22,5.81,17.54,16.45,28.79,31.19,29.71,13.49.64,21.4-6.05,22.52-15.73.46-4.18.81-6.95-.14-9.45-.51-1.34-.21-2.9.8-3.93,4.79-4.92,6.26-12.62,6.26-20.2,0-.01,0-.03,0-.04,0-1.49,1.69-2.36,2.85-1.43,9.49,7.7,14.44,16.86,10.07,32.54Z"/>
    <path class="st0" d="M201.28,231.57l1.32-3.54c-3,1.34-6.29,2.39-9.84,3.1l-.16.44c-1.79,5.24-4.54,8.27-9.65,8.67v4.41h23.69v-4.41c-5.22-.41-7.29-3.3-5.37-8.67Z"/>
  </g>
  <g>
    <polygon class="st1" points="111.38 94.47 111.37 94.47 106 87.35 104.41 87.35 104.41 101.47 106.25 101.47 106.25 90.31 111.1 96.83 111.63 96.83 116.51 90.32 116.51 101.47 118.35 101.47 118.35 87.35 116.74 87.35 111.38 94.47"/>
    <path class="st1" d="M126.87,92.74c.56-.32,1.15-.48,1.77-.48.73,0,1.39.18,1.96.54.57.36,1,.88,1.27,1.55h1.84c-.21-.73-.56-1.39-1.04-1.95-.48-.57-1.07-1.01-1.76-1.33-.69-.32-1.45-.48-2.27-.48-1,0-1.92.25-2.74.75-.82.5-1.47,1.18-1.95,2.04-.48.86-.72,1.79-.72,2.81s.24,1.95.72,2.81c.48.86,1.13,1.53,1.95,2.04.82.5,1.74.75,2.74.75.82,0,1.58-.16,2.28-.48.7-.32,1.28-.77,1.77-1.36.48-.58.82-1.25,1.02-2.02h-1.83c-.27.71-.69,1.25-1.27,1.62-.58.37-1.23.56-1.96.56-.62,0-1.21-.16-1.77-.48-.56-.32-1.01-.78-1.35-1.38-.34-.6-.51-1.28-.51-2.07s.17-1.46.51-2.06c.34-.6.79-1.05,1.35-1.38Z"/>
    <path class="st1" d="M141.88,89.45c.83-.48,1.76-.73,2.78-.73,1.18,0,2.19.29,3.05.87.85.58,1.44,1.43,1.75,2.54h1.87c-.23-1.09-.67-2.03-1.33-2.79s-1.45-1.35-2.37-1.73c-.92-.39-1.89-.58-2.92-.58-1.36,0-2.6.33-3.72.98-1.13.65-2.01,1.54-2.66,2.67-.65,1.13-.98,2.36-.98,3.71s.33,2.58.98,3.7c.65,1.13,1.54,2.02,2.66,2.67,1.12.65,2.37.98,3.72.98,1.03,0,2.01-.19,2.93-.58s1.71-.96,2.36-1.73,1.1-1.7,1.32-2.8h-1.88c-.31,1.11-.9,1.95-1.75,2.53-.85.58-1.87.87-3.04.87-1.02,0-1.94-.24-2.78-.72-.83-.48-1.49-1.15-1.97-2.01-.48-.86-.72-1.83-.72-2.92s.24-2.05.72-2.92c.48-.87,1.14-1.54,1.97-2.03Z"/>
    <polygon class="st1" points="158.06 87.35 156.22 87.35 156.22 101.47 164.93 101.47 164.93 99.81 158.06 99.81 158.06 87.35"/>
    <polygon class="st1" points="171.23 95.07 177.79 95.07 177.79 93.49 171.23 93.49 171.23 89.02 178.78 89.02 178.78 87.35 169.39 87.35 169.39 101.47 178.87 101.47 178.87 99.81 171.23 99.81 171.23 95.07"/>
    <polygon class="st1" points="185.51 87.35 183.67 87.35 183.67 101.47 192.38 101.47 192.38 99.81 185.51 99.81 185.51 87.35"/>
    <polygon class="st1" points="198.68 87.35 196.84 87.35 196.84 101.47 205.54 101.47 205.54 99.81 198.68 99.81 198.68 87.35"/>
    <path class="st1" d="M214.2,87.35l-5.98,14.13h1.95l1.34-3.2h7.14l1.34,3.2h1.95l-5.97-14.13h-1.77ZM212.17,96.71l2.85-6.78.06-.24h.02l.05.24,2.85,6.78h-5.83Z"/>
    <polygon class="st1" points="236.39 98.42 236.38 98.42 227.67 87.35 226.13 87.35 226.13 101.47 227.96 101.47 227.96 90.43 236.66 101.47 238.22 101.47 238.22 87.35 236.39 87.35 236.39 98.42"/>
    <path class="st1" d="M255.87,90.71c-.62-1.07-1.49-1.89-2.62-2.48-1.12-.59-2.42-.88-3.9-.88h-5.16v14.13h5.19c1.47,0,2.76-.29,3.88-.88,1.12-.59,1.99-1.42,2.61-2.49s.92-2.3.92-3.7-.31-2.62-.93-3.69ZM254.25,97.28c-.45.81-1.1,1.43-1.94,1.87-.84.44-1.83.66-2.98.66h-3.34v-10.82h3.3c1.16,0,2.16.23,3.01.68.85.45,1.5,1.09,1.95,1.91.45.82.68,1.78.68,2.87s-.23,2.03-.68,2.84Z"/>
  </g>
  <g>
    <path class="st0" d="M142.95,68.82l-.19,1.76h-4.82v-.3c.35-.03.44-.22.44-.59v-4.76c0-.36-.08-.55-.44-.59v-.29h4.64l.18,1.75h-.23c-.13-.49-.44-1.22-1.31-1.22h-1.48v2.41h.99c.64,0,.76-.21.83-.61h.23v1.75h-.23c-.07-.39-.19-.61-.83-.61h-.99v2.5h1.67c.87,0,1.18-.73,1.31-1.22h.23Z"/>
    <path class="st0" d="M153.59,69.26c-.28,1.03-1.27,1.42-2.3,1.42-.84,0-1.67-.21-2.27-.63v-1.53h.23c.34,1.07.97,1.76,1.86,1.82.79.04,1.21-.37,1.28-.94.09-.84-.51-1.05-1.31-1.51-.94-.54-2.12-1.24-1.73-2.68.23-.9,1.13-1.24,2.08-1.24.75,0,1.26.21,1.87.63v1.34s-.22,0-.22,0c-.29-1.16-.77-1.59-1.53-1.63-.72-.04-1.06.35-1.08.81-.03.64.63,1.04,1.48,1.54,1.17.68,2.05,1.19,1.66,2.6Z"/>
    <path class="st0" d="M165.34,65.81h-.23c-.13-.49-.44-1.21-1.31-1.21h-.72v5.1c0,.36.09.56.45.59v.3h-2.24v-.3c.35-.03.45-.22.45-.59v-5.1h-.72c-.88,0-1.18.72-1.31,1.21h-.23l.18-1.75h5.52l.18,1.75Z"/>
    <path class="st0" d="M172.19,70.02c0,.41-.31.65-.67.65s-.67-.24-.67-.65.31-.64.67-.64.67.23.67.64Z"/>
    <path class="st0" d="M188.25,70.28v.3h-2.18v-.3c.34-.03.44-.22.44-.59v-4.49h-.56v-.3l1.64-.85h.22v5.64c0,.36.09.56.44.59Z"/>
    <path class="st0" d="M199.56,68.96c-.12,1-1.1,1.72-2.5,1.72-1.31,0-2.66-.67-2.5-1.93.1-.85.71-1.23,1.52-1.43-1.13-.55-1.35-1.26-1.12-2.13.22-.84,1.14-1.23,2.1-1.23,1.11,0,2.13.53,2.16,1.43.02.83-.46,1.32-1.26,1.56.96.37,1.72.93,1.59,2.01ZM198.36,69.19c0-.73-.7-1.19-1.83-1.61-.48.3-.67.64-.73,1.18-.09,1.03.57,1.57,1.31,1.57s1.24-.42,1.24-1.14ZM197.5,66.71c.45-.34.57-.8.57-1.28,0-.65-.31-1.13-1.01-1.13-.65,0-1.08.36-1.08,1.02s.68,1.01,1.52,1.39Z"/>
    <path class="st0" d="M210.84,68.96c-.12,1-1.1,1.72-2.5,1.72-1.31,0-2.66-.67-2.5-1.93.1-.85.71-1.23,1.52-1.43-1.13-.55-1.35-1.26-1.12-2.13.22-.84,1.14-1.23,2.1-1.23,1.11,0,2.13.53,2.16,1.43.02.83-.46,1.32-1.26,1.56.96.37,1.72.93,1.59,2.01ZM209.65,69.19c0-.73-.7-1.19-1.83-1.61-.48.3-.67.64-.73,1.18-.09,1.03.57,1.57,1.31,1.57s1.24-.42,1.24-1.14ZM208.78,66.71c.45-.34.57-.8.57-1.28,0-.65-.31-1.13-1.01-1.13-.65,0-1.08.36-1.08,1.02s.68,1.01,1.52,1.39Z"/>
    <path class="st0" d="M222.41,67.32c0,2.02-1.14,3.36-2.65,3.36s-2.64-1.33-2.64-3.36,1.13-3.36,2.64-3.36,2.65,1.33,2.65,3.36ZM221.06,67.32c0-1.88-.43-3.01-1.3-3.01s-1.29,1.13-1.29,3.01.42,3.01,1.29,3.01,1.3-1.13,1.3-3.01Z"/>
  </g>
  <g>
    <path class="st1" d="M103.81,262.06c-.93-.61-2.12-1.03-3.58-1.27-1.34-.18-2.33-.46-2.98-.83-.65-.37-.98-.92-.98-1.63,0-.67.25-1.23.75-1.66.5-.44,1.34-.65,2.51-.65.69,0,1.28.1,1.77.3s.86.48,1.11.85c.25.36.38.78.38,1.25h1.85c0-.8-.2-1.5-.59-2.1s-.97-1.07-1.73-1.41c-.77-.34-1.69-.51-2.77-.51-1.18,0-2.15.17-2.91.52s-1.32.82-1.68,1.41c-.36.59-.53,1.25-.53,1.99,0,.89.25,1.6.76,2.15.51.55,1.14.96,1.89,1.23.75.27,1.61.49,2.58.65,1.18.18,2.09.46,2.73.85.64.38.96.96.96,1.73,0,.87-.32,1.52-.96,1.96-.64.44-1.57.67-2.78.67-.75,0-1.4-.13-1.96-.38-.56-.26-.99-.6-1.29-1.03-.3-.43-.45-.9-.45-1.4h-1.84c0,.75.2,1.46.61,2.13.41.67,1.03,1.22,1.86,1.64.83.42,1.86.63,3.07.63s2.15-.17,2.99-.5,1.49-.82,1.93-1.45c.45-.63.67-1.39.67-2.26,0-1.3-.46-2.26-1.39-2.87Z"/>
    <polygon class="st1" points="116.94 261.83 116.93 261.83 111.56 254.71 109.97 254.71 109.97 268.83 111.81 268.83 111.81 257.67 116.66 264.19 117.19 264.19 122.07 257.68 122.07 268.83 123.91 268.83 123.91 254.71 122.3 254.71 116.94 261.83"/>
    <path class="st1" d="M134.08,254.71l-5.98,14.13h1.95l1.34-3.2h7.14l1.34,3.2h1.95l-5.97-14.13h-1.77ZM132.04,264.08l2.85-6.78.06-.24h.02l.05.24,2.85,6.78h-5.83Z"/>
    <polygon class="st1" points="154.7 267.17 147.84 267.17 147.84 254.71 146 254.71 146 268.83 154.7 268.83 154.7 267.17"/>
    <polygon class="st1" points="167.87 267.17 161.01 267.17 161.01 254.71 159.17 254.71 159.17 268.83 167.87 268.83 167.87 267.17"/>
    <path class="st1" d="M185.68,254.71h-1.77l-5.98,14.13h1.95l1.34-3.2h7.14l1.34,3.2h1.95l-5.97-14.13ZM181.88,264.08l2.85-6.78.06-.24h.02l.05.24,2.85,6.78h-5.83Z"/>
    <polygon class="st1" points="207.93 268.83 207.93 254.71 206.1 254.71 206.1 265.78 206.09 265.78 197.38 254.71 195.84 254.71 195.84 268.83 197.68 268.83 197.68 257.79 206.37 268.83 207.93 268.83"/>
    <rect class="st1" x="213.9" y="254.71" width="1.84" height="14.13"/>
    <polygon class="st1" points="223.54 257.67 228.39 264.19 228.92 264.19 233.81 257.68 233.81 268.83 235.64 268.83 235.64 254.71 234.03 254.71 228.67 261.83 228.67 261.83 223.29 254.71 221.71 254.71 221.71 268.83 223.54 268.83 223.54 257.67"/>
    <path class="st1" d="M245.81,254.71l-5.98,14.13h1.95l1.34-3.2h7.14l1.34,3.2h1.95l-5.97-14.13h-1.77ZM243.78,264.08l2.85-6.78.06-.24h.02l.05.24,2.85,6.78h-5.83Z"/>
    <polygon class="st1" points="259.57 267.17 259.57 254.71 257.73 254.71 257.73 268.83 266.44 268.83 266.44 267.17 259.57 267.17"/>
    <polygon class="st1" points="135.16 281.3 126.99 281.3 126.99 275.08 125.16 275.08 125.16 289.21 126.99 289.21 126.99 282.95 135.16 282.95 135.16 289.21 137.01 289.21 137.01 275.08 135.16 275.08 135.16 281.3"/>
    <path class="st1" d="M153.23,275.75c-1.16-.65-2.42-.98-3.79-.98s-2.63.33-3.79.98-2.07,1.54-2.74,2.67c-.68,1.12-1.01,2.36-1.01,3.71s.34,2.57,1.01,3.69,1.59,2.02,2.75,2.67c1.16.66,2.42.99,3.78.99s2.63-.33,3.79-.99c1.16-.66,2.07-1.55,2.75-2.67.68-1.12,1.02-2.36,1.02-3.69s-.34-2.59-1.02-3.71c-.68-1.13-1.6-2.02-2.75-2.67ZM154.39,285.01c-.51.86-1.21,1.54-2.08,2.04-.87.5-1.83.74-2.88.74s-1.99-.25-2.87-.74c-.87-.49-1.56-1.17-2.07-2.04-.51-.86-.76-1.82-.76-2.87s.25-2.01.76-2.88c.51-.87,1.2-1.55,2.07-2.05.87-.5,1.83-.75,2.87-.75s2,.25,2.88.75c.87.5,1.56,1.18,2.08,2.05.51.87.77,1.82.77,2.88s-.26,2.01-.77,2.87Z"/>
    <path class="st1" d="M170.49,282.43c-.93-.61-2.12-1.03-3.58-1.27-1.34-.18-2.33-.46-2.98-.83-.65-.37-.98-.92-.98-1.63,0-.67.25-1.23.75-1.66.5-.44,1.34-.65,2.51-.65.69,0,1.28.1,1.77.3s.86.48,1.11.85c.25.36.38.78.38,1.25h1.85c0-.8-.2-1.5-.59-2.1s-.97-1.07-1.73-1.41c-.77-.34-1.69-.51-2.77-.51-1.18,0-2.15.17-2.91.52s-1.32.82-1.68,1.41c-.36.59-.53,1.25-.53,1.99,0,.89.25,1.6.76,2.15.51.55,1.14.96,1.89,1.23.75.27,1.61.49,2.58.65,1.18.18,2.09.46,2.73.85.64.38.96.96.96,1.73,0,.87-.32,1.52-.96,1.96-.64.44-1.57.67-2.78.67-.75,0-1.4-.13-1.96-.38-.56-.26-.99-.6-1.29-1.03-.3-.43-.45-.9-.45-1.4h-1.84c0,.75.2,1.46.61,2.13.41.67,1.03,1.22,1.86,1.64.83.42,1.86.63,3.07.63s2.15-.17,2.99-.5,1.49-.82,1.93-1.45c.45-.63.67-1.39.67-2.26,0-1.3-.46-2.26-1.39-2.87Z"/>
    <path class="st1" d="M184.87,275.68c-.71-.4-1.52-.6-2.42-.6h-5.8v14.13h1.84v-4.83h4c.89,0,1.69-.2,2.4-.6.71-.4,1.26-.95,1.66-1.66s.6-1.52.6-2.42-.2-1.67-.6-2.37c-.4-.7-.96-1.25-1.67-1.65ZM184.93,281.24c-.25.46-.6.82-1.04,1.08-.44.26-.94.4-1.47.4h-3.92v-5.98h3.9c.54,0,1.03.13,1.48.4s.8.63,1.05,1.08c.26.46.38.95.38,1.49,0,.56-.12,1.07-.38,1.53Z"/>
    <rect class="st1" x="191.62" y="275.08" width="1.84" height="14.13"/>
    <polygon class="st1" points="198.02 276.73 202.49 276.73 202.49 289.21 204.32 289.21 204.32 276.73 208.8 276.73 208.8 275.08 198.02 275.08 198.02 276.73"/>
    <path class="st1" d="M215.86,275.08l-5.98,14.13h1.95l1.34-3.2h7.14l1.34,3.2h1.95l-5.97-14.13h-1.77ZM213.83,284.45l2.85-6.78.06-.24h.02l.05.24,2.85,6.78h-5.83Z"/>
    <polygon class="st1" points="229.62 275.08 227.78 275.08 227.78 289.21 236.49 289.21 236.49 287.54 229.62 287.54 229.62 275.08"/>
  </g>
  <g>
    <circle class="st0" cx="27.75" cy="179.83" r="1.59"/>
    <circle class="st0" cx="28.13" cy="190.46" r="1.59"/>
    <path class="st0" d="M30.81,200.81c-.12-.87-.93-1.48-1.8-1.36-.87.12-1.48.93-1.36,1.8.12.87.93,1.48,1.8,1.36.87-.12,1.48-.93,1.36-1.8Z"/>
    <circle class="st0" cx="31.08" cy="211.5" r="1.59"/>
    <circle class="st0" cx="33.65" cy="221.81" r="1.59" transform="translate(-150.97 94.34) rotate(-46.75)"/>
    <circle class="st0" cx="36.94" cy="231.92" r="1.59"/>
    <path class="st0" d="M40.27,240.33c-.8.36-1.16,1.3-.81,2.1.36.8,1.3,1.16,2.1.81s1.16-1.3.81-2.1c-.36-.8-1.3-1.16-2.1-.81Z"/>
    <path class="st0" d="M44.84,249.93c-.78.41-1.07,1.38-.66,2.15.41.78,1.38,1.07,2.15.66.78-.41,1.07-1.38.66-2.15-.41-.78-1.38-1.07-2.15-.66Z"/>
    <path class="st0" d="M50.05,259.19c-.75.47-.97,1.45-.51,2.19.47.75,1.45.97,2.19.51s.97-1.45.51-2.19c-.47-.75-1.45-.97-2.19-.51Z"/>
    <circle class="st0" cx="56.84" cy="269.36" r="1.59" transform="translate(-147.21 84.57) rotate(-35.92)"/>
    <path class="st0" d="M62.37,276.52c-.67.57-.76,1.57-.2,2.24.57.67,1.57.76,2.24.2.67-.57.76-1.57.2-2.24-.57-.67-1.57-.76-2.24-.2Z"/>
    <circle class="st0" cx="70.5" cy="285.64" r="1.59"/>
    <circle class="st0" cx="78.15" cy="293.02" r="1.59"/>
    <path class="st0" d="M87.27,298.6c-.69-.54-1.69-.42-2.24.27-.54.69-.42,1.69.27,2.24.69.54,1.69.42,2.24-.27.54-.69.42-1.69-.27-2.24Z"/>
    <path class="st0" d="M95.79,304.78c-.73-.49-1.72-.3-2.21.43s-.3,1.72.43,2.21,1.72.3,2.21-.43.3-1.72-.43-2.21Z"/>
    <path class="st0" d="M104.71,310.36c-.76-.44-1.74-.18-2.18.58-.44.76-.18,1.74.58,2.18s1.74.18,2.18-.58c.44-.76.18-1.74-.58-2.18Z"/>
    <path class="st0" d="M114,315.3c-.79-.39-1.74-.06-2.13.73-.39.79-.06,1.74.73,2.13.79.39,1.74.06,2.13-.73.39-.79.06-1.74-.73-2.13Z"/>
    <path class="st0" d="M123.61,319.58c-.82-.33-1.74.06-2.07.88-.33.82.06,1.74.88,2.07.82.33,1.74-.06,2.07-.88.33-.82-.06-1.74-.88-2.07Z"/>
    <path class="st0" d="M133.49,323.17c-.84-.27-1.74.19-2.01,1.02s.19,1.74,1.02,2.01c.84.27,1.74-.19,2.01-1.02.27-.84-.19-1.74-1.02-2.01Z"/>
    <path class="st0" d="M143.61,326.07c-.85-.21-1.72.31-1.93,1.16-.21.85.31,1.72,1.16,1.93s1.72-.31,1.93-1.16c.21-.85-.31-1.72-1.16-1.93Z"/>
    <path class="st0" d="M153.9,328.26c-.87-.15-1.69.43-1.85,1.29-.15.87.43,1.69,1.29,1.85.87.15,1.69-.43,1.85-1.29.15-.87-.43-1.69-1.29-1.85Z"/>
    <path class="st0" d="M164.31,329.73c-.87-.09-1.66.54-1.75,1.42-.09.87.54,1.66,1.42,1.75.87.09,1.66-.54,1.75-1.42.09-.87-.54-1.66-1.42-1.75Z"/>
    <path class="st0" d="M174.81,330.46c-.88-.03-1.62.66-1.65,1.54-.03.88.66,1.62,1.54,1.65.88.03,1.62-.66,1.65-1.54.03-.88-.66-1.62-1.54-1.65Z"/>
    <path class="st0" d="M185.33,330.46c-.88.03-1.57.77-1.54,1.65s.77,1.57,1.65,1.54c.88-.03,1.57-.77,1.54-1.65s-.77-1.57-1.65-1.54Z"/>
    <path class="st0" d="M195.82,329.73c-.87.09-1.51.88-1.42,1.75.09.87.88,1.51,1.75,1.42.87-.09,1.51-.88,1.42-1.75-.09-.87-.88-1.51-1.75-1.42Z"/>
    <path class="st0" d="M206.24,328.26c-.87.15-1.44.98-1.29,1.85.15.87.98,1.44,1.85,1.29s1.44-.98,1.29-1.85c-.15-.87-.98-1.44-1.85-1.29Z"/>
    <path class="st0" d="M216.53,326.07c-.85.21-1.37,1.08-1.16,1.93s1.08,1.37,1.93,1.16,1.37-1.08,1.16-1.93c-.21-.85-1.08-1.37-1.93-1.16Z"/>
    <path class="st0" d="M226.64,323.17c-.84.27-1.29,1.17-1.02,2.01.27.84,1.17,1.29,2.01,1.02.84-.27,1.29-1.17,1.02-2.01s-1.17-1.29-2.01-1.02Z"/>
    <path class="st0" d="M236.53,319.58c-.82.33-1.21,1.26-.88,2.07.33.82,1.26,1.21,2.07.88.82-.33,1.21-1.26.88-2.07-.33-.82-1.26-1.21-2.07-.88Z"/>
    <path class="st0" d="M246.14,315.3c-.79.39-1.12,1.34-.73,2.13.39.79,1.34,1.12,2.13.73.79-.39,1.12-1.34.73-2.13-.39-.79-1.34-1.12-2.13-.73Z"/>
    <circle class="st0" cx="256.22" cy="311.74" r="1.59"/>
    <circle class="st0" cx="265.24" cy="306.1" r="1.59"/>
    <path class="st0" d="M272.86,298.6c-.69.54-.82,1.54-.27,2.24.54.69,1.54.82,2.24.27.69-.54.82-1.54.27-2.24-.54-.69-1.54-.82-2.24-.27Z"/>
    <circle class="st0" cx="281.99" cy="293.02" r="1.59"/>
    <circle class="st0" cx="289.63" cy="285.64" r="1.59"/>
    <path class="st0" d="M297.77,276.52c-.67-.57-1.68-.48-2.24.2-.57.67-.48,1.68.2,2.24.67.57,1.68.48,2.24-.2s.48-1.68-.2-2.24Z"/>
    <circle class="st0" cx="303.29" cy="269.36" r="1.59"/>
    <path class="st0" d="M310.08,259.19c-.75-.47-1.73-.24-2.19.51-.47.75-.24,1.73.51,2.19s1.73.24,2.19-.51c.47-.75.24-1.73-.51-2.19Z"/>
    <path class="st0" d="M315.3,249.93c-.78-.41-1.74-.12-2.15.66-.41.78-.12,1.74.66,2.15s1.74.12,2.15-.66c.41-.78.12-1.74-.66-2.15Z"/>
    <path class="st0" d="M319.86,240.33c-.8-.36-1.75,0-2.1.81-.36.8,0,1.75.81,2.1s1.75,0,2.1-.81,0-1.75-.81-2.1Z"/>
    <path class="st0" d="M323.74,230.43c-.83-.3-1.74.13-2.04.95-.3.83.13,1.74.95,2.04.83.3,1.74-.13,2.04-.95.3-.83-.13-1.74-.95-2.04Z"/>
    <path class="st0" d="M326.92,220.28c-.85-.24-1.73.25-1.97,1.09s.25,1.73,1.09,1.97c.85.24,1.73-.25,1.97-1.09.24-.85-.25-1.73-1.09-1.97Z"/>
    <path class="st0" d="M329.38,209.94c-.86-.18-1.71.37-1.89,1.23-.18.86.37,1.71,1.23,1.89.86.18,1.71-.37,1.89-1.23.18-.86-.37-1.71-1.23-1.89Z"/>
    <path class="st0" d="M331.12,199.45c-.87-.12-1.68.48-1.8,1.36-.12.87.48,1.68,1.36,1.8.87.12,1.68-.48,1.8-1.36.12-.87-.48-1.68-1.36-1.8Z"/>
    <path class="st0" d="M332.12,188.87c-.88-.06-1.64.6-1.7,1.48-.06.88.6,1.64,1.48,1.7s1.64-.6,1.7-1.48c.06-.88-.6-1.64-1.48-1.7Z"/>
    <circle class="st0" cx="332.38" cy="179.83" r="1.59"/>
    <path class="st0" d="M331.9,167.62c-.88.06-1.54.82-1.48,1.7s.82,1.54,1.7,1.48,1.54-.82,1.48-1.7c-.06-.88-.82-1.54-1.7-1.48Z"/>
    <path class="st0" d="M329.32,158.85c.12.87.93,1.48,1.8,1.36.87-.12,1.48-.93,1.36-1.8-.12-.87-.93-1.48-1.8-1.36s-1.48.93-1.36,1.8Z"/>
    <path class="st0" d="M327.5,148.49c.18.86,1.03,1.41,1.89,1.23.86-.18,1.41-1.03,1.23-1.89-.18-.86-1.03-1.41-1.89-1.23-.86.18-1.41,1.03-1.23,1.89Z"/>
    <path class="st0" d="M326.92,139.38c.85-.24,1.33-1.12,1.09-1.97-.24-.85-1.12-1.33-1.97-1.09-.85.24-1.33,1.12-1.09,1.97s1.12,1.33,1.97,1.09Z"/>
    <path class="st0" d="M322.65,126.24c-.83.3-1.25,1.21-.95,2.04.3.83,1.21,1.25,2.04.95.83-.3,1.25-1.21.95-2.04-.3-.83-1.21-1.25-2.04-.95Z"/>
    <path class="st0" d="M318.57,116.42c-.8.36-1.16,1.3-.81,2.1.36.8,1.3,1.16,2.1.81s1.16-1.3.81-2.1-1.3-1.16-2.1-.81Z"/>
    <path class="st0" d="M313.8,106.92c-.78.41-1.07,1.38-.66,2.15.41.78,1.38,1.07,2.15.66s1.07-1.38.66-2.15-1.38-1.07-2.15-.66Z"/>
    <path class="st0" d="M308.39,97.77c-.75.47-.97,1.45-.51,2.19.47.75,1.45.97,2.19.51s.97-1.45.51-2.19c-.47-.75-1.45-.97-2.19-.51Z"/>
    <circle class="st0" cx="303.29" cy="90.3" r="1.59" transform="translate(29.62 249.19) rotate(-46.72)"/>
    <circle class="st0" cx="296.75" cy="81.93" r="1.59"/>
    <circle class="st0" cx="289.63" cy="74.02" r="1.59"/>
    <path class="st0" d="M283.05,65.46c-.65-.59-1.66-.54-2.25.12-.59.65-.54,1.66.12,2.25.65.59,1.66.54,2.25-.12.59-.65.54-1.66-.12-2.25Z"/>
    <path class="st0" d="M274.82,58.55c-.69-.54-1.69-.42-2.24.27-.54.69-.42,1.69.27,2.24.69.54,1.69.42,2.24-.27.54-.69.42-1.69-.27-2.24Z"/>
    <circle class="st0" cx="265.24" cy="53.56" r="1.59"/>
    <circle class="st0" cx="256.22" cy="47.92" r="1.59"/>
    <circle class="st0" cx="246.84" cy="42.93" r="1.59"/>
    <circle class="st0" cx="237.13" cy="38.61" r="1.59"/>
    <circle class="st0" cx="227.14" cy="34.97" r="1.59"/>
    <circle class="st0" cx="216.92" cy="32.04" r="1.59"/>
    <circle class="st0" cx="206.52" cy="29.83" r="1.59"/>
    <path class="st0" d="M196.16,26.77c-.87-.09-1.66.54-1.75,1.42s.54,1.66,1.42,1.75c.87.09,1.66-.54,1.75-1.42.09-.87-.54-1.66-1.42-1.75Z"/>
    <path class="st0" d="M185.44,26.02c-.88-.03-1.62.66-1.65,1.54-.03.88.66,1.62,1.54,1.65s1.62-.66,1.65-1.54-.66-1.62-1.54-1.65Z"/>
    <circle class="st0" cx="174.75" cy="27.61" r="1.59"/>
    <circle class="st0" cx="164.15" cy="28.35" r="1.59"/>
    <circle class="st0" cx="153.62" cy="29.83" r="1.59"/>
    <circle class="st0" cx="143.22" cy="32.04" r="1.59"/>
    <circle class="st0" cx="133" cy="34.97" r="1.59"/>
    <circle class="st0" cx="123.01" cy="38.61" r="1.59"/>
    <circle class="st0" cx="113.3" cy="42.93" r="1.59"/>
    <path class="st0" d="M103.11,46.54c-.76.44-1.02,1.41-.58,2.18.44.76,1.41,1.02,2.18.58s1.02-1.41.58-2.18c-.44-.76-1.41-1.02-2.18-.58Z"/>
    <path class="st0" d="M94,52.24c-.73.49-.92,1.48-.43,2.21s1.48.92,2.21.43.92-1.48.43-2.21-1.48-.92-2.21-.43Z"/>
    <path class="st0" d="M85.31,58.55c-.69.54-.82,1.54-.27,2.24.54.69,1.54.82,2.24.27.69-.54.82-1.54.27-2.24-.54-.69-1.54-.82-2.24-.27Z"/>
    <circle class="st0" cx="78.15" cy="66.64" r="1.59"/>
    <circle class="st0" cx="70.5" cy="74.02" r="1.59"/>
    <circle class="st0" cx="63.39" cy="81.93" r="1.59"/>
    <circle class="st0" cx="56.84" cy="90.3" r="1.59"/>
    <circle class="st0" cx="50.9" cy="99.12" r="1.59"/>
    <path class="st0" d="M46.33,106.92c-.78-.41-1.74-.12-2.15.66-.41.78-.12,1.74.66,2.15s1.74.12,2.15-.66c.41-.78.12-1.74-.66-2.15Z"/>
    <circle class="st0" cx="40.92" cy="117.88" r="1.59"/>
    <circle class="st0" cx="36.94" cy="127.74" r="1.59"/>
    <circle class="st0" cx="33.65" cy="137.85" r="1.59"/>
    <circle class="st0" cx="31.08" cy="148.16" r="1.59"/>
    <path class="st0" d="M29.01,160.21c.87.12,1.68-.48,1.8-1.36s-.48-1.68-1.36-1.8c-.87-.12-1.68.48-1.8,1.36-.12.87.48,1.68,1.36,1.8Z"/>
    <circle class="st0" cx="28.13" cy="169.21" r="1.59"/>
  </g>
  <path class="st0" d="M177.57,166.87c-1.03.95-2.54,1.35-3.91,1.13.97-.93,1.83-2.03,2.18-3.35-.89,1.28-1.8,2.67-3.25,3.39-1.39.81-3.12.8-4.62.33-.03-.14.14-.17.23-.25,1.92-1.14,3.65-2.68,4.8-4.61-1.63,1.66-3.44,3.22-5.59,4.16-1.49.66-3.24.5-4.68-.2-.37-.2-.77-.4-1.04-.73,1.45-.23,2.82-.79,4.09-1.51,1.5-.86,2.92-1.84,4.25-2.95.27-.22.5-.51.84-.63-.05,0-.15-.03-.2-.03-1.6,1.03-3.22,2.05-4.94,2.88-1.28.61-2.62,1.19-4.04,1.38-1.32.21-2.71-.04-3.89-.67-.78-.42-1.47-.99-2.09-1.62,1.27-.01,2.54-.15,3.78-.44.13-.03.27-.06.4-.05,1.4-.37,2.76-.86,4.11-1.39,1.32-.59,2.63-1.22,3.91-1.9.38-.21.79-.38,1.13-.66-2.21.79-4.38,1.71-6.64,2.36l-.02.03c-1.13.36-2.27.69-3.44.87-1.55.29-3.18.43-4.71-.04-1.71-.65-3.15-1.97-3.95-3.6,1.88.48,3.85.45,5.78.32.48-.02.95-.16,1.43-.13,1.4-.25,2.81-.44,4.18-.79.2-.05.4-.12.61-.11.47-.18.96-.28,1.44-.41,1.37-.37,2.72-.83,4.08-1.26-.01-.01-.04-.04-.05-.06-.96.17-1.91.4-2.87.57-1,.19-2.01.38-3.01.57-1.27.18-2.53.43-3.81.53-1.04.15-2.09.21-3.15.26-1.38.04-2.79.02-4.11-.39-1.62-.5-2.96-1.74-3.69-3.25-.33-.7-.58-1.45-.72-2.22,3.71,1.74,7.94,1.74,11.94,1.42,1.42-.15,2.83-.29,4.24-.47.57-.06,1.14-.17,1.71-.21,1.14-.16,2.28-.33,3.43-.44,1.5-.19,3.15-.45,4.51.37.73.48,1.35,1.2,1.49,2.08.15.79-.35,1.5-.35,2.28-.01,1.05.31,2.1.9,2.96.5.69,1.16,1.34,2.03,1.5.34.08.71,0,1.05.1.47.65,1.1,1.25,1.24,2.07.24,1.03-.29,2.07-1,2.78Z"/>
  <path class="st0" d="M213.76,152.43c-.31,1.59-1.02,3.15-2.26,4.22-.67.58-1.46,1.06-2.32,1.3-1.6.41-3.27.41-4.9.28-1.14-.06-2.27-.22-3.4-.36-.67-.09-1.34-.21-2.01-.3v-.02c-1.56-.22-3.09-.54-4.63-.85-.66-.08-1.29-.34-1.96-.36,1.96.77,4.01,1.28,6.04,1.84.25-.01.49.08.73.13,2.03.46,4.09.76,6.16.86,1.57.08,3.15-.05,4.69-.38-.81,1.57-2.16,2.87-3.79,3.56-.3.11-.61.24-.94.24-.62.16-1.27.13-1.91.1-1.95-.13-3.87-.56-5.72-1.19-1.72-.49-3.37-1.19-5.05-1.82-.57-.21-1.13-.45-1.69-.71,1.55,1.08,3.29,1.86,5.01,2.63.54.25,1.09.46,1.64.66,2.23.83,4.61,1.35,7.01,1.31-1.04,1.01-2.28,1.88-3.71,2.22-1.28.32-2.64.13-3.89-.27l.04-.02c-2.18-.63-4.16-1.8-6.06-3.01v-.02c-.57-.31-1.09-.7-1.66-1.02.95.97,2.07,1.76,3.16,2.57,1.19.75,2.37,1.55,3.69,2.04.79.3,1.61.54,2.44.68-1.33,1.22-3.34,1.6-5.07,1.18-1.43-.39-2.66-1.27-3.81-2.17-.93-.72-1.75-1.57-2.6-2.39,1.25,2.08,3.13,3.74,5.22,4.96-1.65.6-3.57.46-5.06-.48-1.22-.82-2.04-2.06-2.89-3.22.43,1.29,1.18,2.49,2.21,3.38-1.16.17-2.39-.01-3.38-.67-1.03-.65-1.77-1.89-1.56-3.13.12-.86.74-1.52,1.22-2.2.42-.07.87,0,1.28-.14.95-.3,1.64-1.1,2.1-1.96.57-1.08.82-2.42.35-3.59-.35-.85,0-1.8.55-2.47.84-1.05,2.29-1.43,3.59-1.29,1.68.07,3.36.34,5.03.58,1.14.08,2.26.29,3.4.42,1.19.11,2.39.22,3.57.35.99.02,1.99.08,2.98.12,1.23-.08,2.47-.11,3.69-.27,1.53-.25,3.04-.64,4.44-1.34Z"/>
  <path class="st0" d="M181.82,162.08c-.18.34-.47.62-.82.78-.18.07-.36.13-.54.2l.02.03c-.36.01-.72-.03-1.07-.11-.15-.07-.3-.14-.45-.2-1.16-.65-1.11-2.56.05-3.19.18-.07.35-.15.52-.23.34-.06.68-.09,1.01-.02.18.04.35.11.53.17h0c.86.5,1.23,1.69.75,2.57Z"/>
  <path class="st0" d="M180.85,167.83c.02.12.03.25.02.38-.08,1.84-.14,3.68-.13,5.51-.29,0-.59,0-.88,0-.17-.01-.33-.03-.5-.04.01-3.44-.19-6.88-.15-10.33.21.04.42.07.64.12.3-.01.6-.04.89-.07.06-.02.18-.06.24-.08-.07,1.5-.04,3.01-.13,4.51Z"/>
  <path class="st0" d="M189.67,170.73c-.64-1.08-2.01-1.51-3.2-1.31-.53.11-1.06-.07-1.59-.12-.91-.12-1.8.25-2.58.69-.51.32-1.06.71-1.21,1.33.37.35.88.47,1.38.47.37-.01.66.26,1.02.32.8.11,1.61-.07,2.34-.4.55-.25,1.27-.34,1.77.07.27.21.31.61.13.9-.23.38-.63.62-1.03.79-.94.4-1.96.55-2.98.62-.13,0-.27.01-.36.11,1.2.28,2.33.83,3.25,1.67.97-.27,1.95-.68,2.62-1.46.89-.97,1.15-2.52.45-3.67ZM184.67,170.54c-.42.37-1.07.24-1.55.05.29-.4.83-.57,1.3-.54.23,0,.47.31.24.48Z"/>
  <path class="st0" d="M186.37,176.42c-1.04-1.11-2.56-1.6-4.02-1.86-.74-.15-1.5-.21-2.25-.25-.53-.06-1.06-.11-1.6-.11-.73-.08-1.46-.13-2.19-.17-.38-.09-.77-.12-1.16-.14-.51-.1-1.02-.21-1.52-.36h0c-.59-.23-1.32-.6-1.31-1.32,0-.4.38-.56.67-.73.61-.05,1.19.14,1.74.37.72.3,1.59.47,2.32.11.56-.33,1.3-.02,1.8-.5.26-.18.08-.5-.08-.69-.61-.69-1.47-1.11-2.34-1.35-.74-.21-1.53-.11-2.27.04-.12-.03-.25-.04-.38-.03-.9-.17-1.87-.04-2.61.53-.62.44-.97,1.17-1.07,1.91-.11.9.22,1.81.79,2.5.62.66,1.41,1.13,2.27,1.4.52.12,1.05.3,1.59.33.39.04.77.14,1.16.12.64.1,1.29.09,1.93.13.61.01,1.21.11,1.82.11.87.06,1.74.2,2.6.3.8.28,1.71.48,2.28,1.16.33.36.17.96-.23,1.2-.76.5-1.68.63-2.56.79,1.11.24,2.14.8,3.01,1.53.9-.39,1.85-.96,2.19-1.94.38-1.03.17-2.26-.59-3.07ZM175.62,170.07c.47-.13.94.12,1.33.36,0,.03,0,.09.01.12-.45.16-1.02.35-1.46.04-.2-.14-.09-.46.12-.52Z"/>
  <path class="st0" d="M184.82,185.89c-.33.5-.85.81-1.35,1.1-.4-.3-.8-.61-1.27-.81-.34-.17-.72-.22-1.05-.4.74-.12,1.54-.36,2-1,.33-.43.25-1.09-.17-1.43-.97-.83-2.29-1.02-3.51-1.19-.48-.04-.96-.16-1.44-.21-1.32-.28-2.75-.39-3.89-1.2v-.03c-.77-.5-1.23-1.43-1.16-2.34-.02-.63.25-1.22.59-1.73.09-.08.2-.2.34-.14,1,.23,2.04.24,3.06.35.55.06,1.11-.03,1.65.1-.93.2-1.87.38-2.72.82-.24.14-.49.37-.48.68.05.44.46.71.83.87.71.31,1.48.43,2.23.6.27,0,.54.06.81.12,1.36.13,2.76.3,4,.93.82.43,1.56,1.12,1.88,2.01.35.95.24,2.07-.35,2.9Z"/>
  <path class="st0" d="M180.57,179.62c-.23-.02-.46-.03-.7-.04-.18.02-.44-.03-.4-.27.04-.77,0-1.54.05-2.31.35.01.71.03,1.06.04.01.86,0,1.71-.01,2.57Z"/>
  <path class="st0" d="M180.56,182.86c-.02.93-.02,1.86-.03,2.79-.33-.04-.66-.08-.98-.19.04-.91-.03-1.81.02-2.72.07.02.22.05.3.07.23.02.46.04.69.06Z"/>
  <path class="st0" d="M183.3,191.35c-.34.31-.78.49-1.19.69-.43-.25-.88-.47-1.32-.69.7-.28,1.55-.61,1.79-1.4.19-.58-.27-1.07-.71-1.37-.65-.37-1.37-.55-2.09-.7-.49-.06-.96-.21-1.44-.31-1.25-.32-2.67-.79-3.27-2.04l-.03-.02c-.49-.97-.39-2.17.18-3.08.12-.14.23-.28.35-.41.94.28,1.92.41,2.9.53.13,0,.25.06.36.12-.62.13-1.27.3-1.75.74-.4.37-.41,1.04-.07,1.46.29.36.73.56,1.15.76v.02c.6.2,1.2.34,1.8.5,1.14.21,2.32.51,3.24,1.25,1.24.93,1.26,2.97.1,3.97Z"/>
  <path class="st0" d="M180.44,191.12c-.06-.01-.19-.05-.25-.06-.19-.01-.37-.05-.55-.09,0-.83-.02-1.66-.02-2.49.16,0,.33,0,.5.01l-.02.04c.1.01.3.03.39.05,0,.85,0,1.7-.05,2.54Z"/>
  <path class="st0" d="M180.72,196.02c0-.2.01-.39.02-.59.33-.13.67-.31.84-.64.25-.38.2-.91-.1-1.24-.43-.49-1.08-.7-1.69-.87-.43-.07-.85-.24-1.27-.36-.54-.17-1.06-.42-1.52-.73-1.19-.92-1.33-2.91-.27-3.98.15.05.29.11.44.17v.02c.63.17,1.25.35,1.89.5-.42.21-.92.28-1.23.67-.32.33-.38.89-.11,1.27.33.49.87.76,1.38,1.01v.02c.39.17.79.3,1.19.44h-.04c.93.31,2,.77,2.35,1.77.41,1.19-.6,2.63-1.88,2.55Z"/>
  <path class="st0" d="M178,192.69c.42.16.84.28,1.27.42-.34.19-.72.42-.81.84-.24.63.28,1.35.93,1.42.03.21.06.43.09.64-.75-.02-1.53-.44-1.82-1.15-.33-.71-.2-1.61.35-2.17Z"/>
  <path class="st0" d="M179.83,193.37c.17.04.34.07.51.11-.07,2.02.05,4.05-.24,6.06l-.13-.11c-.12-1.55-.08-3.12-.14-4.68-.02-.46-.01-.92,0-1.38Z"/>
  <path class="st0" d="M178.89,196.9c.14-.22.34-.49.63-.47-.04.34-.34.52-.53.78-.09.24-.1.5-.14.75-.08-.35-.16-.74.04-1.07Z"/>
  <path class="st0" d="M174.97,210.4l-14.15-29.43h8.7l10.61,24.91,10.79-24.91h8.52l-14.44,29.43h-10.03Z"/>
</svg>