<svg xmlns="http://www.w3.org/2000/svg" viewBox="0 0 1024 912">
	<path
		d="M560.645 733.355c-24.858-25.123-50.486-48.972-74.447-74.498-9.488-10.11-17.18-21.679-26.607-31.802-7.268-7.805-15.487-14.666-22.99-22.214-18.438-18.55-36.428-37.544-54.582-56.376-1.14-1.183-2.454-2.297-2.8-4.655 4.893-3.421 11.54-2.866 17.358-6.131-4.735-3.44-9.787-3.767-14.553-3.801-2.592-.019-2.863 3.72-3.895 5.906-2.275 4.819-2.731 4.95-6.36.988-9.454-10.32-18.948-20.604-28.296-31.019-4.714-5.252-4.907-8.482-.216-13.476 10.49-11.172 21.295-22.05 31.926-33.09 1.842-1.914 3.485-2.134 5.599-.397 5.406 4.442 10.946 8.721 16.356 13.158 2.167 1.777 2.076 1.888-.481 9.601 13.239 2.094 21.075 9.292 19.564 22.934 1.56 1.131 2.375 1.014 3.14.623 5.571-2.846 9.818-.657 13.854 3.308 15.69 15.414 31.478 30.726 47.21 46.097 26.575 25.967 54.189 50.851 80.795 76.77 27.685 26.969 54.685 54.652 81.323 82.671 23.534 24.755 47.328 49.251 71.86 73.028 12.186 11.812 12.168 24.262.177 36.103-4.855 4.795-9.94 9.364-15.045 13.896-10.608 9.419-20.716 9.119-30.886-.927-21.22-20.96-42.377-41.985-63.59-62.953-14.695-14.524-29.44-28.998-44.414-43.744zM284.454 511.566c-10.957 6.394-21.644 12.533-32.234 18.836-2.568 1.528-4.383 1.483-6.538-.743-14.02-14.48-28.626-28.382-42.099-43.403-3.528-3.933-4.366-7.935-3.205-12.836 1.688-7.132 5.01-12.883 10.432-18.212 10.552-10.373 20.184-21.693 30.03-32.77 15.32-17.234 32.252-32.728 50.144-47.223 14.936-12.1 27.944-26.17 40.856-40.328 3.262-3.577 6.623-7.049 10.622-9.814 9.801-6.776 23.28-1.653 26.235 9.927.427 1.67 1.001 3.658-.978 4.372-4.727 1.705-9.274 4.898-14.72 2.665-1.618-.663-2.763-.628-3.621 1.222-3.782 8.146-.87 23.624 5.756 30.01.203.197.59.203 1.388.456.43-5.337 1.143-10.558 1.178-15.784.029-4.322 1.854-6.003 5.966-6.055 3.988-.05 7.997.086 11.947-.776 2.648-.578 4.64.41 5.529 3.02 1 2.936 2.388 3.765 5.574 2.466 4.705-1.92 14.07 3.618 15.041 8.525.553 2.79-2.623 4.133-2.82 6.789 1.718 1.092 3.126-.245 4.574-.684 1.983-.602 3.889-1.217 5.59.494 1.72 1.73.358 3.402-.224 5.064-3.247 9.272-8.59 17.132-15.364 24.253-20.89 21.961-41.927 43.79-61.617 66.865-11.851 13.887-27.184 17.695-44.686 14.835-2.181-.357-4.948-1.842-6.423.605-1.279 2.12.08 4.946 1.542 6.44 3.236 3.31 2.922 7.15 2.928 11.11.003 1.797-.47 3.806.935 5.271 2.547 2.655.992 4.011-1.738 5.403zM708.579 483.44c-6.099-5.207-11.938-10.17-17.746-15.17-5.318-4.58-5.294-4.593-1.509-10.251.446-.667.746-1.431 1.109-2.14-1.795-2.488-4.039-1.591-6-1.075-4.413 1.162-7.432-.199-10.362-3.777-11.083-13.532-22.486-26.801-33.748-40.187-3.735-4.44-3.619-4.74 1.467-7.53 2.304-1.264 4.866-2.185 6.581-4.31-2.119-5.141-5.318-6.206-9.54-3.22a22.548 22.548 0 00-2.315 1.903c-6.012 5.589-6.008 5.593-11.847.025-12.216-11.65-12.626-24.383-1.185-36.862 12.598-13.742 12.598-13.741 30.217-7.442 1.254.448 2.488 1.036 3.783 1.264 1.751.308 4.304 2.131 4.9-1.037.51-2.71-1.52-4.534-4.191-4.406-4.946.237-8.486-2.357-12.16-5.026-2.894-2.102-3.449-3.727-.015-5.902 7.035-4.455 14.078-8.924 20.829-13.79 3.978-2.867 7.43-2.544 10.832.338 4.826 4.088 9.527 8.33 14.169 12.63 24.69 22.865 49.206 45.92 74.065 68.599 13.88 12.662 24.122 28.447 37.123 41.837 5.451 5.615 10.675 11.457 15.9 17.286 6.854 7.643 6.933 14.06-.093 21.614-5.556 5.974-11.322 11.783-17.336 17.292-7.572 6.936-14.68 6.416-21.782-1.063-2.943-3.098-5.89-6.192-8.886-9.342 2.757-4.045 8.128-5.815 8.129-11.278 0-6.013-2.673-11.212-5.51-17.687-.768 5.225-.387 9.201.385 13.148.627 3.201-.268 4.862-3.82 4.41-8.158-1.037-16.69-.39-24.086-5.656-3.465 3.831-3.434 9.396-6.875 13.34-4.933-1.323-7.912-6.047-13.321-7.606-.572 3.285-1.14 6.165-1.56 9.067-.47 3.235-2.001 3.642-4.34 1.684-3.706-3.1-7.33-6.297-11.262-9.68zM330.366 845.948c-9.59-6.208-17.227-14.212-25.8-21.075-1.776-1.423-1.831-2.954-.07-4.594 7.128-6.634 8.325-14.054 2.843-22.324-2.736-4.128-.612-7.275 2.235-10.152 11.129-11.248 22.326-22.428 33.443-33.687 27.144-27.492 55.236-54.052 81.152-82.754 6.976-7.725 9.886-8.047 19.184-3.371 11.523 5.794 19.873 14.95 26.769 25.572 2.536 3.907 4.783 8.003 7.113 12.041 4 6.93 3.883 9.035-1.893 14.863-11.138 11.238-22.418 22.335-33.707 33.423-29.585 29.058-59.203 58.083-88.818 87.113-6.316 6.191-13.377 9.295-22.45 4.945zM658.931 477.069c7.698 7.304 15.268 14.248 21.498 23.27-5.283 1.28-8.846-3.104-13.669-2.295 1.759 3.887 5.4 5.48 8.268 7.757 2.643 2.098 2.827 3.749.938 6.63-4.513 6.883-11.248 11.297-17.279 16.499-3.657 3.154-7.136 6.675-11.243 9.106-5.523 3.269-5.977 9.756-10.162 13.873-21.857 21.498-43.473 43.242-65.23 64.842-3.696 3.669-7.834 3.68-12.01.09-12.633-10.864-25.07-21.962-37.837-32.665-3.89-3.262-3.067-5.111.112-8.168 23.304-22.404 46.464-44.959 69.651-67.483 13.148-12.772 26.252-25.59 39.399-38.362 8.505-8.264 11.893-8.229 20.461.076 2.274 2.204 4.565 4.39 7.103 6.83zM294.927 201.122c-3.785-3.514-7.33-4.548-11.194-.117.84 3.906 3.448 7.196 5.329 10.816 1.161 2.237 3.05 1.31 4.838 1.08 5.202-.674 8.169 1.953 8.457 7.152.093 1.68-.806 2.443-2.004 3.09-6.302 3.401-12.631 6.751-18.924 10.17-1.912 1.04-3.42.9-4.74-.957-1.59-2.24-4.566-4.325-2.323-7.365 2.258-3.06 1.251-5.383-.259-8.166-5.48-10.1-10.848-20.262-16.168-30.447-1.222-2.338-2.436-4.112-5.511-4.208-4.416-.137-4.768-4.085-5.7-7.159-.904-2.979 1.831-3.524 3.648-4.47 9.438-4.92 18.464-10.689 28.693-13.984 12.88-4.15 22.527 1.226 25.813 14.244 1.148 4.547-.343 8.518-2.033 12.54-.628 1.493-2.091 2.634-1.913 4.868 5.968 1.525 10.769 5.412 15.722 8.99 2.891 2.089 6.116 1.953 9.105 1.32 2.765-.586 4.738-2.891 3.553-6.051-4.618-12.311-9.42-24.553-14.11-36.837-.702-1.84-2.138-2.34-3.834-2.722-1.839-.413-3.264-1.276-4.074-3.248-2.26-5.5-1.862-6.7 3.767-8.887 11.173-4.34 22.4-8.543 33.533-12.986 3.193-1.275 4.962-.722 6.001 2.626.837 2.696 2.094 5.258 3.023 7.929.765 2.197 2.715 4.508-.69 6.433-2.96 1.674-5.534 2.755-8.49-.208-2.533-2.54-12.874-.528-14.576 2.69-1.27 2.403.411 4.551 1.304 6.592 1.124 2.57 1.072 7.387 4.388 6.863 4.095-.647 9.677-.543 11.272-6.427.719-2.654 3.22-2.608 5.271-3.02 2.253-.452 2.718 1.452 3.328 2.966 1.243 3.088 2.492 6.177 3.591 9.318.619 1.768 2.159 3.755-.167 5.39-2.032 1.43-4.01 2.894-6.776 1.022-1.987-1.344-11.002 1.264-12.181 3.284-.374.64-.454 1.605-.316 2.357.207 1.132.686 2.222 1.114 3.305 5.428 13.719 2.373 11.037 15.225 6.78 2.385-.79 3.584-2.088 3.42-4.7-.266-4.266 2.45-5.699 6.123-6.24 4.061-.599 3.969 2.81 4.864 5.064 4.508 11.35 4.351 11.092-6.647 15.714-15.447 6.491-31.898 10.485-46.618 18.747-2.36 1.326-4.018.458-5.86-.95-5.292-4.047-10.655-8-16.274-12.2m-24.28-23.907c2.366 3.93 3.746 8.458 7.068 12.012 3.04-.835 5.585-2.363 7.938-4.178 2.94-2.268 5.777-4.67 4.277-9.08-1.258-3.698-3.23-6.516-7.626-6.644-4.321-.125-11.36 3.14-12.314 5.869-.133.38.238.936.656 2.021zM212.759 276.788c-.432-.567-.81-.884-.763-1.115 2.06-10.087-6.97-13.505-11.556-20.062-5.8 3.849-9.869 8.956-15.326 13.453 3.537 4.85 7.588 8.922 11.708 12.925.898.873 2.207.89 3.33.626 4.401-1.039 5.922 2.186 7.436 5.11 1.79 3.458-1.578 4.593-3.34 6.3a215.23 215.23 0 01-9.592 8.747c-1.411 1.211-2.874 3.328-5.124 1.568-2.28-1.784-5.74-3.301-4.654-6.92 1.064-3.545-.472-5.577-2.586-7.874a2644.8 2644.8 0 01-23.484-25.895c-1.646-1.836-3.148-3.086-5.944-2.458-4.267.958-5.675-2.629-7.34-5.44-1.653-2.79 1.076-3.831 2.487-5.187 3.48-3.342 7.112-6.529 10.72-9.737 1.326-1.18 2.69-3.117 4.675-1.812 2.295 1.509 6.135 3.404 5.292 5.994-2.182 6.701 2.952 9.162 6.05 12.892.719.864 1.693 1.515 2.85 2.528 4.328-3.874 8.538-7.603 12.686-11.4.572-.523 1.108-1.345 1.202-2.087.326-2.58-8.245-10.744-10.908-10.06-4.819 1.236-6.054-2.453-7.89-5.238-2.162-3.276 1.244-4.329 2.823-5.877 3.325-3.26 6.839-6.333 10.356-9.391 1.413-1.23 2.85-3.374 5.055-1.383 2.088 1.886 5.809 3.021 4.57 6.876-1.04 3.23.236 5.265 2.267 7.48 7.985 8.712 15.866 17.52 23.752 26.321 1.759 1.962 3.459 3.282 6.46 2.423 3.95-1.13 4.888 2.436 6.502 4.86 1.59 2.387-.112 3.687-1.565 5.04-3.288 3.06-6.875 5.844-9.875 9.161-3.602 3.983-6.712 4.296-10.274-.368zM924.871 424.912c8.978-11.49 17.145-23.163 27.146-34.447-9.79 5.935-19.634 9.941-29.176 14.564-2.11 1.022-3.55 2.103-3.812 4.658-.43 4.218-3.886 5.05-7.215 5.606-3.32.554-3.426-2.572-4.424-4.467-1.55-2.94-2.903-5.989-4.256-9.028-.776-1.742-2.36-3.607-.105-5.357 2.217-1.72 4.682-4.172 7.553-2.324 3.301 2.124 5.843 1.078 8.804-.357 10.187-4.933 20.424-9.765 30.685-14.546 2.681-1.25 4.901-2.593 5.25-5.946.43-4.146 4.061-4.487 7.044-5.13 3.05-.657 2.953 2.513 4.124 4.115 7.03 9.614 6.532 17.858-2.252 26.874-8.496 8.72-15.192 19.195-22.77 29.017 9.197-4.43 18.294-8.81 27.39-13.195 1.81-.873 3.783-1.653 3.764-4.14-.034-4.633 3.599-5.193 6.788-5.857 3.487-.727 3.753 2.642 4.864 4.657a69.543 69.543 0 013.81 8.134c.77 1.959 3.154 4.092.284 6.162-2.516 1.816-5.098 4.28-8.48 1.816-2.303-1.677-4.254-.926-6.472.134-14.416 6.89-28.93 13.576-43.272 20.614-3.74 1.835-5.846 1.5-7.028-2.565a1.43 1.43 0 00-.22-.446c-4.933-6.62-4.516-12.723 1.976-18.546zM691.45 207.557c-5.956-2.683-11.584-5.188-17.177-7.77-1.772-.818-4.113-1.55-3.235-4.209.885-2.679.712-6.537 4.738-6.752 3.125-.166 4.313-1.997 5.374-4.362 4.977-11.09 9.97-22.173 14.95-33.261.825-1.838 1.666-3.635.09-5.584-2.97-3.67-.497-6.622 1.613-9.355 2.274-2.942 4.685-.356 6.654.587 9.295 4.45 19.154 7.735 27.752 13.644 6.31 4.336 10.662 9.577 9.382 17.77-1.448 9.269-6.044 15.736-15.937 17.317-1.6.256-3.152.81-4.98 1.292 1.973 6.293 2.527 12.544 2.619 18.844.025 1.759.459 3.302 1.73 4.523 3.336 3.202 2.013 6.21-.256 9.274-2.418 3.264-4.668.56-7.055-.023-9.015-2.2-12.045-7.94-10.967-16.893.592-4.92-.092-9.984-.003-14.98.062-3.535-2.008-5.16-4.942-5.963-3.21-.88-3.123 2.248-4.216 3.86-.55.814-.744 1.863-1.254 2.713-2.232 3.725-2.453 6.926 1.502 9.877 3.596 2.684 1.162 5.476-.322 8.289-1.511 2.864-3.399 2.685-6.06 1.162m17.782-47.856c-4.617 10.378-3.051 13.301 7.308 14.068 4.27.316 6.983-1.434 8.487-5.32 1.424-3.679.72-6.877-2.364-9.356-3.097-2.488-6.491-4.44-10.717-5.11a289.056 289.056 0 00-2.714 5.718zM536.25 107.844c6.187 14.553 13.285 28.313 18.438 44.342-.84-12.345.344-23.33.977-34.336.13-2.264-.119-4.258-2.302-5.629-3.553-2.23-2.405-5.467-1.49-8.487.89-2.93 3.522-2.026 5.512-1.988 3.652.069 7.298.475 10.946.741 2.065.151 3.92.407 4.356 3.077.446 2.727 1.088 5.66-1.858 7.094-3.398 1.653-3.452 4.298-3.621 7.416-.866 15.939-1.97 31.864-2.85 47.801-.182 3.285-1.513 4.56-4.698 3.972-.327-.06-.671-.194-.985-.146-9.113 1.405-13.098-3.506-16.014-11.48-5.073-13.874-12.74-26.723-16.837-41.086.976 11.808-.59 23.495-1.46 35.212-.15 2.03.586 3.475 2.31 4.606 3.333 2.186 2.766 5.242 1.823 8.465-1.042 3.563-3.72 1.91-5.793 1.945-3.328.056-6.664-.041-9.988-.23-1.923-.11-4.454.146-4.814-2.472-.347-2.515-1.673-6.016 1.013-7.43 4.804-2.53 4.22-6.906 4.542-10.79.936-11.264 1.422-22.565 2.117-33.85.11-1.806-.261-3.277-1.981-4.204-3.267-1.76-3.321-4.642-2.687-7.78.56-2.767 2.049-3.89 4.97-3.47 2.786.402 5.668.74 8.447.47 6.231-.603 10.307 1.592 11.928 8.237zM927.547 320.056c12.874 4.655 22.088 18.193 21.83 31.386-.071 3.657-1.075 7.11-3.154 9.82-10.336 13.476-23.283 22.944-40.984 22.981-13.254.028-20.642-8.762-25.488-19.87-4.471-10.249-2.311-19.863 5.797-27.787 8.577-8.382 18.275-14.835 30.31-17.264 3.893-.786 7.584-.464 11.69.734M918 334.44c-8.682 3.606-16.796 8.109-22.64 15.716-3.99 5.194-4.244 10.398-1.256 14.765 3.194 4.67 8.246 6.42 14.624 4.287 8.986-3.005 16.723-8.145 22.773-15.499 4.085-4.965 4.3-9.975 1.17-14.701-3.123-4.712-7.688-6.267-14.671-4.568zM70.097 460.29c-10.461-2.855-20.03-6.603-27.73-13.96-6.461-6.172-9.067-13.68-7.79-22.594.872-6.073 3.203-11.538 6.515-16.586 5.378-8.199 13.23-11.721 22.771-10.32 12.244 1.799 23.488 6.37 32.634 14.977 9.979 9.39 11.165 22.504 3.667 36.141-6.234 11.34-16.168 15.495-30.067 12.341m-18.182-25.723c8.296 5.815 17.15 10.243 27.544 10.419 5.971.101 10.25-2.678 11.9-7.285 1.766-4.93.436-10.268-4.136-13.873-7.432-5.86-15.82-9.748-25.373-10.665-5.706-.547-10.712.655-13.351 6.41-2.505 5.458-1.534 10.355 3.416 14.994zM461.365 103.07c6.872-2.941 13.755-2.998 20.517-2.106 8.098 1.068 14.52 5.288 17.416 13.21 5.405 14.786 7.504 29.874-.391 44.403-5.957 10.96-16.68 13.75-28.202 13.29-11.774-.47-19.554-6.805-23.038-18.094-3.241-10.503-4.175-21.237-1.825-32.026 1.879-8.626 6.718-15.122 15.523-18.677m23.286 17.892c-3.86-6.805-7.31-8.7-14.027-7.701-5.219.776-8.056 4.007-9.565 11.194-1.791 8.533-.358 16.856 2.227 24.974 2.232 7.007 7.504 10.84 13.064 10.08 6.189-.846 10.634-5.585 11.195-12.803.657-8.461.636-16.944-2.894-25.744zM75.146 369.581c9.879 5.908 19.39 11.743 29.151 17.121 7.305 4.025 12.094 2.117 15.325-5.07 2-4.445.616-8.015-2.815-10.605-9.59-7.24-20.471-12.417-30.685-18.667-1.627-.996-2.844.062-4.139.75-1.737.924-3.284 1.017-5.11-.15-5.126-3.277-5.399-3.958-2.306-9.425 1.967-3.477 3.973-6.935 6.087-10.322.987-1.58 1.668-4.163 4.338-3.06 2.626 1.086 6.542 1.371 6.5 5.198-.046 4.05 2.536 5.374 5.276 6.986 8.32 4.894 16.708 9.681 24.88 14.814 7.786 4.89 13.353 11.488 11.603 21.39-1.834 10.372-6.59 19.299-16.365 24.334-5.988 3.085-12.074 1.142-17.766-1.532-9.357-4.396-18.013-10.059-26.916-15.27-3.033-1.775-5.732-3.522-9.642-1.424-3.239 1.737-5.46-1.496-7.631-3.385-2.146-1.866-.262-3.66.66-5.298 2.287-4.061 4.584-8.123 7.082-12.054 1.124-1.768 1.667-4.945 4.95-3.617 2.919 1.18 6.846 1.45 6.716 6.125-.027.958.353 1.928.807 3.161zM773.138 238.257c-6.201 4.95-12.762 5.254-19.626 2.937-3.32-1.12-6.389-2.804-9.29-4.796-12.386-8.505-14.751-17.739-7.318-30.826 5.178-9.114 10.899-17.92 16.38-26.862 1.025-1.672 2.611-3.252 1.085-5.404-2.393-3.375-.523-5.795 1.615-8.345 1.726-2.06 3.348-2.276 5.579-.834 4.473 2.89 9.076 5.58 13.572 8.435 1.638 1.04 3.863 2.072 2.707 4.6-1.113 2.435-1.395 6.166-5.028 6.029-3.961-.15-5.549 2.144-7.24 4.958-5.058 8.418-10.465 16.636-15.28 25.188-4.131 7.335-1.96 12.404 5.61 15.46 4.88 1.968 8.42-.342 10.782-3.84 6.33-9.375 12.148-19.094 18.201-28.656 1.054-1.665.637-3.18-.214-4.69-1.112-1.975-.737-3.625.472-5.541 2.355-3.731 4.725-5.164 8.764-2.007 3.13 2.447 6.771 4.23 10.126 6.4 1.685 1.09 4.591 1.61 3.467 4.566-1.077 2.832-1.663 6.837-5.682 6.666-3.87-.166-5.146 2.142-6.722 4.728a1892.506 1892.506 0 01-13.144 21.23c-2.395 3.817-5.022 7.465-8.816 10.604zM232.753 255.194c1.797-3.49 1.189-6.124-.909-9.023-6.836-9.448-13.412-19.083-20.076-28.655-1.15-1.652-2.187-3.569-4.615-3.193-4.378.678-5.634-2.54-7.275-5.468-1.229-2.191-.724-3.653 1.278-5.03 10.706-7.369 21.408-14.746 32.021-22.247 2.779-1.963 4.432-1.22 6.04 1.39 1.57 2.551 3.378 4.956 5.057 7.44 1.29 1.91 3.116 3.747.543 6.064-2.295 2.066-4.444 4.137-7.865 1.988-1.444-.908-2.979-2.651-4.938-1.156-3.033 2.313-6.717 3.764-9.174 6.814-.579.718-.076 1.606.362 2.324.693 1.138 1.279 2.389 2.173 3.346 2.068 2.214 2.977 7.246 6.155 6.267 4.024-1.24 8.928-3.15 9.466-8.992.251-2.726 2.765-3.607 4.977-4.325 2.095-.68 2.91 1.214 3.843 2.503a178.745 178.745 0 015.642 8.248c.935 1.455 2.601 2.908.945 4.881-1.517 1.808-3.064 3.678-5.855 2.859-5.466-1.605-7.804 3.334-11.416 5.532-1.218.741-.363 2.176.299 3.125 2.66 3.81 5.381 7.58 8.187 11.515 4.418-1.632 7.612-4.58 11.014-7.136 1.895-1.425 1.117-3.751.94-5.648-.341-3.633 1.884-4.914 4.674-6.112 2.913-1.252 3.827.887 5.108 2.578 1.91 2.522 3.882 5 5.74 7.56 1.654 2.28 1.406 4.172-1.08 5.888-10.832 7.478-21.56 15.105-32.402 22.568-3.846 2.647-6.828.708-8.86-5.905zM609.456 121.665c-7.519-3.143-11.346-2.572-13.388 1.713-2.061 4.325-.17 7.407 6.964 11.25 2.64 1.421 5.344 2.721 7.973 4.158 9.519 5.202 13.149 12.574 11.008 22.257-2.217 10.031-9.777 16.49-19.948 17.327-10.271.845-19.326-2.414-27.861-7.727-2.944-1.832-4.183-4.104-2.593-7.513.77-1.65 1.316-3.414 1.86-5.16 1.113-3.574 3.23-4.958 7.124-4.268 3.935.697 6.594 2.146 6.3 6.567-.4 6 4.653 5.224 7.926 6.095 4.41 1.174 8.287-1.332 10.06-5.389 1.695-3.88 0-6.524-3.059-8.45-3.09-1.947-6.429-3.5-9.664-5.217-11.844-6.284-15.93-14.947-12.308-26.11 3.23-9.957 13.166-15.247 25.475-13.335 6.13.952 11.86 3.192 17.293 6.218 3.248 1.81 4.586 4.175 3.01 7.806-.727 1.676-1.306 3.418-1.91 5.144-1.145 3.268-3.128 4.864-6.827 4.085-3.638-.766-6.98-1.462-6.352-6.417.112-.884-.501-1.86-1.083-3.034zM832.96 212.771c8.058 4.324 13.714 10.404 17.774 18.18 1.958 3.749 1.607 6.575-1.675 9.155-1.044.82-1.92 1.853-2.95 2.693-2.427 1.977-4.59 4.447-8.166 1.458-3.117-2.604-5.866-4.573-3.209-9.381 2.464-4.457-4.234-11.376-10.719-11.518-3.353-.074-6.214 1.297-8.705 3.29-6.714 5.377-12.215 11.811-15.834 19.67-3.278 7.116-2.031 11.817 4.068 16.635 3.815 3.012 7.895 5.688 12.452 7.299 4.336 1.532 2.554 4.184 1.899 6.81-.724 2.904-1.9 4.89-5.526 3.866-11.071-3.125-20.51-8.664-27.25-18.198-3.573-5.055-4.77-10.932-2.908-16.665 4.753-14.636 13.814-26.149 27.36-33.644 7.506-4.153 15.386-3.49 23.389.35zM405.85 154.152c1.174 2.634 1.947 5.062 3.267 7.142 2.951 4.652 7.15 6.767 12.78 5.532 5.064-1.11 10.068-2.432 14.52-5.14 4.581-2.786 5.653 1.2 7.643 3.608 2.224 2.693.953 4.33-1.438 6.04-9.241 6.61-19.484 10.191-30.832 9.481-7.457-.467-13.175-4.485-16.694-11.171-5.937-11.283-8.845-23.244-7.502-36.056 1.02-9.732 5.915-16.814 14.786-20.977 7.245-3.399 14.801-4.777 22.809-3.201 9.672 1.903 8.91.989 9.733 11.564.263 3.372-.474 6.41-4.94 7.33-4.195.862-7.147.66-8.425-4.045-.695-2.558-2.742-2.982-5.122-2.926-9.27.218-15.178 7.247-13.879 16.845.713 5.26 1.47 10.534 3.295 15.974zM121.046 297.958c-.96 1.514-1.71 2.764-2.674 4.369 11.408 8.829 22.575 17.467 33.735 26.115 1.157.896 2.366 1.222 3.684.432 4.26-2.55 6.45.648 8.698 3.252 2.662 3.084-.629 4.821-1.976 6.778-2.449 3.556-5.186 6.92-7.9 10.286-1.173 1.454-2.078 4.112-4.54 2.896-2.667-1.318-6.56-2.124-6.247-6.183.278-3.6-1.57-5.456-4.063-7.347-8.75-6.634-17.395-13.409-26.165-20.015-1.719-1.295-3.495-4.351-5.81-2.553-2.614 2.03-5.88 4.762-5.082 8.55.758 3.602-.799 5.457-3.223 7.018-2.504 1.613-4.008-.92-5.54-2.115-8.905-6.945-8.517-4.83-2.09-13.327 8.632-11.41 17.539-22.613 26.129-34.054 2.232-2.973 4.046-3.451 6.781-.882 1.567 1.472 3.474 2.575 5.143 3.947 1.412 1.161 3.011 2.405 1.94 4.585-1.002 2.034-1.723 4.74-4.806 4.131-3.39-.67-4.03 2.325-5.994 4.117zM845.49 303.166c2.3 5.171-1.522 6.953-4.429 8.974-3.188 2.217-4.365-1.195-5.964-2.698-3.269-3.073-6.322-6.383-9.354-9.695-1.337-1.46-3.99-2.72-1.98-5.315 1.746-2.254 3.028-5.789 6.825-4.685 3.332.969 5.284-.54 7.381-2.624 8.027-7.974 16.173-15.828 24.16-23.84 1.474-1.478 4.675-2.753 2.792-5.538-1.783-2.637-3.691-6.403-7.38-5.9-3.838.525-5.3-1.573-6.515-4.034-1.275-2.582 1.395-3.792 2.828-5.22 6.894-6.861 6.949-6.854 13.805.183 9.868 10.129 19.619 20.374 29.597 30.393 2.616 2.626 2.886 4.46-.13 6.774-1.702 1.307-3.09 3.02-4.662 4.504-1.177 1.11-2.306 2.777-4.222 1.608-1.663-1.015-4.209-2.08-3.811-4.209 1.078-5.775-3.736-7.56-6.687-11.593-4.724 4.477-9.156 8.62-13.524 12.832-5.629 5.427-11.212 10.9-16.8 16.37-.946.927-1.938 1.861-1.93 3.713zM662 155.825c-1.95 6.252-3.742 12.135-5.625 17.988-1.117 3.47-2.434 6.594.845 10.02 2.447 2.556-.599 5.221-1.61 7.69-1.017 2.486-3.04 1.311-4.718.808-4.934-1.48-9.869-2.962-14.76-4.578-1.77-.585-4.445-.773-3.88-3.59.55-2.734-.315-6.514 3.631-7.45 3.266-.776 4.422-2.876 5.292-5.817 3.209-10.834 6.7-21.585 9.912-32.418.589-1.985 2.822-4.739-.019-6.173-2.899-1.464-6.319-4.077-9.675-1.704-2.887 2.04-5.013 1.01-7.256-.441-2.637-1.706-.806-3.97-.23-5.832 3.5-11.305 1.787-9.581 12.2-6.492 13.7 4.065 27.271 8.566 40.966 12.647 3.28.978 3.909 2.472 2.761 5.42-.78 2.007-1.176 4.163-1.935 6.18-.599 1.59-.572 4.106-3.126 3.791-2.174-.268-4.917-.077-5.83-2.933-1.52-4.75-6.108-3.926-9.475-5.133-1.864-.668-2.298 1.555-2.736 2.888-1.608 4.892-3.085 9.827-4.731 15.129zM873.512 334.494c-.254 2.404 1.011 4.521-.859 6.506-3.781 4.014-6.453 4.025-9.948-.272-2.94-3.613-5.898-7.211-8.792-10.86-1.304-1.643-3.386-3.417-1.086-5.553 2.022-1.878 3.452-5.634 7.217-3.855 2.83 1.337 4.627.266 6.684-1.41a3261.627 3261.627 0 0127.977-22.548c1.928-1.537 3.427-3.09 2.99-5.808-.704-4.394 2.805-5.675 5.68-7.14 3.317-1.693 4.233 1.665 5.71 3.358 2.947 3.383 5.724 6.923 8.425 10.51 1.095 1.454 3.463 2.915 1.564 5.093-1.99 2.28-3.773 5.782-7.572 4.516-3.478-1.159-5.61.287-8.031 2.28-9.376 7.714-18.857 15.3-28.277 22.961-.628.51-1.074 1.243-1.682 2.222z" />
	<path
		d="M744.166 490.951c3.722-.511 7.02-.935 10.307-1.435 12.089-1.842 19.714 6.145 17.368 18.395-1.094 5.713-2.447 11.383-3.872 17.026-.725 2.872-1.468 6.184-5.274 6.351-2.61.115-7.24-5.867-6.815-8.86.415-2.934 1.358-5.818 2.311-8.642 1.355-4.018 2.025-8.071 1.3-12.273-.226-1.303-.58-2.728-2.173-3.037-1.87-.363-2.632.953-3.295 2.393-1.976 4.296-2.875 8.825-3.187 13.523-.143 2.144-.312 4.423-3.282 4.801-3.064.39-4.08-1.496-4.783-3.935-1.475-5.118-3.015-10.216-4.51-15.327-2.156-7.365-2.15-7.367 5.905-8.98z" />
</svg>