<?xml version="1.0" encoding="UTF-8"?>
<svg xmlns="http://www.w3.org/2000/svg" version="1.1" viewBox="0 0 308.65 255.92">
  <!-- Generator: Adobe Illustrator 29.6.1, SVG Export Plug-In . SVG Version: 2.1.1 Build 9)  -->
  <defs>
    <style>
      .st0, .st1, .st2 {
        fill: #0241a5;
      }

      .st0, .st3, .st4, .st5 {
        stroke-width: 2.17px;
      }

      .st0, .st4, .st6, .st5 {
        stroke: #010123;
      }

      .st1, .st7, .st8 {
        isolation: isolate;
      }

      .st9, .st7, .st6, .st5 {
        fill: #fff;
      }

      .st10, .st11 {
        fill: #e7042d;
      }

      .st12, .st3, .st4 {
        fill: none;
      }

      .st11, .st3, .st13 {
        display: none;
      }

      .st3 {
        stroke: #e7042d;
        stroke-linecap: round;
        stroke-linejoin: round;
      }

      .st14 {
        fill: #010123;
      }

      .st6 {
        stroke-width: 1.71px;
      }

      .st15 {
        mix-blend-mode: multiply;
        opacity: .43;
      }

      .st15, .st16 {
        fill: #003091;
      }
    </style>
  </defs>
  <g class="st8">
    <g id="Layer_1">
      <g>
        <g>
          <g>
            <g>
              <g>
                <g>
                  <g>
                    <g>
                      <g>
                        <g>
                          <g>
                            <path class="st7" d="M202.14,34.89c15.21,0,10.32-7.06,10.32-7.06,17.93,10.87-1.09,24.45-1.09,24.45"/>
                            <path class="st14" d="M211.89,31.18c-.52.98-2.48,2.62-9.75,2.62v2.17c6.53,0,10.35-1.24,11.69-3.79.31-.59.42-1.18.45-1.74,3.03,2.38,4.68,4.99,4.79,7.81,0,.11,0,.21,0,.32,0,6.78-8.24,12.76-8.33,12.82l1.26,1.77c.39-.28,9.54-6.91,9.23-14.98-.16-4.28-2.92-8.08-8.21-11.28"/>
                          </g>
                          <g>
                            <path class="st0" d="M130.78,20.58s-21.74,5.07-38.4,23.91c0-.72,10.14-3.62,10.14-3.62,0,0-18.84,10.14-21.01,18.11-2.17,7.97-13.04,14.49-13.04,14.49,0,0,4.35,0,9.42-1.45,5.07-1.45-11.59,7.97-18.11,28.26-.73,3.62-8.69,9.42-8.69,9.42,0,0,8.69-.72,16.66-8.69,2.9-1.45-21.01,9.42-19.56,46.37,1.45,36.95,55.06,73.9,111.58,57.24,42.75-6.52,48.54-10.87,48.54-10.87-.68-3.08-4.4-46.55-26.08-56.87"/>
                            <g>
                              <g>
                                <path class="st2" d="M135.12,24.2c-10.6,11.47-25.13,17.35-26.81,34.78-1.69,17.53,1.62,30.35,19.42,39.86,7.92,4.23,14.33,12.82,18.27,21.74,2.94,6.66.96,12.24,8.68,15.37,7.63,3.1,12.55,1.63,18.64-3.29,5.34-4.32,7.87-6,14.72-9.15,10.2-4.68,16.99-16.29,20.99-26.35,2.09-5.28,8.25-14.31,7.28-20.2-1.31-7.97-15.9-21.52-21.79-27.97-8.18-8.97-16.23-18.86-27.53-24.07"/>
                                <g>
                                  <path class="st0" d="M130.78,23.48s10.5-16.66,28.62-21.01l-7.61,10.14s20.29-15.58,36.23-10.51c0,0-6.52,1.81-13.04,5.43-6.52,3.62,16.66-5.8,36.59,5.8.72-.72-25,1.45-25,1.45-3.47-.58,22.32.94,30.43,9.06,0,0-10.87-1.81-17.39,1.81,0,0,9.42,2.17,13.04,20.29,3.62,18.11,10.87,21.01,2.9,29.71"/>
                                  <path class="st0" d="M127.15,52.46s-10.87,2.17-13.04,13.04"/>
                                  <path class="st0" d="M115.92,70.57l-7.97-5.07s1.81,13.04,13.77,14.49c.72,1.45-3.62,1.45-5.8,1.45h-4.35s2.9-1.45,10.14,7.24c7.24,8.69,19.56,7.25,19.56,7.25"/>
                                  <path class="st0" d="M206.85,114.77s-5.07,7.97-13.76,8.69c-5.65.47-4.57-.28-3.12-.87.78-.32,1.67-.58,1.67-.58,0,0-13.04-3.62-20.29-11.59-7.24-7.97-11.59-16.66-5.07-10.87"/>
                                  <path class="st0" d="M145.63,99.55s9.06,17.03,4.71,21.37c-.73.73-6.52,7.97-6.52,7.97h7.97s-12.32,2.54-7.97,17.75c2.6-2.6,1.93-2.54,3.62-5.07,2.2-6.29-.03,12.81,9.42,19.56,0,0-2.54-5.8,8.33-15.21,2.9-3.62,1.81-8.69,1.81-8.69"/>
                                  <path class="st0" d="M189.46,122.73s-14.49,3.62-5.79,6.52c7.97,4.35-12.32,12.32-24.63,10.14l7.25-3.62"/>
                                  <path class="st0" d="M175.06,95.93s6.28,4.05,6.28,1.15,13.64,16.6,10.02,19.5c22.46-7.25,11.6-5.86,17.98-4.5,7,1.5,8.5-14.5,8.38-22.6-.04-3.03-2.45-13.84-2.45-13.84"/>
                                </g>
                              </g>
                              <path class="st0" d="M217.72,94.48s1,12.59-7.69,18.39c-7.25,5.07-18.39,1.9-18.39,1.9"/>
                            </g>
                          </g>
                          <path class="st5" d="M147.8,34.34s9.78-.54,2.72,10.32c-7.06,10.87-23.37,9.24-26.63-7.61s28.8-21.19,28.8-21.19c0,0-8.15,18.48-3.26,21.19"/>
                          <path class="st9" d="M167.36,95.2l-3.26-4.89s-10.32,3.8-7.06,10.32c1.32,2.64.95,4.65,0,6.76-1.39,3.11-4.03,6.43-4.35,12.25l1.09,4.35,2.72-3.8s-1.09,11.41,4.89,14.67l-1.09,2.72,6.52-3.26-2.17,4.89s16.3-.54,19.56-7.06c2.17-3.8-5.98-5.43-5.98-5.43,0,0,0-4.35,6.52-4.89,4-.33-4.47-3.94-11.87-9.56-4.67-3.54-8.9-7.89-9.33-12.72-2.17,2.17,4.89-2.72,4.89-2.72l-1.63,5.43s8.15,13.58,21.19,15.76c-.54,1.63,0,1.63,6.52,2.72,3.26,1.09,3.8,4.89,10.87-4.89.54-.54-10.87.54-13.04,0,2.17-.54-8.15-9.78-8.15-9.78,0,0,1.13-7.99-9.78-10.32"/>
                          <path class="st14" d="M141.28,89.23s14.67,14.67,9.78,30.97"/>
                          <path class="st14" d="M160.84,100.64s7.06-7.06,10.87-1.63"/>
                          <path class="st14" d="M164.1,100.64s-3.8,5.98-3.8,11.41,7.06,16.84,15.76,17.39c7.06,1.63,0-4.89,0-4.89,0,0,12.5-2.17,14.13-2.17s-3.26-3.8-3.26-3.8l4.89-2.17-7.06,2.17-19.02-13.04"/>
                          <path class="st14" d="M177.14,128.89s3.8-7.06,11.96-7.06-24.45-4.35-24.45-4.35l8.15,4.89"/>
                          <path class="st14" d="M208.12,90.86"/>
                          <path class="st14" d="M145.63,89.77s-9.24-1.09-13.58-5.43c-4.35-4.35,5.98,8.69,13.04,7.06"/>
                          <path class="st14" d="M210.84,69.12s7.61-8.69,4.35,3.8"/>
                          <path class="st14" d="M202.68,66.95s4.62,0,8.41,1.54c2.16.88,4.04,2.26,4.63,4.43"/>
                          <path class="st14" d="M182.58,67.49s.54-5.43-5.43-5.43-14.13,8.15-9.78,13.58c4.35,5.43,10.87-3.8,11.41-7.06"/>
                          <path class="st9" d="M173.34,65.32s-7.06,2.72-4.89,10.32c.86,3,11.96-3.26,9.24-11.41"/>
                          <path class="st14" d="M162.47,57.17s19.56-17.39,25.54-5.98c2.72,2.17-1.63-23.37-25.54,5.98Z"/>
                          <path class="st14" d="M202.68,57.71s7.61,3.8,1.63,13.04"/>
                          <path class="st14" d="M162.47,79.44s1.63,4.89,7.06,0"/>
                          <path class="st14" d="M174.16,70.46c1.02-2.5.39-5.12-1.42-5.86-1.8-.74-4.1.69-5.12,3.19-1.02,2.5-.38,5.12,1.42,5.86,1.81.74,4.1-.69,5.12-3.19Z"/>
                        </g>
                        <path class="st5" d="M208.66,68.58s1.63-4.35,3.8-3.8c5.43,0,3.8,8.69,3.8,8.69"/>
                        <path class="st14" d="M211.38,54.99s2.17-3.26,7.61,6.52"/>
                        <path class="st14" d="M145.09,60.43s-8.69-1.09-12.5,7.61l4.89.54s-3.8,4.35-3.8,11.41c0,0-2.9-3.44.54-10.32.91-.91-3.44-.72-3.44-.72,0,0,1.99-13.58,15.58-9.42"/>
                        <path class="st2" d="M109.95,68.21s7.97,3.44,10.69,3.62c2.72.18-4.89,1.63-4.89,1.63"/>
                        <path class="st2" d="M114.47,66.58s-2.17-13.4,15.22-14.49c6.88-1.81-11.05-5.8-11.59-5.8s-7.43,6.34-7.79,6.88c-.36.54,0,11.23,0,11.23"/>
                        <path class="st2" d="M108.86,79.63s5.98,1.99,12.32,10.14c6.34,8.15-14.13,1.27-14.13,1.27"/>
                        <path class="st2" d="M201.05,66.77s7.79.72,10.33,6.7c2.54,5.98-7.06,1.81-7.06,1.81"/>
                        <path class="st14" d="M208.84,68.03s1.99-2.72,3.8-.18c1.81,2.54.54,4.35.54,4.35,0,0-4.71-3.99-6.88-4.17"/>
                        <path class="st9" d="M183.3,119.84s-3.44,1.45-5.79,1.09c-2.36-.36-4.89-2.9-3.62-2.9-.36,0-1.45,0-5.43-4.35-.18-1.99,0-2.54,0-2.54,0,0-2.9-1.99-2.17-3.99-.36.91-1.63-1.63-1.09-2.54.54-.91,2.35,1.81,2.35,1.81l2.54,3.08-.18.91.9.18,6.52,4.89-.72.91s1.27-.36,2.35,0c1.09.36,4.89,2.9,5.8,3.08"/>
                        <path class="st9" d="M163.74,118.39s3.62,5.61,6.52,6.52c2.9.91,1.81-3.44,1.81-3.44l-1.63.72.72,1.27s-2.72,1.81-8.87-8.33"/>
                        <path class="st9" d="M175.7,64.77s-3.44.18-3.08,2.54l2.9-.72"/>
                        <path class="st9" d="M213.19,66.04s-3.62,0-2.54,1.99"/>
                      </g>
                      <path class="st0" d="M181.49,137.23s10.87,1.45,16.66,11.59h-5.8l11.59,8.69-5.07,1.45s13.76,12.32,9.42,30.43"/>
                      <path class="st0" d="M56.87,156.06s-5.8,39.85,24.63,49.27c2.17,0,1.45,17.39,21.01,23.91,1.45,0-.72-4.35-.72-4.35,0,0,9.42,11.59,29.71,10.14,18.11-.73,12.32-37.67,38.4-34.78-4.35-3.62-7.25-48.54-52.89-36.23,3.62,2.17,0-20.29-13.77-14.49"/>
                      <path class="st0" d="M145.99,205.69s19.56-22.46,33.33-15.21c13.77,7.24,40.57-15.22,42.02-20.29,1.45-5.07,1.45-6.52,6.52-6.52s28.26-.72,28.26-.72l-5.79,8.69s-26.81,7.97-34.78,31.88c-7.97,23.91-31.88,31.15-39.85,34.05l-.72-2.17-5.07,9.42-2.9-5.07s.72,5.8-11.59,10.14l4.35-6.52s-13.04,5.07-15.21,10.14c0,0-5.07-8.69.72-13.04.73-2.17-5.79-.72-17.39.72l5.07-5.8"/>
                      <path class="st0" d="M57.6,108.24s-12.32,10.14-13.04,31.15l4.35-3.62-7.24,20.29,5.8-4.35s-9.42,23.91,8.69,48.54v-5.79s7.24,10.87,7.24,17.39c1.45,3.62,2.9-5.07,2.9-5.07,0,0,10.14,31.15,49.27,30.43l-4.35-5.79"/>
                      <path class="st0" d="M199.6,157.51s2.17,7.24,8.69,7.97l-3.62,2.9s5.07,10.87,4.35,13.77"/>
                      <path class="st14" d="M224.24,164.75s-2.18-10.14,1.45-13.04c3.62-2.9,31.88-7.97,34.78-10.14,2.9-2.17,1.45,10.14,1.45,10.14l7.24-2.17s-11.59,15.21-13.77,15.94"/>
                      <path class="st16" d="M249.52,113.2c-14.56,4.51-29.03,12.52-27.19,18.48,1.85,5.96,18.31,4.38,32.87-.12,13.71-4.25,27.35-11.6,27.35-17.41,0-.36-.05-.71-.16-1.06-.32-1.03-1.09-1.88-2.29-2.51-4.89-2.58-17.18-1.52-30.58,2.63ZM224.41,131.03c-.92-2.96,8.44-11.48,25.76-16.84,14.15-4.38,25.26-3.63,28.92-1.7.67.35,1.08.77,1.23,1.23h0c.92,2.96-8.44,12.56-25.75,17.93-17.32,5.36-29.23,2.35-30.15-.62ZM282.39,113.08h0Z"/>
                      <path class="st16" d="M226.52,104.48c-3.22,4.65,6.64,15.08,18.04,22.98,11.4,7.9,24.63,13.46,27.86,8.81h0c.56-.82.74-1.84.52-3.06-.88-4.84-8.34-12.84-18.56-19.93-11.4-7.9-24.64-13.46-27.86-8.81ZM245.8,125.67c-13.11-9.08-19.03-17.75-17.49-19.96,1.53-2.21,11.72-.81,24.83,8.28,10.74,7.44,17.01,16.04,17.66,19.62.04.21.06.4.06.58,0,.35-.07.64-.22.85-1.53,2.21-11.72-.28-24.83-9.36Z"/>
                      <path class="st10" d="M266.98,110.41c0-2-1.62-3.62-3.62-3.62s-3.62,1.62-3.62,3.62,1.62,3.62,3.62,3.62,3.62-1.62,3.62-3.62Z"/>
                      <path class="st10" d="M242.15,135.05c0-1.38-1.12-2.5-2.49-2.5s-2.5,1.12-2.5,2.5,1.12,2.5,2.5,2.5,2.49-1.12,2.49-2.5Z"/>
                    </g>
                    <path class="st9" d="M195.98,26.37s9.06-1.09,14.49,14.85c1.81,9.78,3.26,14.13,3.26,14.13l-3.26-1.09s4.53,3.44,5.25,7.25c1.27,3.26,2.72,4.53,1.81,8.33.18,0,.36-2.54-2.35-5.25-2.72-2.72-2.17-9.24-6.16-11.41-3.98-2.17,2.54.72,2.54.72,0,0-3.26-6.34-4.35-8.87l3.44,2.72s-5.43-19.74-15.4-21.37"/>
                    <path class="st9" d="M195.62,24.02s11.77-4.35,18.48-1.45c-.18.36-13.4-6.88-19.2,1.99"/>
                    <path class="st9" d="M193.08,17.86s11.05,0,20.65,4.89"/>
                    <path class="st9" d="M168.63,64.59s9.24-5.25,10.69-2.9c1.45,2.35.72-5.43-10.69,2.9Z"/>
                    <path class="st9" d="M165.91,142.12s-.72,3.26-4.35,5.8c-3.62,2.54-5.98,6.52-5.79,10.69-.54-.18-4.17-5.44-.73-10.14.18.18-1.09,3.44.36,5.98-.72,0,.54-5.25,3.98-7.43,3.44-2.17,6.16-4.16,6.7-5.98"/>
                    <path class="st9" d="M152.15,137.41s-3.26,6.88-.91,13.22"/>
                    <path class="st9" d="M144.18,143.2s.73-9.78,8.15-12.32"/>
                    <path class="st9" d="M181.13,138.31s10.14,3.08,14.13,9.42"/>
                    <path class="st9" d="M187.47,146.64l13.58,10.32s-10.32-1.99-13.58-10.32Z"/>
                    <path class="st9" d="M195.44,157.88s3.44,2.72,5.79,5.25c2.36,2.54,5.43,3.08,5.43,3.08l-4.35,1.63s5.07,6.34,5.8,14.13c-.36,0-2.72,1.27-2.72,1.27,0,0-4.89-10.87-8.87-15.21-3.99-4.35,6.34,4.89,6.34,4.89,0,0-6.16-10.14-8.33-12.14-2.17-1.99,4.53,2.72,4.53,2.72l-5.98-6.88"/>
                    <path class="st9" d="M127.15,164.03s22.46-6.52,36.95,24.27c-1.09,1.45-1.81,2.9-1.81,2.9l-2.17.72,1.09-2.53s-17.39-27.17-34.05-25.36Z"/>
                    <path class="st9" d="M157.95,197.36s12.68-9.78,19.92-5.43c7.25,4.35,27.53-.36,43.47-18.48,2.17-2.54.36-7.97,6.16-7.97h7.97l-4.95,1.04-1.03.22-.89.19-1.45,4.71-1.45-2.17.73,7.25-2.54-2.54s-12.32,13.4-19.2,21.01c-6.88,7.61,2.17-5.79,2.17-5.79,0,0-13.76,11.95-20.65,13.4-1.45,0,4.71-4.35,6.16-7.25,1.45-2.9-3.98,3.26-13.76,3.62-9.78.36-15.58-5.07-28.62,4.71"/>
                    <path class="st9" d="M107.59,150.27s.31,0,.82.07c2.16.29,7.88,1.85,7.88,10.07-1.09,1.81-2.9-10.14-8.69-10.14Z"/>
                    <path class="st9" d="M260.1,146.64s-2.54,10.14-4.35,10.5c-1.81.36.72,2.17.72,2.17,0,0,7.61-10.14,5.07-5.07-2.53,5.07-6.88,8.69-6.88,8.69h-6.88l6.16-15.94,6.16-2.17"/>
                    <path class="st9" d="M248.51,149.18s4.35,1.09,9.06-2.9"/>
                    <path class="st9" d="M247.06,153.16s4.35,1.09,9.06-2.9"/>
                    <path class="st9" d="M245.97,157.15s4.35,1.09,9.06-2.9"/>
                    <path class="st9" d="M243.8,161.86s4.34,1.09,9.05-2.9"/>
                    <path class="st9" d="M170.99,155.7s11.59,2.54,17.39,12.32c5.79,9.78-7.61-8.69-19.2-12.32"/>
                    <path class="st9" d="M107.23,169.1s6.88-4.71,15.94-4.71"/>
                    <path class="st15" d="M149.25,17.68s-13.4,7.25-12.68,17.03c-1.09,6.88.73-4.71,3.26-7.25,2.54-2.54-5.79,5.07,1.81,14.85,0,1.45-.36-5.43-.36-5.43,0,0,1.45,7.61,7.24,7.97,4.35,1.09-10.14,11.59-19.92,0-9.78-11.59,7.24-28.26,22.46-27.17"/>
                    <path class="st15" d="M211.2,44.85s11.95-10.87,2.9-16.66c-.72.72.72,4.71-4.35,6.52"/>
                    <path class="st15" d="M159.76,118.75s1.88,5.85,7.39,9.78c1.74,1.24,3.85,2.29,6.38,2.9,3.62,3.62-6.16.36-6.16.36,0,0-3.26,3.98-6.16,5.8-2.9,1.81,3.26,2.9,3.26,2.9,0,0-9.42.36-10.51,5.43-1.09,5.07.72-17.75-.72-15.94-1.45,1.81-11.77,5.25-9.24,4.89,2.54-.36,7.06-7.06,7.06-7.06l-3.62-1.81s-1.45-5.43,5.8-14.49c7.25-9.06,3.98-11.59,1.81-12.68-2.17-1.09,4.35-12.32,10.51-12.32s-1.09,4.35-1.09,4.35l5.07,4.35s-4.71-3.62-10.14,4.35c0,.36,6.52-5.8,10.14-.72,1.09,1.09-6.88-2.17-8.33,3.26"/>
                    <path class="st15" d="M171.71,98.83l-.72,5.07s11.59,9.42,20.65,10.14c3.62,1.09,4.35,5.8,10.87,5.07,5.07-.72-4.35,4.71-4.35,4.71l-10.51-3.62s-26.81-12.68-23.18-21.01"/>
                    <path class="st14" d="M147.44,140.85s-6.88,12.32,4.71,21.01"/>
                    <path class="st14" d="M168.09,140.49s5.07,4.35,12.68-2.54"/>
                    <path class="st14" d="M142.73,58.61s3.62-6.16,10.14-1.09"/>
                    <path class="st14" d="M151.43,52.82s5.43-3.26,6.88,3.98"/>
                    <path class="st14" d="M152.87,30.72s4.35,5.8,0,11.96"/>
                    <path class="st14" d="M164.1,12.97s6.16-3.99,17.75-.73"/>
                    <path class="st14" d="M172.07,18.4s11.59-1.09,18.47,3.26"/>
                    <path class="st14" d="M189.46,21.3s-6.88-1.09-9.05,1.09"/>
                    <path class="st14" d="M123.89,37.97s-9.06,7.25,9.06,14.85"/>
                    <path class="st14" d="M119.55,89.41s12.31,8.33,20.29,3.62c.36,1.09-9.78.36-13.76-7.24-1.45-.73,5.43,1.09,5.43,1.09,0,0-9.06-7.61-10.87-11.23.72-.36,8.33,4.35,8.33,4.35l-2.53-6.52s2.17,3.99,3.62,1.45c1.45-2.54,6.88-5.43,6.88-5.43,0,0-3.98,6.88-1.81,10.14,2.17,3.26-5.43-.72-3.62.72,1.81,1.45,6.52,7.61,11.95,11.23-.72,0,2.9,5.43,2.9,5.43,0,0-.72,3.26.36,4.35,1.09,1.09,2.54,7.61,2.54,7.61,0,0-7.25-7.25-10.51-8.33-3.26-1.09-7.61-2.9-7.61-2.9"/>
                    <polyline class="st14" points="117.01 153.89 123.53 161.5 116.29 164.4"/>
                    <path class="st14" d="M160.12,178.16s7.97,6.88,15.58,6.88-3.98-6.88-1.81-5.43c2.17,1.45,9.06,6.52,22.46,2.17,5.43-1.09-3.98,3.26-3.98,3.26l10.87.36s-6.16,9.78-19.56,5.8c-13.4-3.98-18.11-2.17-18.11-2.17"/>
                    <path class="st14" d="M120.63,86.51c-.36,1.09.36,21.37,3.62,23.91,3.26,2.54,1.09-9.78,3.26-7.97,2.17,1.81.36,10.14,7.61,19.92-1.45.73-.36-10.51-.36-10.51,0,0,5.8,10.87,7.97,13.4,2.17,2.54,8.33-3.26,8.33-6.16s-1.09-12.68-3.26-14.13c-2.17-1.45-5.8-6.52-5.8-6.52l-6.52-1.45"/>
                    <path class="st14" d="M145.27,128.17c-13.04-8.33-11.23-19.56-11.23-19.56"/>
                    <path class="st14" d="M128.6,99.19s-4.71,13.77,6.16,24.27"/>
                    <path class="st14" d="M118.1,85.78c0,1.45-1.09,13.04-1.09,13.04l5.43-7.61"/>
                    <path class="st14" d="M81.51,77.81s-10.87,5.43-15.21,18.48c-3.26,1.09,14.13-7.61,14.13-7.61,0,0-3.21,2.48-7.5,6.49-7.4,6.91-18,18.36-20.76,29.38-2.17,3.26,10.87-5.43,10.87-5.43,0,0-7.61,0-9.78,23.91-3.26,2.17,6.52-7.61,6.52-7.61,0,0-17.39,26.08-6.52,46.73,10.87,20.65,3.26,10.87,3.26,10.87l3.26-7.61s-2.17,7.61,7.61,17.39c0,4.35-1.09-8.69-1.09-8.69,0,0,4.35,27.17,32.6,32.6,4.35,3.26-7.61-6.52-7.61-6.52,0,0,14.13,6.52,31.52,6.52,13.04,0-11.95-5.43-21.74-16.3-9.78-10.87-2.17,6.52-2.17,6.52,0,0-18.48-10.87-14.13-33.69,2.17-4.35-4.35,9.78-4.35,9.78,0,0-8.69-11.95-1.09-31.52,7.61-19.56-7.61,13.04-7.61,5.43s9.78-25,15.21-28.26c5.43-3.26-9.78,0-9.78,0,0,0,4.35-7.61,9.78-18.48,5.43-10.87-16.3,7.61-11.95,5.43,3.63-1.82,1.96-11.97,9.53-27.3,1.5-3.02,3.35-6.25,5.68-9.65,14.13-20.65-13.04,10.87-13.04,10.87l17.39-29.34-7.61,5.43,22.82-28.26s-15.21-4.35-21.74,13.04c-1.09,2.17-7.61,6.52-7.61,6.52h6.52"/>
                    <path class="st14" d="M105.42,37.6l14.13-8.69,1.09,9.78,4.35,5.43,3.26,4.35s-15.21,11.95-11.95,18.48c2.17,7.61-9.78-1.09-9.78-1.09l13.04,14.13-11.95-2.17s7.61,4.35,15.21,13.04c6.52,8.69,2.17,7.61,2.17,7.61l-10.87-9.78s-13.04,13.04-14.13,20.65l-1.09-16.3s-17.39,14.13-20.65,33.69c-3.26,19.56-5.43-25-5.43-25l11.95-34.78"/>
                    <polyline class="st14" points="103.24 69.12 118.46 78.9 108.68 82.16"/>
                    <polyline class="st14" points="78.25 123.46 95.64 101.72 74.99 104.98"/>
                    <path class="st14" d="M144.54,207.14s3.26-16.3,16.3-16.3"/>
                    <path class="st2" d="M129.51,52.82s-10.87.91-15.21,11.05c-.18.18,1.81,0,1.81,0,0,0-.36,3.8,0,4.53.36.72-7.06-.91-7.06-.91,0,0,2.9,10.32,13.22,11.95,1.45.91-5.8-4.89-5.8-4.89"/>
                    <path class="st2" d="M121.18,79.08s-4.53.72-7.97.72c-.72-.18,6.16,7.43,10.14,7.97-.36-.72,1.45-4.71,1.45-4.71l-.36-2.72-1.45-.91"/>
                    <path class="st2" d="M123.35,87.96l-5.07.18s11.59,8.69,19.2,5.8c-1.27.91-8.69-2.17-10.5-4.71"/>
                    <path class="st2" d="M90.2,50.28s8.69-9.6,19.74-10.14c-.36.36-8.15,5.61-8.15,5.61l7.43-.36s-13.95,3.26-18.84,13.77c-3.26,6.16-10.69,8.51-10.69,8.51"/>
                    <path class="st2" d="M103.42,40.68s8.87-7.61,18.29-9.6c-.54,0-.54-5.07-.54-5.07,0,0-15.03,8.51-17.57,11.23"/>
                    <path class="st2" d="M114.29,88.5l-7.79,10.14s.18-9.6.72-12.86c.54-3.26-5.25,3.62-5.25,3.62,0,0,6.34-13.58,5.62-13.4-.73.18-14.49,6.16-24.82,27.53-.36,1.09,7.97-3.26,7.97-3.26,0,0-9.96,14.67-12.5,24.81-.54,2.72,15.4-10.69,18.66-10.32"/>
                    <path class="st2" d="M126.61,99.73c-.72.54-6.7,9.96.36,19.38"/>
                    <path class="st2" d="M131.14,80.17s2.9,11.41,19.56,9.78"/>
                    <polyline class="st14" points="119.55 32.17 122.81 30.54 124.71 43.85 117.92 44.67"/>
                    <path class="st14" d="M152.15,19.67s8.42-3.26,14.94-3.53c-.27.27-4.62,4.08-4.62,4.08,0,0,11.14-1.09,15.21.27.27-.27-6.79,2.45-6.79,2.45,0,0,6.79.54,11.96,4.35.81,1.63-6.52-2.45-13.58,2.99-2.17,1.63,4.62,4.35,4.62,4.35,0,0-10.87,2.45-18.48,10.32-4.62,4.35,2.72-10.05-.54-12.5-3.26-2.45-2.17,4.08-2.17,4.08l-5.43-2.17.54-6.79"/>
                    <path class="st14" d="M128.51,24.29s-11.14,3.8-15.49,7.88c-1.09-.54,10.32-.54,10.32-.54"/>
                    <path class="st14" d="M101.07,42.49l-14.4,6.25s11.68-13.31,15.76-13.86c4.08-.54.81.27.81.27l-6.52,7.06"/>
                    <path class="st14" d="M106.78,168.02s7.34-7.88,19.83-6.52"/>
                    <path class="st14" d="M124.71,97.38s.27,16.3,7.34,21.46c.54-1.36-2.45-16.3-2.45-16.3"/>
                    <path class="st14" d="M157.04,103.08s-.27,3.8-4.62,10.05c-2.99,6.25,1.36,11.95,1.36,11.95l2.45-3.53s-2.45,6.79,1.9,11.95c-.27.54-7.06-8.15-7.06-8.15l-2.44,1.09.54-5.98-.82-9.78"/>
                    <path class="st2" d="M80.42,66.95s7.61-.82,14.67-3.8c.54.54-9.51,7.61-9.51,7.61l8.97.27s-17.39,7.34-20.65,12.77"/>
                    <path class="st2" d="M81.78,87.32s-13.31,16.85-22.55,17.93"/>
                    <path class="st2" d="M67.65,106.89s-13.58,10.6-16.3,22.28c-.81,2.72-.81-9.51-.81-9.51l7.88-9.78"/>
                    <polyline class="st2" points="54.34 188.67 61.13 199.53 58.69 192.47"/>
                    <path class="st2" d="M96.72,206.05s13.58,20.92,33.96,18.75"/>
                    <path class="st2" d="M94.28,148.18s14.67-3.53,19.56,8.96"/>
                    <path class="st2" d="M148.89,119.11"/>
                    <path class="st2" d="M149.98,118.84s-1.36,7.06-4.89,9.78c-1.27.27,7.06-1.36,7.06-1.36l-2.72-1.09s1.9-8.69,1.63-9.51"/>
                    <path class="st2" d="M145.63,95.2s4.62,6.25,1.9,11.68c-.54,1.36,5.71-3.26,5.71-3.26l-4.89,8.15s6.52-5.43,6.52-8.69"/>
                    <path class="st2" d="M107.23,85.78s1.99,14.58,3.35,16.75c1.36,2.17-5.16-.81-5.16-.81"/>
                    <path class="st2" d="M120.9,57.98s11.68-11.14,7.61-1.09c-4.08,10.05-17.39,8.15-17.39,8.15"/>
                  </g>
                  <path class="st9" d="M128.06,22.75s-15.4,3.08-28.26,16.48"/>
                  <path class="st9" d="M105.78,41.05s-17.39,5.07-23.73,19.2c-4.89,8.51-7.61,10.32-7.61,10.32,0,0,9.96-4.17,13.58-10.14-.36-2.9-4.35,1.63-4.35,1.63,0,0,7.24-15.4,23.91-21.74"/>
                  <path class="st9" d="M82.6,72.2s-13.04,8.69-18.48,22.1c-4.17,9.78-7.43,11.77-7.43,11.77,0,0,8.88-7.43,10.32-11.59,1.45-4.17,6.88-16.66,16.85-22.64"/>
                  <path class="st9" d="M57.78,110.6s-9.78,8.69-11.95,27.17c-.36-.36,5.8-5.07,5.8-5.07l-7.43,20.11s8.51-18.29,9.42-22.64c.91-4.35,0-.73,0-.73l-4.17,3.26s1.45-14.85,9.42-21.92"/>
                  <path class="st9" d="M49.45,148.82s-4.89,24.09-.36,34.05c4.53,9.96-4.71-15.58,1.09-34.96"/>
                  <path class="st9" d="M142.1,14.51s5.71-7.06,14.4-9.51"/>
                  <path class="st9" d="M156.22,10.98s12.77-8.97,26.08-8.42"/>
                  <path class="st9" d="M57.06,191.65s9.24,7.06,7.06,17.66"/>
                  <path class="st9" d="M67.92,204.42s.21.83.71,2.22c2.21,6.17,10.12,23.31,30.54,26.86,1.9,1.63-21.46-8.69-29.61-28.53"/>
                </g>
                <path class="st14" d="M121.72,136.14c1.33.11,2.13.87,2.17,2.17"/>
                <path class="st14" d="M141.28,65.86c1.85-.48,3.52-.23,4.35,1.09"/>
                <path class="st14" d="M140.19,76.73c.83-1.31,2.5-1.57,4.35-1.09"/>
                <path class="st14" d="M90.2,168.02c-2.73,2.57-3.87,6.26-2.17,9.78"/>
                <path class="st14" d="M94.55,181.06c-1.94,2.37-2.46,5.14-1.09,7.61"/>
                <path class="st14" d="M104.33,189.75c-.25,1.86.49,2.62,2.17,2.17"/>
                <path class="st14" d="M95.64,150.63c-2.62,1.89-4.43,4.49-5.43,7.61"/>
                <path class="st14" d="M92.38,126.72c2.9-1.09,3.99-3.38,3.26-6.52"/>
                <path class="st14" d="M94.55,106.07c4.6-.89,8.23-3.69,7.61-8.69"/>
                <path class="st14" d="M91.29,95.2c8.35-2.87,12.79-10.99,11.95-19.56"/>
                <path class="st14" d="M118.46,216.92c1.91.7,3.37,1.28,5.43,2.17"/>
                <path class="st14" d="M163.02,229.96h6.52"/>
              </g>
              <path class="st14" d="M147.8,245.18c.91-6.37,6.5-11.66,13.04-11.95"/>
              <path class="st14" d="M161.93,237.57c3.24-1.74,6.46-5.46,6.52-9.78"/>
              <path class="st14" d="M174.97,228.88c-1.92-.15-3.72.22-5.43,1.09"/>
              <path class="st14" d="M130.41,234.31c5.81,2.74,16.21,1.5,21.74-3.26"/>
              <path class="st14" d="M180.41,227.79c-.85,1-1.99,1.38-3.26,1.09"/>
              <path class="st14" d="M129.33,226.7c3.78.96,6.87-.05,8.69-3.26"/>
              <path class="st14" d="M89.12,109.33c-9.9,4.96-11.65,17.81-18.48,25"/>
              <path class="st14" d="M88.03,127.81c-4.32,8.39-12.07,14.36-19.56,19.56"/>
              <path class="st14" d="M81.51,166.93c-4.95,10.01-6.04,23.96-1.09,34.78"/>
              <path class="st14" d="M89.12,199.53c-.72,7.9,0,21.68,9.78,21.74"/>
              <path class="st14" d="M111.94,218.01c2.42,3.77,5.65,6.05,9.78,6.52"/>
              <path class="st14" d="M127.15,57.17c-6.49,1.85-12.95,2.25-18.47,5.43"/>
              <path class="st14" d="M174.97,13.69c-7.37,1.63-20.74,3.73-23.91,9.78"/>
              <path class="st14" d="M152.15,90.86c-4.48,2.29-9.84,4.18-15.21,3.26"/>
              <path class="st14" d="M153.24,95.2h-11.95"/>
              <path class="st14" d="M86.94,216.92c6.19,10.34,16.24,14.76,26.08,19.56"/>
              <path class="st14" d="M188.01,223.44c.49,2.18.17,4.3-1.09,5.43"/>
              <path class="st14" d="M164.1,175.62c4.39,6.91,12.36,11.75,19.56,15.21"/>
              <path class="st14" d="M185.84,178.88c2.76,1.35,5.06,2.67,7.61,4.35"/>
              <path class="st14" d="M139.11,141.94c-.65-6.73,2.8-15.35,10.87-14.13"/>
              <path class="st14" d="M136.93,136.5c3.98-4.73,19.05-20.95,6.52-25"/>
              <path class="st14" d="M146.72,119.11c1.54,3.43.65,6.03,5.13,7.64-4.58.69-8.03,3.82-10.57,7.58"/>
              <path class="st14" d="M156.22,141.39s-5.16,4.35-3.8,9.78"/>
              <path class="st14" d="M159.48,143.02s-4.35,4.89-4.35,9.78"/>
              <path class="st14" d="M159.48,130.25s2.45,5.71-3.53,8.42"/>
              <path class="st14" d="M154.05,132.97s-3.26.27-4.08,4.89"/>
              <path class="st14" d="M163.02,177.8s1.36,4.62,5.71,8.15"/>
              <path class="st2" d="M60.32,147.64s-4.62,9.24-1.9,16.03"/>
              <path class="st2" d="M62.49,157.69s.27,5.16-4.62,9.51"/>
              <path class="st2" d="M62.76,168.83s-2.72,10.05,2.17,15.76"/>
              <path class="st2" d="M67.11,174.27s-2.45,11.95,1.36,16.3"/>
              <path class="st2" d="M73.63,113.68s-6.25,5.71-7.06,11.14"/>
              <path class="st2" d="M72,120.2s-4.62,3.53-7.34,8.97"/>
              <path class="st2" d="M108.68,64.77s8.87,2.9,14.94-4.89"/>
              <path class="st2" d="M114.66,59.88s8.97-7.06,17.12-5.43"/>
              <path class="st2" d="M136.93,36.52c.03,3.12.3,4.97,2.99,6.79"/>
              <path class="st2" d="M142.64,42.22c.34,1.06,1.88,1.77,2.17,2.45"/>
              <path class="st2" d="M139.38,24.83c-1.4,3.3-3.97,6.39-5.16,9.78"/>
              <path class="st2" d="M143.18,42.77c.79.94,2.07,1.02,2.72,1.9"/>
              <path class="st2" d="M213.82,41.68c.46-2.28,2.56-4.01,2.45-6.52"/>
              <path class="st14" d="M107.86,66.95c4.28,1.09,9.37,2.33,13.04-.82"/>
            </g>
            <path class="st14" d="M64.12,74.55s10.87,4.62,19.29-5.16"/>
            <path class="st14" d="M78.52,72.92s-16.84,8.42-19.83,21.74c-2.45,4.08-4.08,6.52-4.08,6.52,0,0,7.88-3.8,7.88-4.62"/>
            <path class="st14" d="M104.87,29.72c.82,0,20.38-11.14,27.44-10.05,1.63,1.63-1.09,2.45-1.09,2.45,0,0-8.97-.54-19.29,7.06"/>
            <path class="st14" d="M206.22,9.62s11.41,4.35,14.67,4.08c0,0-5.43,1.9-16.3.54"/>
            <path class="st14" d="M186.38,10.16s11.14-2.99,25.54,4.08"/>
            <path class="st14" d="M192.36,22.39s7.88-4.62,11.96-1.9"/>
            <path class="st14" d="M155.68,15.05"/>
            <path class="st14" d="M56.78,192.74s11.41,16.57,5.16,24.45"/>
            <path class="st14" d="M66.02,207.41s1.9,5.16-4.08,10.6"/>
            <path class="st14" d="M66.02,207.68s1.36,14.94,11.95,22.01c0,.27-1.36-4.89-1.36-4.89"/>
            <path class="st14" d="M79.61,214.21c.54,1.36,10.05,16.3,26.08,18.75"/>
            <path class="st14" d="M90.75,220.18s7.61,9.78,22.28,8.42"/>
            <path class="st14" d="M144,198.72s3.53-3.26,6.25-3.26"/>
          </g>
          <path class="st9" d="M172.39,9.62s15.49-4.08,33.83,1.63c.14.14-27.44-3.26-33.83-1.63Z"/>
          <path class="st9" d="M187.33,12.74s4.48-2.04,14.26-.27"/>
        </g>
        <g class="st13">
          <path class="st12" d="M135.06,256.43C61.02,244.29,10.84,174.43,22.98,100.39,35.12,26.35,104.99-23.82,179.02-11.68c74.04,12.14,124.22,82,112.07,156.04-12.14,74.04-82,124.21-156.04,112.07Z"/>
          <path class="st14" d="M1.1,107.13c-.41-.08-.85-.23-1.3-.47-1.42-.75-2.32-1.88-2.71-3.41-.37-1.41-.33-3.31.11-5.69l1.78-9.63c1.05-5.66,3.4-8.15,7.06-7.48l14.46,2.68c3.66.68,4.96,3.87,3.9,9.58l-1.78,9.59c-.46,2.49-1.09,4.3-1.88,5.43-.91,1.25-2.19,1.95-3.83,2.09-.56.05-1.02.04-1.36-.03l-14.46-2.68ZM15.32,101.35c1.16.22,1.91-.58,2.25-2.39l.92-4.99c.18-.98.21-1.69.08-2.14-.13-.45-.51-.74-1.14-.86l-11.15-2.07c-.65-.12-1.14,0-1.47.35-.33.35-.59,1.04-.78,2.06l-.93,5.04c-.19,1.02-.2,1.74-.02,2.15.17.41.6.68,1.28.8l10.97,2.03Z"/>
          <path class="st14" d="M26.79,81.34l-19.04-8.19c-1.38-.59-2.31-1.61-2.79-3.06-.52-1.59-.36-3.37.5-5.37.36-.84.83-1.64,1.4-2.4,1.38-1.84,3.19-2.73,5.41-2.65l16.06.55-17.38-7.48,3.12-7.24,19.65,8.46c1.22.53,2.01,1.55,2.35,3.08.35,1.53.16,3.19-.56,5-1.38,3.4-3.7,5.06-6.94,4.99l-15.99-.44,17.35,7.47-3.14,7.29Z"/>
          <path class="st14" d="M34.45,51.06l-12.16-8.58c-.24-.17-.52-.43-.83-.79-2.02-2.28-1.71-5.28.92-9l9.89-14.01,4.56,3.22-8.65,12.25c-.06.09-.13.25-.2.47-.39.89-.25,1.58.41,2.04l2.35,1.66,9.76-13.83,4.56,3.22-9.76,13.82,2.35,1.66c.87.61,1.75.36,2.66-.75l8.52-12.07,4.56,3.22-9.22,13.06c-3.54,5.01-6.78,6.48-9.72,4.4Z"/>
          <path class="st16" d="M38.43,11.56L53.27-1.82c2.11-1.9,4.06-2.88,5.85-2.94,1.21-.03,2.47.67,3.77,2.12l1.41,1.56c1.67,1.85,1.92,3.83.75,5.94,1.82-.84,3.44-.68,4.88.47.35.28.6.5.75.67l1.73,1.92c.23.26.45.56.66.9,1.66,2.72.73,5.66-2.79,8.84l-14.53,13.11-17.32-19.21ZM51.33,13.52l6.77-6.1c.95-.85,1.11-1.63.48-2.32l-1.14-1.26c-.25-.27-.6-.39-1.06-.36-.46.03-.89.23-1.3.6l-6.77,6.1,3.02,3.35ZM58.16,21.09l6.79-6.13c.86-.91,1-1.69.43-2.33l-1.11-1.23c-.58-.64-1.42-.56-2.53.24l-6.67,6.02c2.1,2.22,3.13,3.36,3.09,3.43Z"/>
          <path class="st16" d="M74.63,5.55l-9.62-16.89,7.19-4.09L81.73,1.29c.47.53,1.47.35,3-.52l4.89-2.78c1.47-.84,2.12-1.58,1.97-2.23l-.04-.19-9.47-16.63,7.19-4.09,9.6,16.86c.84,1.48,1.2,2.66,1.07,3.56-.34,2.38-2.12,4.48-5.35,6.32l-9.29,5.29c-3.32,1.89-6.07,2.34-8.25,1.34-.8-.37-1.6-1.26-2.41-2.67Z"/>
          <path class="st16" d="M98.65-23.29c-.81-2.56.07-4.58,2.65-6.07.78-.45,2.14-.98,4.06-1.59l15.66-4.95,1.68,5.32-13.35,4.22c-1.58.5-2.34,1.18-2.3,2.04-.01.08,0,.19.05.33l.88,2.78,16.08-5.08,1.68,5.32-16.08,5.08,3.07,9.73-7.88,2.49-6.2-19.63Z"/>
          <path class="st16" d="M127.05-31.69c-.31-2.67.94-4.49,3.75-5.46.85-.3,2.28-.56,4.29-.8l16.32-1.9.64,5.54-13.91,1.62c-1.64.19-2.53.71-2.65,1.57-.03.08-.03.19-.02.34l.34,2.9,16.75-1.95.65,5.54-16.76,1.95,1.18,10.13-8.21.95-2.38-20.44Z"/>
          <path class="st16" d="M150.1-14.44l12.38-21.77c1.27-2.2,3.52-3.18,6.75-2.93,3.22.25,5.3,1.56,6.22,3.95l8.89,23.36-8.65-.66-2.19-5.76-11.71-.89-2.99,5.37-8.71-.66ZM171.43-23.71l-3.28-8.63-3.49,8.11,6.77.52Z"/>
          <path class="st16" d="M188.5-16.81l5.84-18.65,7.89,2.47-5.71,18.23c-.24.75.31,1.34,1.65,1.75l14.05,4.4-1.72,5.31-14.68-4.59c-.52-.16-.98-.32-1.36-.46-2.79-1.05-4.63-2.24-5.53-3.57-.89-1.33-1.04-2.95-.44-4.88Z"/>
          <path class="st16" d="M224.11-19.36c.21-.36.5-.72.88-1.07,1.18-1.08,2.56-1.54,4.13-1.4,1.45.13,3.22.81,5.31,2.03l8.46,4.94c4.97,2.9,6.52,5.96,4.65,9.17l-7.41,12.7c-1.88,3.21-5.32,3.35-10.33.43l-8.43-4.92c-2.19-1.28-3.68-2.48-4.47-3.6-.87-1.28-1.09-2.72-.67-4.31.15-.55.31-.97.48-1.27l7.41-12.7ZM224.73-4.02c-.6,1.02-.1,1.99,1.49,2.92l4.38,2.56c.86.5,1.52.77,1.99.8.47.03.87-.23,1.19-.78l5.72-9.8c.33-.57.39-1.08.17-1.51s-.78-.91-1.68-1.43l-4.43-2.58c-.9-.52-1.57-.77-2.02-.75-.44.03-.84.34-1.19.93l-5.62,9.64Z"/>
          <path class="st10" d="M242.85,8.32l13.01-14.59,6.17,5.5-12.71,14.26c-.52.59-.27,1.35.78,2.28l10.98,9.8-3.75,4.13-11.48-10.24c-.41-.37-.76-.69-1.05-.98-2.11-2.11-3.29-3.95-3.56-5.53-.27-1.58.27-3.12,1.61-4.63Z"/>
          <path class="st10" d="M258.26,30.09l24.68-4.3c2.51-.42,4.69.7,6.55,3.34,1.86,2.64,2.17,5.08.91,7.31l-12.37,21.72-4.99-7.09,3.05-5.35-6.76-9.6-6.04,1.11-5.03-7.14ZM278.99,40.65l4.57-8.02-8.48,2.46,3.91,5.55Z"/>
          <path class="st10" d="M302.95,51.17l7.21,18.63c1.02,2.65,1.24,4.82.66,6.51-.4,1.14-1.51,2.07-3.33,2.77l-1.96.76c-2.32.9-4.26.43-5.82-1.41.14,1.99-.59,3.46-2.18,4.39-.39.23-.68.38-.89.46l-2.41.93c-.32.12-.68.22-1.07.3-3.13.58-5.55-1.34-7.26-5.76l-7.06-18.25,24.12-9.34ZM287.02,66.2l3.3,8.53c.54,1.13,1.22,1.54,2.02,1.23l1.55-.6c.8-.31,1.03-1.13.68-2.45l-3.24-8.38c-2.82,1.17-4.26,1.73-4.31,1.67ZM296.53,62.52l3.29,8.5c.46,1.19,1.12,1.61,2,1.27l1.59-.61c.34-.13.58-.42.72-.86.13-.44.1-.92-.1-1.43l-3.29-8.5-4.2,1.63Z"/>
          <path class="st10" d="M309.55,84.37c.46-.08.9-.08,1.31,0,2.66.53,4.33,2.84,5.01,6.93l2.77,16.64-5.5.92-2.41-14.46c-.13-.8-.46-1.33-.98-1.58-.26-.03-.45-.04-.57-.02l-1.69.28c-.17.03-.29.07-.36.12-.61.25-.87.99-.77,2.2,0,.11.01.3.05.55l.99,5.95c.71,4.25-.2,6.99-2.72,8.19-.37.17-.71.29-1.03.34l-5.14.86c-1.7.28-3.15-.23-4.34-1.53-1.19-1.3-2-3.21-2.42-5.73l-2.71-16.26,5.5-.92,2.38,14.29.19.47c.38.91.92,1.31,1.62,1.19l1.82-.3c.73-.12,1.05-.77.95-1.95l-1.13-6.8c-.46-2.79-.07-5.06,1.19-6.79.71-.98,1.55-1.54,2.53-1.71l5.43-.9Z"/>
        </g>
        <g class="st13">
          <path class="st12" d="M107.75,270.67c82.51,25.72,170.26-20.32,195.98-102.83,25.72-82.51-20.32-170.26-102.83-195.98C118.38-53.86,30.64-7.83,4.92,74.69c-25.72,82.51,20.31,170.26,102.83,195.98Z"/>
          <path class="st14" d="M20.23,192.31h.02c2.38-1.38,5.42-.68,6.91,1.91,1.49,2.59.56,5.53-1.82,6.89h-.02c-2.38,1.38-5.42.68-6.91-1.91-1.49-2.59-.56-5.53,1.82-6.89ZM24.4,199.58h.02c1.64-.95,2.31-2.92,1.35-4.6-.96-1.68-2.96-2.09-4.6-1.15h-.02c-1.64.95-2.31,2.92-1.35,4.6.96,1.68,2.96,2.09,4.6,1.15Z"/>
          <path class="st14" d="M31.12,201.17l.9,1.31-2.59,8.11,5.54-3.82.96,1.39-8.02,5.52-.81-1.18,2.66-8.35-5.71,3.93-.96-1.39,8.02-5.52Z"/>
          <path class="st14" d="M38.02,210.89l4.54,5.62-1.19.96-3.46-4.29-1.97,1.59,3.07,3.8-1.2.97-3.07-3.8-2.02,1.63,3.5,4.34-1.19.96-4.58-5.67,7.58-6.12Z"/>
          <path class="st14" d="M44.56,218.83l2.98,3.19c.76.81,1.13,1.66,1.11,2.45-.02.61-.27,1.14-.73,1.58l-.02.02c-.85.8-1.77.74-2.53.46.49,1.1.56,2.12-.41,3.03l-.02.02c-1.27,1.19-2.93.78-4.41-.81l-3.07-3.29,7.12-6.64ZM43.5,225.83l-1.85-1.98-1.95,1.82,1.94,2.07c.79.84,1.62,1.06,2.26.46l.02-.02c.6-.56.51-1.37-.41-2.36ZM46.54,224.99c.56-.52.49-1.29-.26-2.1l-1.68-1.8-1.89,1.76,1.59,1.71c.75.8,1.57,1.05,2.22.44l.02-.02Z"/>
          <path class="st14" d="M48.23,230.79l3.79-4.13,1.26,1.16-3.75,4.08c-1.22,1.33-1.19,2.67-.06,3.71,1.12,1.03,2.42.99,3.63-.33l3.79-4.13,1.26,1.16-3.74,4.07c-1.97,2.14-4.17,2.11-6.04.39-1.86-1.71-2.07-3.88-.15-5.96Z"/>
          <path class="st14" d="M60.69,234.42l5.69,4.5-.97,1.22-4.34-3.43-1.65,2.08,3.85,3.05-.97,1.22-3.85-3.05-2.46,3.11-1.34-1.06,6.04-7.64Z"/>
          <path class="st14" d="M68.72,240.61l5.99,4.09-.88,1.29-4.57-3.12-1.5,2.19,4.06,2.77-.88,1.29-4.06-2.77-2.24,3.28-1.41-.97,5.5-8.04Z"/>
          <path class="st14" d="M79.19,247.35l1.37.8-1.27,10.63-1.56-.92.34-2.53-3.97-2.33-2.06,1.52-1.51-.89,8.66-6.29ZM78.29,253.71l.52-4.21-3.41,2.51,2.89,1.7Z"/>
          <path class="st14" d="M86.57,251.56l1.54.76-3.61,7.34,4.59,2.26-.69,1.4-6.13-3.02,4.3-8.74Z"/>
          <path class="st14" d="M92.39,259.86v-.03c1.04-2.54,3.87-3.87,6.64-2.75,2.77,1.12,3.85,4.01,2.82,6.55v.03c-1.04,2.54-3.87,3.87-6.64,2.75-2.77-1.12-3.85-4.01-2.82-6.55ZM100.17,263.02v-.03c.72-1.75.03-3.72-1.76-4.45-1.79-.73-3.62.18-4.33,1.94v.03c-.72,1.75-.03,3.72,1.76,4.45,1.79.73,3.62-.18,4.33-1.94Z"/>
          <path class="st14" d="M106.6,260.11l1.63.54-2.56,7.77,4.86,1.6-.49,1.48-6.49-2.14,3.05-9.25Z"/>
          <path class="st14" d="M119.04,263.71l1.54.37,1.85,10.54-1.76-.43-.41-2.52-4.47-1.09-1.53,2.05-1.7-.41,6.48-8.52ZM120.01,270.06l-.72-4.18-2.54,3.39,3.26.79Z"/>
          <path class="st14" d="M127.26,265.63l4.31.7c1.1.18,1.92.62,2.38,1.26.36.5.49,1.07.39,1.7v.03c-.19,1.15-.95,1.66-1.73,1.92,1.06.57,1.74,1.34,1.53,2.65v.03c-.28,1.72-1.85,2.41-3.99,2.06l-4.45-.72,1.57-9.62ZM130.71,271.82l-2.68-.44-.43,2.64,2.8.46c1.14.19,1.93-.15,2.07-1.02v-.03c.14-.81-.43-1.4-1.76-1.61ZM132.6,269.29c.12-.75-.41-1.32-1.49-1.5l-2.43-.4-.42,2.55,2.31.38c1.09.18,1.88-.13,2.03-1.01v-.03Z"/>
          <path class="st14" d="M136.75,275.48l1.13-1.13c.86.89,1.76,1.43,2.95,1.54,1.05.09,1.76-.34,1.83-1.06v-.03c.06-.69-.29-1.1-2.05-1.68-2.02-.68-3.13-1.4-2.97-3.19v-.03c.15-1.66,1.64-2.69,3.57-2.51,1.41.13,2.5.66,3.41,1.54l-1.03,1.21c-.81-.73-1.66-1.16-2.54-1.24-1-.09-1.62.37-1.68,1.01v.03c-.07.75.34,1.12,2.17,1.73,2,.68,2.99,1.51,2.85,3.12v.03c-.17,1.82-1.69,2.77-3.73,2.58-1.48-.13-2.83-.77-3.9-1.92Z"/>
          <path class="st14" d="M147.65,275.8l1.85.07-.07,1.92-1.85-.07.07-1.92ZM147.86,270.38l1.85.07-.07,1.9-1.85-.07.07-1.9Z"/>
          <path class="st14" d="M158.51,273.03v-.03c-.16-2.76,1.79-5.15,4.72-5.31,1.81-.1,2.93.46,3.91,1.3l-1.03,1.33c-.83-.68-1.68-1.1-2.8-1.04-1.83.1-3.11,1.69-3,3.6v.03c.11,1.9,1.54,3.37,3.41,3.26,1.2-.07,1.93-.58,2.72-1.41l1.16,1.05c-.95,1.11-2.03,1.84-3.85,1.95-2.85.16-5.07-1.93-5.23-4.72Z"/>
          <path class="st14" d="M169.79,272.32v-.03c-.38-2.72,1.41-5.28,4.38-5.68s5.34,1.56,5.71,4.28v.03c.38,2.72-1.41,5.28-4.37,5.68-2.97.41-5.34-1.56-5.71-4.28ZM178.1,271.18v-.03c-.26-1.88-1.84-3.23-3.75-2.97-1.92.26-3.05,1.96-2.79,3.84v.03c.26,1.88,1.84,3.23,3.75,2.97,1.92-.26,3.05-1.96,2.79-3.84Z"/>
          <path class="st14" d="M182.1,265.54l3.54-.79c2.99-.67,5.51.92,6.1,3.6v.03c.6,2.67-1,5.21-3.98,5.88l-3.54.79-2.12-9.5ZM184.11,266.69l1.44,6.46,1.87-.42c2-.44,3-2.08,2.58-3.94v-.03c-.42-1.86-2.03-2.94-4.02-2.49l-1.87.42Z"/>
          <path class="st14" d="M193.58,262.8l6.91-2.1.45,1.46-5.27,1.6.74,2.42,4.67-1.42.45,1.48-4.67,1.42.76,2.49,5.34-1.62.45,1.46-6.98,2.12-2.83-9.32Z"/>
          <path class="st14" d="M208.56,257.75l6.67-2.83.61,1.43-5.1,2.16,1.04,2.45,4.52-1.92.61,1.43-4.52,1.92,1.55,3.65-1.58.67-3.81-8.96Z"/>
          <path class="st14" d="M219.58,258.33v-.02c-1.27-2.43-.45-5.44,2.2-6.82,2.66-1.38,5.55-.32,6.81,2.11v.02c1.27,2.43.45,5.44-2.2,6.82-2.66,1.38-5.55.32-6.81-2.11ZM227.03,254.48v-.02c-.88-1.68-2.82-2.43-4.54-1.54-1.72.89-2.21,2.87-1.34,4.55v.02c.88,1.68,2.82,2.43,4.54,1.54,1.72-.89,2.21-2.87,1.34-4.55Z"/>
          <path class="st14" d="M228.93,247.78l3.68-2.3c1.04-.65,2.04-.85,2.9-.66.72.18,1.35.64,1.8,1.36v.02c.86,1.36.56,2.68-.38,3.72l4.18,1.74-1.72,1.08-3.83-1.61-1.82,1.13,1.8,2.88-1.45.91-5.16-8.26ZM235.06,249.65c1.04-.65,1.36-1.6.84-2.44l-.02-.02c-.55-.88-1.49-.97-2.57-.3l-2.11,1.32,1.73,2.77,2.12-1.33Z"/>
          <path class="st14" d="M245.5,238.39l-2.44,1.92-.98-1.25,6.23-4.89.98,1.25-2.44,1.92,5.03,6.41-1.35,1.06-5.03-6.41Z"/>
          <path class="st14" d="M250.4,232.39l1.26-1.15,2.73,2.99,3.43-3.13-2.73-2.99,1.26-1.15,6.56,7.19-1.26,1.15-2.77-3.03-3.43,3.13,2.77,3.03-1.26,1.15-6.56-7.19Z"/>
          <path class="st14" d="M258.79,224.53l4.95-5.25,1.11,1.05-3.78,4.01,1.84,1.74,3.35-3.55,1.12,1.06-3.35,3.55,1.89,1.79,3.83-4.06,1.11,1.05-5,5.3-7.08-6.68Z"/>
          <path class="st14" d="M273.26,209.96l-2.97,3.9-1.2-.91,4.15-5.45,1.03.78,4.06,8.61-1.17,1.54-3.9-8.47Z"/>
          <path class="st14" d="M277.13,204.81l-.58,1.72-1.35-.48.78-2.65.66-.98,8.12,5.5-.95,1.4-6.68-4.52Z"/>
          <path class="st14" d="M286.73,203.28c-1.01.26-2.11.12-3.8-.88h-.02c-2.56-1.54-3.83-3.94-2.42-6.31.65-1.09,1.43-1.62,2.46-2l.68,1.47c-.81.31-1.38.63-1.82,1.38-.87,1.46.34,2.89,1.47,3.6-.22-.8-.19-1.62.35-2.51.96-1.61,2.69-2.35,4.37-1.35h.02c1.66,1,2.04,3.06,1,4.82-.61,1.03-1.38,1.58-2.27,1.81ZM287.19,198.18h-.02c-.84-.51-1.86-.21-2.48.83s-.34,2.1.46,2.57h.02c.85.52,1.91.21,2.53-.83s.35-2.06-.51-2.57Z"/>
          <path class="st14" d="M290.62,194.36l.86-1.64,1.7.9-.86,1.64-1.7-.9Z"/>
        </g>
        <path class="st3" d="M1.09,122.35c0,22.37,4.93,43.6,13.78,62.69"/>
        <path class="st3" d="M294.42,183.64c8.45-18.73,13.14-39.47,13.14-61.29,0-1.09-.01-2.18-.04-3.26"/>
        <path class="st11" d="M7.97,153.7c0-2-1.62-3.62-3.62-3.62s-3.62,1.62-3.62,3.62,1.62,3.62,3.62,3.62,3.62-1.62,3.62-3.62Z"/>
        <path class="st11" d="M308.65,150.61c0-2-1.62-3.62-3.62-3.62s-3.62,1.62-3.62,3.62,1.62,3.62,3.62,3.62,3.62-1.62,3.62-3.62Z"/>
      </g>
      <path class="st6" d="M182.75,104.15s3.82-10.41,8.09-6.57c4.27,3.84,18.66,12.71,22.5,11,3.84-2.13-.5,12-16.08,9.23l-.85-.43s-8.96-14.08-8.54-8.11c0,0-4.69-2.56-5.12-5.12Z"/>
      <path class="st4" d="M207.34,69.08s7,3,9,10"/>
      <path class="st6" d="M215.34,108.58s-2,6-3.5,7.5-11.5,2-11.5,2"/>
      <path class="st6" d="M218.34,103.08"/>
      <path class="st14" d="M187.34,104.58s.5-2.5,3.5-1,5,7.5,5,10.5"/>
      <path class="st14" d="M203.34,118.58l8-6s1.5,4-.5,4.5"/>
      <polyline class="st14" points="194.34 115.08 194.84 118.08 198.84 118.58 203.34 118.58"/>
      <path class="st15" d="M188.84,96.58c-3.98,3.99,4.03,7.07,7.89,9.5,5.32,3.35,8.85,6.06,15.55,5.56-.99,7.11-11.91,12.49-17.3,6.45-1.37-1.53-.8-3.77-1.74-4.9-1.19-1.43-3.31-2.07-4.79-3.13-3.97-2.83-4.07-4.72-4.11-9.49"/>
      <path class="st14" d="M186.84,73.58s-1-3-1.5,4.5"/>
      <g>
        <path class="st1" d="M213.84,76.58c3.19.23,3.71,3.71,5.85,5.54-1.05-.16-2.17.14-3.21-.05,3,.59,4.57,6.16,4.9,8.86-.91-1.42-2.43-2.49-3.97-2.8-.13,3.79-.36,8.92,3.17,10.86-.87-.36-1.94-.17-2.81-.41.71.79.57,4.65.57,7l-2.5-2"/>
        <path class="st14" d="M213.76,77.66c1.42.1,2.11,1.07,3.12,2.65.15.23.32.46.47.7-.35,0-.69,0-.69,0l-.4,2.14c1.39.27,2.57,2.41,3.3,4.7-.63-.35-1.28-.64-1.95-.77l-1.25-.25-.05,1.44c-.03.76-.05,1.58-.05,2.42,0,2.35.24,4.85,1.35,6.81-.61-.07-2.12-.24-2.12-.24l1.46,2.06-.03-.04c.28.48.33,2.49.33,4.05-.31-.25-.74-.59-.74-.59l-1.36,1.7,4.26,3.41s.01-4.04.01-4.37c0-1.47-.03-2.67-.15-3.6.32.02.66.04.88.13l1.34.25c-2.28-1.25-3.08-6.52-3.08-9.53,0-.32.01-.63.02-.95.78.42,3.06,1.22,3.55,1.99l.45-.95c0-.06-.62-4.72-2.73-7.61.35,0,2.77,0,2.77,0l-2.11-1.91c-.65-.55-1.15-1.33-1.68-2.15-1.04-1.62-2.22-3.45-4.8-3.64l-.15,2.17Z"/>
      </g>
      <path class="st14" d="M190.34,76.08c-1.53,2.29-3.94,5.22-7,5"/>
      <path class="st14" d="M186.84,84.08c-.34-1.84,2.76-3.19,5-3.5"/>
      <path class="st14" d="M189.34,87.08c-2.68.3-5.38,1.25-4.5,4.5"/>
      <path class="st14" d="M188.34,93.08c.97-.59,1.52-1.63,1.5-3"/>
      <path class="st14" d="M194.34,79.08c-.26,2.31-2.19,3.42-4,3.5"/>
      <path class="st14" d="M193.34,85.58c-.73,1.05-.75,2.24,0,3"/>
      <path class="st14" d="M194.84,92.58c-.19.5-.84.56-.43,1.44,1.04.07,2.38.26,3.43.06"/>
      <path class="st14" d="M194.84,69.08c-.96,2.37-3.47,3.47-6,3"/>
      <path class="st14" d="M193.84,64.08c-.85,1.63-2.59,2.49-4.5,2.5"/>
      <path class="st14" d="M177.84,83.08c3.21-1.47,7.52-2.34,8-6.5"/>
      <path class="st14" d="M197.34,66.58c-1.68.46-1.98,2.08-1.5,4"/>
      <path class="st14" d="M189.34,68.58c-.4-2.81,1.51-5.41,4.5-5"/>
      <path class="st14" d="M200.34,83.08c-.79.48-.7,1.24,0,2"/>
      <path class="st14" d="M197.34,86.08c.4.83,1.17,1.6,2,2"/>
      <path class="st14" d="M197.84,74.08c-1.94.94-3.72.75-5,2.5"/>
      <path class="st14" d="M201.34,95.08c-.27.99-.04,1.6,1,1.5"/>
      <path class="st14" d="M189.84,94.08c-.55,1.17-.75,3.29-.5,5"/>
      <path class="st14" d="M186.84,92.58c-4.68-1.22-6.62,6.41-4,9"/>
      <path class="st14" d="M177.34,93.58c-.94.79-1.76,1.6-2.5,2.5"/>
      <path class="st14" d="M211.34,86.58c.68.97,1.56,1.84,2.5,2.5"/>
      <path class="st14" d="M189.34,38.58c.84.6,1.19,1.48,1,2.5"/>
      <path class="st14" d="M193.34,35.58c1.91,1.66,2.61,4.35,1.5,6.5"/>
      <path class="st14" d="M198.84,42.08c.26.95,0,2.46-.08,3.42-.63.11-1.27.12-1.92.08"/>
      <path class="st14" d="M182.34,36.08c.82-.23,2.11-.02,2.95.08.1.49.07.92.05,1.42"/>
      <path class="st9" d="M206.51,71.41c2.69.2,6.72,3.56,6.83,6.33"/>
      <path class="st9" d="M213.67,77.58c.06,2.32,2.77,3.23,4.67,3.17"/>
      <path class="st9" d="M214.34,81.74c2.55-.23,4.78,3.76,5.53,5.73-1.21-.55-2.09-1.27-3.31-1.75.97,1.28.29,3.57.15,5.06-.1,1.03-.21,2.4-.03,3.42.22,1.22,1.02,1.86,1.48,2.98-1.09-.56-1.76-1.54-3.13-1.25.39,1.12,1,1.72,1.15,2.92.17,1.31-.24,2.76.13,4-.04-.82-.63-1.23-1.07-1.98,2.04,1.47-1.07,5.09-2.37,6.14-.24-2.88,2.21-7.49-.55-9.72,1.17.52,1.43,1.73,2.12,2.64-.44-2.21-.73-4.49-1.39-6.67-.36-1.17-1.2-2.58-1.04-3.81.29,1.71,1.96,3.93,2.98,5.28.28-5.17-.8-8.51-3.47-12.8,1.08-.23,4.47,1.53,4.49,2.47"/>
      <path class="st9" d="M206.59,76.83c3.13,1.25,10.59,2.62,10,7.5"/>
      <path class="st9" d="M206.84,67.08c-2.11,3.14.77,6.07,2.75,8.25"/>
    </g>
  </g>
</svg>