<svg xmlns="http://www.w3.org/2000/svg" version="1.1" xmlns:xlink="http://www.w3.org/1999/xlink" width="1000" height="1000"><g clip-path="url(#SvgjsClipPath3277)"><rect width="1000" height="1000" fill="#ffffff"></rect><g transform="matrix(2.5,0,0,2.5,10,0)"><svg xmlns="http://www.w3.org/2000/svg" version="1.1" xmlns:xlink="http://www.w3.org/1999/xlink" width="392" height="400"><svg version="1.1" viewBox="0 0 392 400" id="svg256" sodipodi:docname="one-buffalo-cartoon.svg" inkscape:version="1.4 (86a8ad7, 2024-10-11)" xmlns:inkscape="http://www.inkscape.org/namespaces/inkscape" xmlns:sodipodi="http://sodipodi.sourceforge.net/DTD/sodipodi-0.dtd" xmlns="http://www.w3.org/2000/svg" xmlns:svg="http://www.w3.org/2000/svg">
  <sodipodi:namedview id="namedview256" pagecolor="#ffffff" bordercolor="#000000" borderopacity="0.25" inkscape:showpageshadow="2" inkscape:pageopacity="0.0" inkscape:pagecheckerboard="0" inkscape:deskcolor="#d1d1d1" inkscape:zoom="2.0375" inkscape:cx="196.07362" inkscape:cy="200" inkscape:window-width="1920" inkscape:window-height="1017" inkscape:window-x="1912" inkscape:window-y="-8" inkscape:window-maximized="1" inkscape:current-layer="g255"></sodipodi:namedview>
  <!-- Generator: Adobe Illustrator 29.6.1, SVG Export Plug-In . SVG Version: 2.1.1 Build 9)  -->
  <defs id="defs1">
    <style id="style1">
      .st0, .st1, .st2, .st3 {
        stroke-width: 2.17px;
      }

      .st0, .st1, .st3 {
        stroke: #010123;
      }

      .st0, .st4 {
        fill: #0241a5;
      }

      .st5, .st6, .st3 {
        fill: #fff;
      }

      .st6, .st7 {
        isolation: isolate;
      }

      .st8 {
        fill: #e7042d;
      }

      .st9, .st1, .st2 {
        fill: none;
      }

      .st10 {
        fill: #010123;
      }

      .st2 {
        stroke: #e7042d;
        stroke-linecap: round;
        stroke-linejoin: round;
      }

      .st11 {
        mix-blend-mode: multiply;
        opacity: .43;
      }

      .st11, .st12 {
        fill: #003091;
      }
    </style>
  <clipPath id="SvgjsClipPath3277"><rect width="1000" height="1000" x="0" y="0" rx="200" ry="200"></rect></clipPath></defs>
  <g class="st7" id="g256">
    <g id="Layer_1">
      <g id="g255">
        <g id="g206">
          <g id="g204">
            <g id="g191">
              <g id="g150">
                <g id="g138">
                  <g id="g129">
                    <g id="g59">
                      <g id="g49">
                        <g id="g35">
                          <g id="g2">
                            <path class="st6" d="M238.8,118.31c15.21,0,10.32-7.06,10.32-7.06,17.93,10.87-1.09,24.45-1.09,24.45" id="path1"></path>
                            <path class="st10" d="M248.56,114.6c-.52.98-2.48,2.62-9.75,2.62v2.17c6.53,0,10.35-1.24,11.69-3.79.31-.59.42-1.18.45-1.74,3.03,2.38,4.68,4.99,4.79,7.81,0,.11,0,.21,0,.32,0,6.78-8.24,12.76-8.33,12.82l1.26,1.77c.39-.28,9.54-6.91,9.23-14.98-.16-4.28-2.92-8.08-8.21-11.28" id="path2"></path>
                          </g>
                          <g id="g14">
                            <path class="st0" d="M167.44,104s-21.74,5.07-38.4,23.91c0-.72,10.14-3.62,10.14-3.62,0,0-18.84,10.14-21.01,18.11-2.17,7.97-13.04,14.49-13.04,14.49,0,0,4.35,0,9.42-1.45,5.07-1.45-11.59,7.97-18.11,28.26-.73,3.62-8.69,9.42-8.69,9.42,0,0,8.69-.72,16.66-8.69,2.9-1.45-21.01,9.42-19.56,46.37,1.45,36.95,55.06,73.9,111.58,57.24,42.75-6.52,48.54-10.87,48.54-10.87-.68-3.08-4.4-46.55-26.08-56.87" id="path3"></path>
                            <g id="g13">
                              <g id="g12">
                                <path class="st4" d="M171.79,107.62c-10.6,11.47-25.13,17.35-26.81,34.78-1.69,17.53,1.62,30.35,19.42,39.86,7.92,4.23,14.33,12.82,18.27,21.74,2.94,6.66.96,12.24,8.68,15.37,7.63,3.1,12.55,1.63,18.64-3.29,5.34-4.32,7.87-6,14.72-9.15,10.2-4.68,16.99-16.29,20.99-26.35,2.09-5.28,8.25-14.31,7.28-20.2-1.31-7.97-15.9-21.52-21.79-27.97-8.18-8.97-16.23-18.86-27.53-24.07" id="path4"></path>
                                <g id="g11">
                                <path class="st0" d="M167.44,106.9s10.5-16.66,28.62-21.01l-7.61,10.14s20.29-15.58,36.23-10.51c0,0-6.52,1.81-13.04,5.43-6.52,3.62,16.66-5.8,36.59,5.8.72-.72-25,1.45-25,1.45-3.47-.58,22.32.94,30.43,9.06,0,0-10.87-1.81-17.39,1.81,0,0,9.42,2.17,13.04,20.29,3.62,18.11,10.87,21.01,2.9,29.71" id="path5"></path>
                                <path class="st0" d="M163.81,135.88s-10.87,2.17-13.04,13.04" id="path6"></path>
                                <path class="st0" d="M152.58,153.99l-7.97-5.07s1.81,13.04,13.77,14.49c.72,1.45-3.62,1.45-5.8,1.45h-4.35s2.9-1.45,10.14,7.24c7.24,8.69,19.56,7.25,19.56,7.25" id="path7"></path>
                                <path class="st0" d="M243.51,198.19s-5.07,7.97-13.76,8.69c-5.65.47-4.57-.28-3.12-.87.78-.32,1.67-.58,1.67-.58,0,0-13.04-3.62-20.29-11.59-7.24-7.97-11.59-16.66-5.07-10.87" id="path8"></path>
                                <path class="st0" d="M182.29,182.97s9.06,17.03,4.71,21.37c-.73.73-6.52,7.97-6.52,7.97h7.97s-12.32,2.54-7.97,17.75c2.6-2.6,1.93-2.54,3.62-5.07,2.2-6.29-.03,12.81,9.42,19.56,0,0-2.54-5.8,8.33-15.21,2.9-3.62,1.81-8.69,1.81-8.69" id="path9"></path>
                                <path class="st0" d="M226.12,206.16s-14.49,3.62-5.79,6.52c7.97,4.35-12.32,12.32-24.63,10.14l7.25-3.62" id="path10"></path>
                                <path class="st0" d="M252.93,159.06s5.79,9.42,1.45,18.84c-4.35,9.42-4.35,2.9-4.35,9.42s1.45,5.43-21.01,12.68c3.62-2.9-11.95-17.03-11.95-14.13s-4.35-6.52-4.35-6.52c0,0-.73-13.77,2.9-14.49" id="path11"></path>
                                </g>
                              </g>
                              <path class="st0" d="M254.38,177.9s0,11.59-8.69,17.39c-7.25,5.07-17.39,2.9-17.39,2.9" id="path12"></path>
                            </g>
                          </g>
                          <path class="st3" d="M184.46,117.77s9.78-.54,2.72,10.32c-7.06,10.87-23.37,9.24-26.63-7.61s28.8-21.19,28.8-21.19c0,0-8.15,18.48-3.26,21.19" id="path14"></path>
                          <path class="st3" d="M212.72,181.34s.54-11.95,5.98-7.06,26.63,17.39,31.52,15.21c4.89-2.72-1.63,9.24-19.02,9.24l-1.09-.54s-11.41-17.93-10.87-10.32c0,0-5.98-3.26-6.52-6.52Z" id="path15"></path>
                          <path class="st1" d="M217.61,182.43s3.26-.54,11.41,13.58" id="path16"></path>
                          <path class="st5" d="M204.03,178.63l-3.26-4.89s-10.32,3.8-7.06,10.32c1.32,2.64.95,4.65,0,6.76-1.39,3.11-4.03,6.43-4.35,12.25l1.09,4.35,2.72-3.8s-1.09,11.41,4.89,14.67l-1.09,2.72,6.52-3.26-2.17,4.89s16.3-.54,19.56-7.06c2.17-3.8-5.98-5.43-5.98-5.43,0,0,0-4.35,6.52-4.89,4-.33-4.47-3.94-11.87-9.56-4.67-3.54-8.9-7.89-9.33-12.72-2.17,2.17,4.89-2.72,4.89-2.72l-1.63,5.43s8.15,13.58,21.19,15.76c-.54,1.63,0,1.63,6.52,2.72,3.26,1.09,3.8,4.89,10.87-4.89.54-.54-10.87.54-13.04,0,2.17-.54-8.15-9.78-8.15-9.78,0,0-10.87-2.17-9.78-10.32" id="path17"></path>
                          <path class="st10" d="M177.94,172.65s14.67,14.67,9.78,30.97" id="path18"></path>
                          <path class="st10" d="M197.5,184.06s7.06-7.06,10.87-1.63" id="path19"></path>
                          <path class="st10" d="M200.77,184.06s-3.8,5.98-3.8,11.41,7.06,16.84,15.76,17.39c7.06,1.63,0-4.89,0-4.89,0,0,12.5-2.17,14.13-2.17s-3.26-3.8-3.26-3.8l4.89-2.17-7.06,2.17-19.02-13.04" id="path20"></path>
                          <path class="st10" d="M221.41,157.98s-11.41,4.89-5.98,16.3c-2.72,1.09-4.35,4.35-4.35,4.35,0,0-7.06-13.58,10.32-20.65Z" id="path21"></path>
                          <path class="st10" d="M213.81,212.32s3.8-7.06,11.96-7.06-24.45-4.35-24.45-4.35l8.15,4.89" id="path22"></path>
                          <path class="st10" d="M228.48,163.95s10.87-1.63,16.3,11.95c-1.63.54-7.06-11.41-16.3-11.95Z" id="path23"></path>
                          <path class="st10" d="M244.78,174.28" id="path24"></path>
                          <path class="st10" d="M252.39,173.19s5.43,1.09,1.63,10.32" id="path25"></path>
                          <path class="st10" d="M246.41,152.54s9.24,2.17,9.24,10.32" id="path26"></path>
                          <path class="st10" d="M182.29,173.19s-9.24-1.09-13.58-5.43c-4.35-4.35,5.98,8.69,13.04,7.06" id="path27"></path>
                          <path class="st10" d="M247.5,152.54s7.61-8.69,4.35,3.8" id="path28"></path>
                          <path class="st10" d="M239.35,150.37s4.62,0,8.41,1.54c2.16.88,4.04,2.26,4.63,4.43" id="path29"></path>
                          <path class="st10" d="M219.24,150.91s.54-5.43-5.43-5.43-14.13,8.15-9.78,13.58c4.35,5.43,10.87-3.8,11.41-7.06" id="path30"></path>
                          <path class="st5" d="M210,148.74s-7.06,2.72-4.89,10.32c.86,3,11.96-3.26,9.24-11.41" id="path31"></path>
                          <path class="st10" d="M199.14,140.59s19.56-17.39,25.54-5.98c2.72,2.17-1.63-23.37-25.54,5.98Z" id="path32"></path>
                          <path class="st10" d="M239.35,141.13s7.61,3.8,1.63,13.04" id="path33"></path>
                          <path class="st10" d="M199.14,162.87s1.63,4.89,7.06,0" id="path34"></path>
                          <path class="st10" d="M210.83,153.88c1.02-2.5.39-5.12-1.42-5.86-1.8-.74-4.1.69-5.12,3.19-1.02,2.5-.38,5.12,1.42,5.86,1.81.74,4.1-.69,5.12-3.19Z" id="path35"></path>
                        </g>
                        <path class="st3" d="M252.93,156.89s1.63-8.69-3.8-8.69c-2.17-.54-3.8,3.8-3.8,3.8" id="path36"></path>
                        <path class="st10" d="M248.04,138.41s2.17-3.26,7.61,6.52" id="path37"></path>
                        <path class="st10" d="M181.75,143.85s-8.69-1.09-12.5,7.61l4.89.54s-3.8,4.35-3.8,11.41c0,0-2.9-3.44.54-10.32.91-.91-3.44-.72-3.44-.72,0,0,1.99-13.58,15.58-9.42" id="path38"></path>
                        <path class="st4" d="M146.61,151.64s7.97,3.44,10.69,3.62c2.72.18-4.89,1.63-4.89,1.63" id="path39"></path>
                        <path class="st4" d="M151.14,150.01s-2.17-13.4,15.22-14.49c6.88-1.81-11.05-5.8-11.59-5.8s-7.43,6.34-7.79,6.88c-.36.54,0,11.23,0,11.23" id="path40"></path>
                        <path class="st4" d="M145.52,163.05s5.98,1.99,12.32,10.14c6.34,8.15-14.13,1.27-14.13,1.27" id="path41"></path>
                        <path class="st4" d="M237.72,150.19s7.79.72,10.33,6.7c2.54,5.98-7.06,1.81-7.06,1.81" id="path42"></path>
                        <path class="st4" d="M217.43,163.05s-6.7,2.9-3.44,10.14" id="path43"></path>
                        <path class="st10" d="M245.5,151.46s1.99-2.72,3.8-.18c1.81,2.54.54,4.35.54,4.35,0,0-4.71-3.99-6.88-4.17" id="path44"></path>
                        <path class="st5" d="M219.96,203.26s-3.44,1.45-5.79,1.09c-2.36-.36-4.89-2.9-3.62-2.9-.36,0-1.45,0-5.43-4.35-.18-1.99,0-2.54,0-2.54,0,0-2.9-1.99-2.17-3.99-.36.91-1.63-1.63-1.09-2.54.54-.91,2.35,1.81,2.35,1.81l2.54,3.08-.18.91.9.18,6.52,4.89-.72.91s1.27-.36,2.35,0c1.09.36,4.89,2.9,5.8,3.08" id="path45"></path>
                        <path class="st5" d="M200.4,201.81s3.62,5.61,6.52,6.52c2.9.91,1.81-3.44,1.81-3.44l-1.63.72.72,1.27s-2.72,1.81-8.87-8.33" id="path46"></path>
                        <path class="st5" d="M212.36,148.2s-3.44.18-3.08,2.54l2.9-.72" id="path47"></path>
                        <path class="st5" d="M249.85,149.46s-3.62,0-2.54,1.99" id="path48"></path>
                        <path class="st10" d="M217.79,184.24s-1.63-2.72-.36-3.26c1.27-.54,8.15,5.98,9.96,11.41,1.81,5.43-7.43-7.97-7.43-7.97" id="path49"></path>
                      </g>
                      <path class="st0" d="M218.15,220.65s10.87,1.45,16.66,11.59h-5.8l11.59,8.69-5.07,1.45s13.76,12.32,9.42,30.43" id="path50"></path>
                      <path class="st0" d="M93.54,239.48s-5.8,39.85,24.63,49.27c2.17,0,1.45,17.39,21.01,23.91,1.45,0-.72-4.35-.72-4.35,0,0,9.42,11.59,29.71,10.14,18.11-.73,12.32-37.67,38.4-34.78-4.35-3.62-7.25-48.54-52.89-36.23,3.62,2.17,0-20.29-13.77-14.49" id="path51"></path>
                      <path class="st0" d="M182.65,289.12s19.56-22.46,33.33-15.21c13.77,7.24,40.57-15.22,42.02-20.29,1.45-5.07,1.45-6.52,6.52-6.52s28.26-.72,28.26-.72l-5.79,8.69s-26.81,7.97-34.78,31.88c-7.97,23.91-31.88,31.15-39.85,34.05l-.72-2.17-5.07,9.42-2.9-5.07s.72,5.8-11.59,10.14l4.35-6.52s-13.04,5.07-15.21,10.14c0,0-5.07-8.69.72-13.04.73-2.17-5.79-.72-17.39.72l5.07-5.8" id="path52"></path>
                      <path class="st0" d="M94.26,191.67s-12.32,10.14-13.04,31.15l4.35-3.62-7.24,20.29,5.8-4.35s-9.42,23.91,8.69,48.54v-5.79s7.24,10.87,7.24,17.39c1.45,3.62,2.9-5.07,2.9-5.07,0,0,10.14,31.15,49.27,30.43l-4.35-5.79" id="path53"></path>
                      <path class="st0" d="M236.27,240.93s2.17,7.24,8.69,7.97l-3.62,2.9s5.07,10.87,4.35,13.77" id="path54"></path>
                      <path class="st10" d="M260.9,248.18s-2.18-10.14,1.45-13.04c3.62-2.9,31.88-7.97,34.78-10.14,2.9-2.17,1.45,10.14,1.45,10.14l7.24-2.17s-11.59,15.21-13.77,15.94" id="path55"></path>
                      <path class="st12" d="M286.18,196.62c-14.56,4.51-29.03,12.52-27.19,18.48,1.85,5.96,18.31,4.38,32.87-.12,13.71-4.25,27.35-11.6,27.35-17.41,0-.36-.05-.71-.16-1.06-.32-1.03-1.09-1.88-2.29-2.51-4.89-2.58-17.18-1.52-30.58,2.63ZM261.07,214.46c-.92-2.96,8.44-11.48,25.76-16.84,14.15-4.38,25.26-3.63,28.92-1.7.67.35,1.08.77,1.23,1.23h0c.92,2.96-8.44,12.56-25.75,17.93-17.32,5.36-29.23,2.35-30.15-.62ZM319.05,196.5h0Z" id="path56"></path>
                      <path class="st12" d="M263.18,187.9c-3.22,4.65,6.64,15.08,18.04,22.98,11.4,7.9,24.63,13.46,27.86,8.81h0c.56-.82.74-1.84.52-3.06-.88-4.84-8.34-12.84-18.56-19.93-11.4-7.9-24.64-13.46-27.86-8.81ZM282.46,209.1c-13.11-9.08-19.03-17.75-17.49-19.96,1.53-2.21,11.72-.81,24.83,8.28,10.74,7.44,17.01,16.04,17.66,19.62.04.21.06.4.06.58,0,.35-.07.64-.22.85-1.53,2.21-11.72-.28-24.83-9.36Z" id="path57"></path>
                      <path class="st8" d="M303.64,193.84c0-2-1.62-3.62-3.62-3.62s-3.62,1.62-3.62,3.62,1.62,3.62,3.62,3.62,3.62-1.62,3.62-3.62Z" id="path58"></path>
                      <path class="st8" d="M278.81,218.47c0-1.38-1.12-2.5-2.49-2.5s-2.5,1.12-2.5,2.5,1.12,2.5,2.5,2.5,2.49-1.12,2.49-2.5Z" id="path59"></path>
                    </g>
                    <path class="st5" d="M232.64,109.8s9.06-1.09,14.49,14.85c1.81,9.78,3.26,14.13,3.26,14.13l-3.26-1.09s4.53,3.44,5.25,7.25c1.27,3.26,2.72,4.53,1.81,8.33.18,0,.36-2.54-2.35-5.25-2.72-2.72-2.17-9.24-6.16-11.41-3.98-2.17,2.54.72,2.54.72,0,0-3.26-6.34-4.35-8.87l3.44,2.72s-5.43-19.74-15.4-21.37" id="path60"></path>
                    <path class="st5" d="M241.34,151.82s5.07.18,9.24,5.8c1.45,2.54,1.99,2.54,1.99,2.54l-1.45-.91s4.53,4.89,3.08,14.49c-.36,1.81-2.35-2.9-2.35-2.9l1.27-.18s-1.45-8.69-4.71-11.23c-3.26-2.54,2.72,1.09,2.72,1.09,0,0-4.53-7.06-10.14-9.06" id="path61"></path>
                    <path class="st5" d="M251.12,172.65s3.8,5.07-.54,15.58c-.54,0-2.36.54-2.36.54,0,0,4.53-13.95,1.81-18.84" id="path62"></path>
                    <path class="st5" d="M232.28,107.44s11.77-4.35,18.48-1.45c-.18.36-13.4-6.88-19.2,1.99" id="path63"></path>
                    <path class="st5" d="M229.75,101.28s11.05,0,20.65,4.89" id="path64"></path>
                    <path class="st5" d="M205.29,148.01s9.24-5.25,10.69-2.9c1.45,2.35.72-5.43-10.69,2.9Z" id="path65"></path>
                    <path class="st5" d="M202.58,225.54s-.72,3.26-4.35,5.8c-3.62,2.54-5.98,6.52-5.79,10.69-.54-.18-4.17-5.44-.73-10.14.18.18-1.09,3.44.36,5.98-.72,0,.54-5.25,3.98-7.43,3.44-2.17,6.16-4.16,6.7-5.98" id="path66"></path>
                    <path class="st5" d="M188.81,220.83s-3.26,6.88-.91,13.22" id="path67"></path>
                    <path class="st5" d="M180.84,226.62s.73-9.78,8.15-12.32" id="path68"></path>
                    <path class="st5" d="M242.06,186.78s6.34,4.89,8.15,1.09" id="path69"></path>
                    <path class="st5" d="M217.79,221.73s10.14,3.08,14.13,9.42" id="path70"></path>
                    <path class="st5" d="M224.13,230.07l13.58,10.32s-10.32-1.99-13.58-10.32Z" id="path71"></path>
                    <path class="st5" d="M232.1,241.3s3.44,2.72,5.79,5.25c2.36,2.54,5.43,3.08,5.43,3.08l-4.35,1.63s5.07,6.34,5.8,14.13c-.36,0-2.72,1.27-2.72,1.27,0,0-4.89-10.87-8.87-15.21-3.99-4.35,6.34,4.89,6.34,4.89,0,0-6.16-10.14-8.33-12.14-2.17-1.99,4.53,2.72,4.53,2.72l-5.98-6.88" id="path72"></path>
                    <path class="st5" d="M163.81,247.46s22.46-6.52,36.95,24.27c-1.09,1.45-1.81,2.9-1.81,2.9l-2.17.72,1.09-2.53s-17.39-27.17-34.05-25.36Z" id="path73"></path>
                    <path class="st5" d="M194.61,280.78s12.68-9.78,19.92-5.43c7.25,4.35,27.53-.36,43.47-18.48,2.17-2.54.36-7.97,6.16-7.97h7.97l-4.95,1.04-1.03.22-.89.19-1.45,4.71-1.45-2.17.73,7.25-2.54-2.54s-12.32,13.4-19.2,21.01c-6.88,7.61,2.17-5.79,2.17-5.79,0,0-13.76,11.95-20.65,13.4-1.45,0,4.71-4.35,6.16-7.25,1.45-2.9-3.98,3.26-13.76,3.62-9.78.36-15.58-5.07-28.62,4.71" id="path74"></path>
                    <path class="st5" d="M144.25,233.69s.31,0,.82.07c2.16.29,7.88,1.85,7.88,10.07-1.09,1.81-2.9-10.14-8.69-10.14Z" id="path75"></path>
                    <path class="st5" d="M296.77,230.07s-2.54,10.14-4.35,10.5c-1.81.36.72,2.17.72,2.17,0,0,7.61-10.14,5.07-5.07-2.53,5.07-6.88,8.69-6.88,8.69h-6.88l6.16-15.94,6.16-2.17" id="path76"></path>
                    <path class="st5" d="M285.17,232.6s4.35,1.09,9.06-2.9" id="path77"></path>
                    <path class="st5" d="M283.72,236.59s4.35,1.09,9.06-2.9" id="path78"></path>
                    <path class="st5" d="M282.64,240.57s4.35,1.09,9.06-2.9" id="path79"></path>
                    <path class="st5" d="M280.46,245.28s4.34,1.09,9.05-2.9" id="path80"></path>
                    <path class="st5" d="M207.65,239.12s11.59,2.54,17.39,12.32c5.79,9.78-7.61-8.69-19.2-12.32" id="path81"></path>
                    <path class="st5" d="M143.89,252.53s6.88-4.71,15.94-4.71" id="path82"></path>
                    <path class="st11" d="M185.91,101.1s-13.4,7.25-12.68,17.03c-1.09,6.88.73-4.71,3.26-7.25,2.54-2.54-5.79,5.07,1.81,14.85,0,1.45-.36-5.43-.36-5.43,0,0,1.45,7.61,7.24,7.97,4.35,1.09-10.14,11.59-19.92,0-9.78-11.59,7.24-28.26,22.46-27.17" id="path83"></path>
                    <path class="st11" d="M247.86,128.27s11.95-10.87,2.9-16.66c-.72.72.72,4.71-4.35,6.52" id="path84"></path>
                    <path class="st11" d="M216.7,177.18s16.66,11.59,24.64,14.13c1.09,2.17-6.52-1.09-6.52-1.09l3.26,2.54-3.26,1.09-1.09,2.9h-2.54s-10.51-18.48-15.21-17.03c-3.26,1.45,8.33,9.78,5.8,9.78s-13.4-5.8-7.25-17.39" id="path85"></path>
                    <path class="st11" d="M196.42,202.17s1.88,5.85,7.39,9.78c1.74,1.24,3.85,2.29,6.38,2.9,3.62,3.62-6.16.36-6.16.36,0,0-3.26,3.98-6.16,5.8-2.9,1.81,3.26,2.9,3.26,2.9,0,0-9.42.36-10.51,5.43-1.09,5.07.72-17.75-.72-15.94-1.45,1.81-11.77,5.25-9.24,4.89,2.54-.36,7.06-7.06,7.06-7.06l-3.62-1.81s-1.45-5.43,5.8-14.49c7.25-9.06,3.98-11.59,1.81-12.68-2.17-1.09,4.35-12.32,10.51-12.32s-1.09,4.35-1.09,4.35l5.07,4.35s-4.71-3.62-10.14,4.35c0,.36,6.52-5.8,10.14-.72,1.09,1.09-6.88-2.17-8.33,3.26" id="path86"></path>
                    <path class="st11" d="M208.37,182.25l-.72,5.07s11.59,9.42,20.65,10.14c3.62,1.09,4.35,5.8,10.87,5.07,5.07-.72-4.35,4.71-4.35,4.71l-10.51-3.62s-26.81-12.68-23.18-21.01" id="path87"></path>
                    <path class="st10" d="M184.1,224.27s-6.88,12.32,4.71,21.01" id="path88"></path>
                    <path class="st10" d="M204.75,223.91s5.07,4.35,12.68-2.54" id="path89"></path>
                    <path class="st10" d="M179.39,142.04s3.62-6.16,10.14-1.09" id="path90"></path>
                    <path class="st10" d="M188.09,136.24s5.43-3.26,6.88,3.98" id="path91"></path>
                    <path class="st10" d="M189.54,114.14s4.35,5.8,0,11.96" id="path92"></path>
                    <path class="st10" d="M200.77,96.39s6.16-3.99,17.75-.73" id="path93"></path>
                    <path class="st10" d="M208.74,101.83s11.59-1.09,18.47,3.26" id="path94"></path>
                    <path class="st10" d="M226.12,104.72s-6.88-1.09-9.05,1.09" id="path95"></path>
                    <path class="st10" d="M160.55,121.39s-9.06,7.25,9.06,14.85" id="path96"></path>
                    <path class="st10" d="M156.21,172.83s12.31,8.33,20.29,3.62c.36,1.09-9.78.36-13.76-7.24-1.45-.73,5.43,1.09,5.43,1.09,0,0-9.06-7.61-10.87-11.23.72-.36,8.33,4.35,8.33,4.35l-2.53-6.52s2.17,3.99,3.62,1.45c1.45-2.54,6.88-5.43,6.88-5.43,0,0-3.98,6.88-1.81,10.14,2.17,3.26-5.43-.72-3.62.72,1.81,1.45,6.52,7.61,11.95,11.23-.72,0,2.9,5.43,2.9,5.43,0,0-.72,3.26.36,4.35,1.09,1.09,2.54,7.61,2.54,7.61,0,0-7.25-7.25-10.51-8.33-3.26-1.09-7.61-2.9-7.61-2.9" id="path97"></path>
                    <polyline class="st10" points="153.67 237.31 160.19 244.92 152.95 247.82" id="polyline97"></polyline>
                    <path class="st10" d="M196.78,261.58s7.97,6.88,15.58,6.88-3.98-6.88-1.81-5.43c2.17,1.45,9.06,6.52,22.46,2.17,5.43-1.09-3.98,3.26-3.98,3.26l10.87.36s-6.16,9.78-19.56,5.8c-13.4-3.98-18.11-2.17-18.11-2.17" id="path98"></path>
                    <path class="st10" d="M157.29,169.93c-.36,1.09.36,21.37,3.62,23.91,3.26,2.54,1.09-9.78,3.26-7.97,2.17,1.81.36,10.14,7.61,19.92-1.45.73-.36-10.51-.36-10.51,0,0,5.8,10.87,7.97,13.4,2.17,2.54,8.33-3.26,8.33-6.16s-1.09-12.68-3.26-14.13c-2.17-1.45-5.8-6.52-5.8-6.52l-6.52-1.45" id="path99"></path>
                    <path class="st10" d="M181.93,211.59c-13.04-8.33-11.23-19.56-11.23-19.56" id="path100"></path>
                    <path class="st10" d="M165.26,182.61s-4.71,13.77,6.16,24.27" id="path101"></path>
                    <path class="st10" d="M154.76,169.21c0,1.45-1.09,13.04-1.09,13.04l5.43-7.61" id="path102"></path>
                    <path class="st10" d="M118.17,161.24s-10.87,5.43-15.21,18.48c-3.26,1.09,14.13-7.61,14.13-7.61,0,0-3.21,2.48-7.5,6.49-7.4,6.91-18,18.36-20.76,29.38-2.17,3.26,10.87-5.43,10.87-5.43,0,0-7.61,0-9.78,23.91-3.26,2.17,6.52-7.61,6.52-7.61,0,0-17.39,26.08-6.52,46.73,10.87,20.65,3.26,10.87,3.26,10.87l3.26-7.61s-2.17,7.61,7.61,17.39c0,4.35-1.09-8.69-1.09-8.69,0,0,4.35,27.17,32.6,32.6,4.35,3.26-7.61-6.52-7.61-6.52,0,0,14.13,6.52,31.52,6.52,13.04,0-11.95-5.43-21.74-16.3-9.78-10.87-2.17,6.52-2.17,6.52,0,0-18.48-10.87-14.13-33.69,2.17-4.35-4.35,9.78-4.35,9.78,0,0-8.69-11.95-1.09-31.52,7.61-19.56-7.61,13.04-7.61,5.43s9.78-25,15.21-28.26c5.43-3.26-9.78,0-9.78,0,0,0,4.35-7.61,9.78-18.48,5.43-10.87-16.3,7.61-11.95,5.43,3.63-1.82,1.96-11.97,9.53-27.3,1.5-3.02,3.35-6.25,5.68-9.65,14.13-20.65-13.04,10.87-13.04,10.87l17.39-29.34-7.61,5.43,22.82-28.26s-15.21-4.35-21.74,13.04c-1.09,2.17-7.61,6.52-7.61,6.52h6.52" id="path103"></path>
                    <path class="st10" d="M142.08,121.03l14.13-8.69,1.09,9.78,4.35,5.43,3.26,4.35s-15.21,11.95-11.95,18.48c2.17,7.61-9.78-1.09-9.78-1.09l13.04,14.13-11.95-2.17s7.61,4.35,15.21,13.04c6.52,8.69,2.17,7.61,2.17,7.61l-10.87-9.78s-13.04,13.04-14.13,20.65l-1.09-16.3s-17.39,14.13-20.65,33.69c-3.26,19.56-5.43-25-5.43-25l11.95-34.78" id="path104"></path>
                    <polyline class="st10" points="139.91 152.54 155.12 162.32 145.34 165.58" id="polyline104"></polyline>
                    <polyline class="st10" points="114.91 206.88 132.3 185.15 111.65 188.41" id="polyline105"></polyline>
                    <path class="st10" d="M181.2,290.56s3.26-16.3,16.3-16.3" id="path105"></path>
                    <path class="st4" d="M166.17,136.24s-10.87.91-15.21,11.05c-.18.18,1.81,0,1.81,0,0,0-.36,3.8,0,4.53.36.72-7.06-.91-7.06-.91,0,0,2.9,10.32,13.22,11.95,1.45.91-5.8-4.89-5.8-4.89" id="path106"></path>
                    <path class="st4" d="M157.84,162.5s-4.53.72-7.97.72c-.72-.18,6.16,7.43,10.14,7.97-.36-.72,1.45-4.71,1.45-4.71l-.36-2.72-1.45-.91" id="path107"></path>
                    <path class="st4" d="M160.01,171.38l-5.07.18s11.59,8.69,19.2,5.8c-1.27.91-8.69-2.17-10.5-4.71" id="path108"></path>
                    <path class="st4" d="M126.86,133.71s8.69-9.6,19.74-10.14c-.36.36-8.15,5.61-8.15,5.61l7.43-.36s-13.95,3.26-18.84,13.77c-3.26,6.16-10.69,8.51-10.69,8.51" id="path109"></path>
                    <path class="st4" d="M140.09,124.11s8.87-7.61,18.29-9.6c-.54,0-.54-5.07-.54-5.07,0,0-15.03,8.51-17.57,11.23" id="path110"></path>
                    <path class="st4" d="M150.95,171.92l-7.79,10.14s.18-9.6.72-12.86c.54-3.26-5.25,3.62-5.25,3.62,0,0,6.34-13.58,5.62-13.4-.73.18-14.49,6.16-24.82,27.53-.36,1.09,7.97-3.26,7.97-3.26,0,0-9.96,14.67-12.5,24.81-.54,2.72,15.4-10.69,18.66-10.32" id="path111"></path>
                    <path class="st4" d="M163.27,183.15c-.72.54-6.7,9.96.36,19.38" id="path112"></path>
                    <path class="st4" d="M167.8,163.59s2.9,11.41,19.56,9.78" id="path113"></path>
                    <polyline class="st10" points="156.21 115.59 159.47 113.96 161.37 127.27 154.58 128.09" id="polyline113"></polyline>
                    <path class="st10" d="M188.81,103.09s8.42-3.26,14.94-3.53c-.27.27-4.62,4.08-4.62,4.08,0,0,11.14-1.09,15.21.27.27-.27-6.79,2.45-6.79,2.45,0,0,6.79.54,11.96,4.35.81,1.63-6.52-2.45-13.58,2.99-2.17,1.63,4.62,4.35,4.62,4.35,0,0-10.87,2.45-18.48,10.32-4.62,4.35,2.72-10.05-.54-12.5-3.26-2.45-2.17,4.08-2.17,4.08l-5.43-2.17.54-6.79" id="path114"></path>
                    <path class="st10" d="M165.17,107.71s-11.14,3.8-15.49,7.88c-1.09-.54,10.32-.54,10.32-.54" id="path115"></path>
                    <path class="st10" d="M137.73,125.92l-14.4,6.25s11.68-13.31,15.76-13.86c4.08-.54.81.27.81.27l-6.52,7.06" id="path116"></path>
                    <path class="st10" d="M143.44,251.44s7.34-7.88,19.83-6.52" id="path117"></path>
                    <path class="st10" d="M161.37,180.8s.27,16.3,7.34,21.46c.54-1.36-2.45-16.3-2.45-16.3" id="path118"></path>
                    <path class="st10" d="M193.7,186.5s-.27,3.8-4.62,10.05c-2.99,6.25,1.36,11.95,1.36,11.95l2.45-3.53s-2.45,6.79,1.9,11.95c-.27.54-7.06-8.15-7.06-8.15l-2.44,1.09.54-5.98-.82-9.78" id="path119"></path>
                    <path class="st4" d="M117.08,150.37s7.61-.82,14.67-3.8c.54.54-9.51,7.61-9.51,7.61l8.97.27s-17.39,7.34-20.65,12.77" id="path120"></path>
                    <path class="st4" d="M118.44,170.75s-13.31,16.85-22.55,17.93" id="path121"></path>
                    <path class="st4" d="M104.31,190.31s-13.58,10.6-16.3,22.28c-.81,2.72-.81-9.51-.81-9.51l7.88-9.78" id="path122"></path>
                    <polyline class="st4" points="91 272.09 97.79 282.96 95.35 275.89" id="polyline122"></polyline>
                    <path class="st4" d="M133.39,289.48s13.58,20.92,33.96,18.75" id="path123"></path>
                    <path class="st4" d="M130.94,231.61s14.67-3.53,19.56,8.96" id="path124"></path>
                    <path class="st4" d="M185.55,202.53" id="path125"></path>
                    <path class="st4" d="M186.64,202.26s-1.36,7.06-4.89,9.78c-1.27.27,7.06-1.36,7.06-1.36l-2.72-1.09s1.9-8.69,1.63-9.51" id="path126"></path>
                    <path class="st4" d="M182.29,178.63s4.62,6.25,1.9,11.68c-.54,1.36,5.71-3.26,5.71-3.26l-4.89,8.15s6.52-5.43,6.52-8.69" id="path127"></path>
                    <path class="st4" d="M143.89,169.21s1.99,14.58,3.35,16.75c1.36,2.17-5.16-.81-5.16-.81" id="path128"></path>
                    <path class="st4" d="M157.57,141.4s11.68-11.14,7.61-1.09c-4.08,10.05-17.39,8.15-17.39,8.15" id="path129"></path>
                  </g>
                  <path class="st5" d="M164.72,106.17s-15.4,3.08-28.26,16.48" id="path130"></path>
                  <path class="st5" d="M142.44,124.47s-17.39,5.07-23.73,19.2c-4.89,8.51-7.61,10.32-7.61,10.32,0,0,9.96-4.17,13.58-10.14-.36-2.9-4.35,1.63-4.35,1.63,0,0,7.24-15.4,23.91-21.74" id="path131"></path>
                  <path class="st5" d="M119.26,155.62s-13.04,8.69-18.48,22.1c-4.17,9.78-7.43,11.77-7.43,11.77,0,0,8.88-7.43,10.32-11.59,1.45-4.17,6.88-16.66,16.85-22.64" id="path132"></path>
                  <path class="st5" d="M94.44,194.02s-9.78,8.69-11.95,27.17c-.36-.36,5.8-5.07,5.8-5.07l-7.43,20.11s8.51-18.29,9.42-22.64c.91-4.35,0-.73,0-.73l-4.17,3.26s1.45-14.85,9.42-21.92" id="path133"></path>
                  <path class="st5" d="M86.11,232.24s-4.89,24.09-.36,34.05c4.53,9.96-4.71-15.58,1.09-34.96" id="path134"></path>
                  <path class="st5" d="M178.76,97.93s5.71-7.06,14.4-9.51" id="path135"></path>
                  <path class="st5" d="M192.89,94.4s12.77-8.97,26.08-8.42" id="path136"></path>
                  <path class="st5" d="M93.72,275.08s9.24,7.06,7.06,17.66" id="path137"></path>
                  <path class="st5" d="M104.59,287.85s.21.83.71,2.22c2.21,6.17,10.12,23.31,30.54,26.86,1.9,1.63-21.46-8.69-29.61-28.53" id="path138"></path>
                </g>
                <path class="st10" d="M158.38,219.56c1.33.11,2.13.87,2.17,2.17" id="path139"></path>
                <path class="st10" d="M177.94,149.28c1.85-.48,3.52-.23,4.35,1.09" id="path140"></path>
                <path class="st10" d="M176.86,160.15c.83-1.31,2.5-1.57,4.35-1.09" id="path141"></path>
                <path class="st10" d="M126.86,251.44c-2.73,2.57-3.87,6.26-2.17,9.78" id="path142"></path>
                <path class="st10" d="M131.21,264.48c-1.94,2.37-2.46,5.14-1.09,7.61" id="path143"></path>
                <path class="st10" d="M140.99,273.17c-.25,1.86.49,2.62,2.17,2.17" id="path144"></path>
                <path class="st10" d="M132.3,234.05c-2.62,1.89-4.43,4.49-5.43,7.61" id="path145"></path>
                <path class="st10" d="M129.04,210.14c2.9-1.09,3.99-3.38,3.26-6.52" id="path146"></path>
                <path class="st10" d="M131.21,189.49c4.6-.89,8.23-3.69,7.61-8.69" id="path147"></path>
                <path class="st10" d="M127.95,178.63c8.35-2.87,12.79-10.99,11.95-19.56" id="path148"></path>
                <path class="st10" d="M155.12,300.34c1.91.7,3.37,1.28,5.43,2.17" id="path149"></path>
                <path class="st10" d="M199.68,313.39h6.52" id="path150"></path>
              </g>
              <path class="st10" d="M184.46,328.6c.91-6.37,6.5-11.66,13.04-11.95" id="path151"></path>
              <path class="st10" d="M198.59,320.99c3.24-1.74,6.46-5.46,6.52-9.78" id="path152"></path>
              <path class="st10" d="M211.63,312.3c-1.92-.15-3.72.22-5.43,1.09" id="path153"></path>
              <path class="st10" d="M167.08,317.73c5.81,2.74,16.21,1.5,21.74-3.26" id="path154"></path>
              <path class="st10" d="M217.07,311.21c-.85,1-1.99,1.38-3.26,1.09" id="path155"></path>
              <path class="st10" d="M165.99,310.13c3.78.96,6.87-.05,8.69-3.26" id="path156"></path>
              <path class="st10" d="M125.78,192.75c-9.9,4.96-11.65,17.81-18.48,25" id="path157"></path>
              <path class="st10" d="M124.69,211.23c-4.32,8.39-12.07,14.36-19.56,19.56" id="path158"></path>
              <path class="st10" d="M118.17,250.35c-4.95,10.01-6.04,23.96-1.09,34.78" id="path159"></path>
              <path class="st10" d="M125.78,282.96c-.72,7.9,0,21.68,9.78,21.74" id="path160"></path>
              <path class="st10" d="M148.6,301.43c2.42,3.77,5.65,6.05,9.78,6.52" id="path161"></path>
              <path class="st10" d="M163.81,140.59c-6.49,1.85-12.95,2.25-18.47,5.43" id="path162"></path>
              <path class="st10" d="M211.63,97.12c-7.37,1.63-20.74,3.73-23.91,9.78" id="path163"></path>
              <path class="st10" d="M188.81,174.28c-4.48,2.29-9.84,4.18-15.21,3.26" id="path164"></path>
              <path class="st10" d="M189.9,178.63h-11.95" id="path165"></path>
              <path class="st10" d="M123.6,300.34c6.19,10.34,16.24,14.76,26.08,19.56" id="path166"></path>
              <path class="st10" d="M224.67,306.87c.49,2.18.17,4.3-1.09,5.43" id="path167"></path>
              <path class="st10" d="M200.77,259.05c4.39,6.91,12.36,11.75,19.56,15.21" id="path168"></path>
              <path class="st10" d="M222.5,262.31c2.76,1.35,5.06,2.67,7.61,4.35" id="path169"></path>
              <path class="st10" d="M175.77,225.36c-.65-6.73,2.8-15.35,10.87-14.13" id="path170"></path>
              <path class="st10" d="M173.6,219.92c3.98-4.73,19.05-20.95,6.52-25" id="path171"></path>
              <path class="st10" d="M183.38,202.53c1.54,3.43.65,6.03,5.13,7.64-4.58.69-8.03,3.82-10.57,7.58" id="path172"></path>
              <path class="st10" d="M192.89,224.81s-5.16,4.35-3.8,9.78" id="path173"></path>
              <path class="st10" d="M196.15,226.44s-4.35,4.89-4.35,9.78" id="path174"></path>
              <path class="st10" d="M196.15,213.67s2.45,5.71-3.53,8.42" id="path175"></path>
              <path class="st10" d="M190.71,216.39s-3.26.27-4.08,4.89" id="path176"></path>
              <path class="st10" d="M199.68,261.22s1.36,4.62,5.71,8.15" id="path177"></path>
              <path class="st4" d="M96.98,231.06s-4.62,9.24-1.9,16.03" id="path178"></path>
              <path class="st4" d="M99.15,241.12s.27,5.16-4.62,9.51" id="path179"></path>
              <path class="st4" d="M99.42,252.25s-2.72,10.05,2.17,15.76" id="path180"></path>
              <path class="st4" d="M103.77,257.69s-2.45,11.95,1.36,16.3" id="path181"></path>
              <path class="st4" d="M110.29,197.1s-6.25,5.71-7.06,11.14" id="path182"></path>
              <path class="st4" d="M108.66,203.62s-4.62,3.53-7.34,8.97" id="path183"></path>
              <path class="st4" d="M145.34,148.2s8.87,2.9,14.94-4.89" id="path184"></path>
              <path class="st4" d="M151.32,143.31s8.97-7.06,17.12-5.43" id="path185"></path>
              <path class="st4" d="M173.6,119.94c.03,3.12.3,4.97,2.99,6.79" id="path186"></path>
              <path class="st4" d="M179.3,125.64c.34,1.06,1.88,1.77,2.17,2.45" id="path187"></path>
              <path class="st4" d="M176.04,108.26c-1.4,3.3-3.97,6.39-5.16,9.78" id="path188"></path>
              <path class="st4" d="M179.84,126.19c.79.94,2.07,1.02,2.72,1.9" id="path189"></path>
              <path class="st4" d="M250.49,125.1c.46-2.28,2.56-4.01,2.45-6.52" id="path190"></path>
              <path class="st10" d="M144.52,150.37c4.28,1.09,9.37,2.33,13.04-.82" id="path191"></path>
            </g>
            <path class="st10" d="M100.78,157.98s10.87,4.62,19.29-5.16" id="path192"></path>
            <path class="st10" d="M115.18,156.35s-16.84,8.42-19.83,21.74c-2.45,4.08-4.08,6.52-4.08,6.52,0,0,7.88-3.8,7.88-4.62" id="path193"></path>
            <path class="st10" d="M141.54,113.15c.82,0,20.38-11.14,27.44-10.05,1.63,1.63-1.09,2.45-1.09,2.45,0,0-8.97-.54-19.29,7.06" id="path194"></path>
            <path class="st10" d="M242.88,93.04s11.41,4.35,14.67,4.08c0,0-5.43,1.9-16.3.54" id="path195"></path>
            <path class="st10" d="M223.04,93.58s11.14-2.99,25.54,4.08" id="path196"></path>
            <path class="st10" d="M229.02,105.81s7.88-4.62,11.96-1.9" id="path197"></path>
            <path class="st10" d="M192.34,98.48" id="path198"></path>
            <path class="st10" d="M93.45,276.16s11.41,16.57,5.16,24.45" id="path199"></path>
            <path class="st10" d="M102.68,290.83s1.9,5.16-4.08,10.6" id="path200"></path>
            <path class="st10" d="M102.68,291.11s1.36,14.94,11.95,22.01c0,.27-1.36-4.89-1.36-4.89" id="path201"></path>
            <path class="st10" d="M116.27,297.63c.54,1.36,10.05,16.3,26.08,18.75" id="path202"></path>
            <path class="st10" d="M127.41,303.6s7.61,9.78,22.28,8.42" id="path203"></path>
            <path class="st10" d="M180.66,282.14s3.53-3.26,6.25-3.26" id="path204"></path>
          </g>
          <path class="st5" d="M209.05,93.04s15.49-4.08,33.83,1.63c.14.14-27.44-3.26-33.83-1.63Z" id="path205"></path>
          <path class="st5" d="M224,96.17s4.48-2.04,14.26-.27" id="path206"></path>
        </g>
        <g id="g221">
          <path class="st9" d="M171.72,339.85c-74.04-12.14-124.21-82-112.07-156.04,12.14-74.04,82-124.21,156.04-112.07,74.04,12.14,124.22,82,112.07,156.04-12.14,74.04-82,124.21-156.04,112.07Z" id="path207"></path>
          <path class="st10" d="M37.76,190.55c-.41-.08-.85-.23-1.3-.47-1.42-.75-2.32-1.88-2.71-3.41-.37-1.41-.33-3.31.11-5.69l1.78-9.63c1.05-5.66,3.4-8.15,7.06-7.48l14.46,2.68c3.66.68,4.96,3.87,3.9,9.58l-1.78,9.59c-.46,2.49-1.09,4.3-1.88,5.43-.91,1.25-2.19,1.95-3.83,2.09-.56.05-1.02.04-1.36-.03l-14.46-2.68ZM51.98,184.78c1.16.22,1.91-.58,2.25-2.39l.92-4.99c.18-.98.21-1.69.08-2.14-.13-.45-.51-.74-1.14-.86l-11.15-2.07c-.65-.12-1.14,0-1.47.35-.33.35-.59,1.04-.78,2.06l-.93,5.04c-.19,1.02-.2,1.74-.02,2.15.17.41.6.68,1.28.8l10.97,2.03Z" id="path208"></path>
          <path class="st10" d="M63.45,164.76l-19.04-8.19c-1.38-.59-2.31-1.61-2.79-3.06-.52-1.59-.36-3.37.5-5.37.36-.84.83-1.64,1.4-2.4,1.38-1.84,3.19-2.73,5.41-2.65l16.06.55-17.38-7.48,3.12-7.24,19.65,8.46c1.22.53,2.01,1.55,2.35,3.08.35,1.53.16,3.19-.56,5-1.38,3.4-3.7,5.06-6.94,4.99l-15.99-.44,17.35,7.47-3.14,7.29Z" id="path209"></path>
          <path class="st10" d="M71.11,134.48l-12.16-8.58c-.24-.17-.52-.43-.83-.79-2.02-2.28-1.71-5.28.92-9l9.89-14.01,4.56,3.22-8.65,12.25c-.06.09-.13.25-.2.47-.39.89-.25,1.58.41,2.04l2.35,1.66,9.76-13.83,4.56,3.22-9.76,13.82,2.35,1.66c.87.61,1.75.36,2.66-.75l8.52-12.07,4.56,3.22-9.22,13.06c-3.54,5.01-6.78,6.48-9.72,4.4Z" id="path210"></path>
          <path class="st12" d="M75.09,94.98l14.84-13.38c2.11-1.9,4.06-2.88,5.85-2.94,1.21-.03,2.47.67,3.77,2.12l1.41,1.56c1.67,1.85,1.92,3.83.75,5.94,1.82-.84,3.44-.68,4.88.47.35.28.6.5.75.67l1.73,1.92c.23.26.45.56.66.9,1.66,2.72.73,5.66-2.79,8.84l-14.53,13.11-17.32-19.21ZM87.99,96.94l6.77-6.1c.95-.85,1.11-1.63.48-2.32l-1.14-1.26c-.25-.27-.6-.39-1.06-.36-.46.03-.89.23-1.3.6l-6.77,6.1,3.02,3.35ZM94.82,104.51l6.79-6.13c.86-.91,1-1.69.43-2.33l-1.11-1.23c-.58-.64-1.42-.56-2.53.24l-6.67,6.02c2.1,2.22,3.13,3.36,3.09,3.43Z" id="path211"></path>
          <path class="st12" d="M111.29,88.97l-9.62-16.89,7.19-4.09,9.52,16.73c.47.53,1.47.35,3-.52l4.89-2.78c1.47-.84,2.12-1.58,1.97-2.23l-.04-.19-9.47-16.63,7.19-4.09,9.6,16.86c.84,1.48,1.2,2.66,1.07,3.56-.34,2.38-2.12,4.48-5.35,6.32l-9.29,5.29c-3.32,1.89-6.07,2.34-8.25,1.34-.8-.37-1.6-1.26-2.41-2.67Z" id="path212"></path>
          <path class="st12" d="M135.31,60.13c-.81-2.56.07-4.58,2.65-6.07.78-.45,2.14-.98,4.06-1.59l15.66-4.95,1.68,5.32-13.35,4.22c-1.58.5-2.34,1.18-2.3,2.04-.01.08,0,.19.05.33l.88,2.78,16.08-5.08,1.68,5.32-16.08,5.08,3.07,9.73-7.88,2.49-6.2-19.63Z" id="path213"></path>
          <path class="st12" d="M163.71,51.73c-.31-2.67.94-4.49,3.75-5.46.85-.3,2.28-.56,4.29-.8l16.32-1.9.64,5.54-13.91,1.62c-1.64.19-2.53.71-2.65,1.57-.03.08-.03.19-.02.34l.34,2.9,16.75-1.95.65,5.54-16.76,1.95,1.18,10.13-8.21.95-2.38-20.44Z" id="path214"></path>
          <path class="st12" d="M186.76,68.98l12.38-21.77c1.27-2.2,3.52-3.18,6.75-2.93,3.22.25,5.3,1.56,6.22,3.95l8.89,23.36-8.65-.66-2.19-5.76-11.71-.89-2.99,5.37-8.71-.66ZM208.1,59.71l-3.28-8.63-3.49,8.11,6.77.52Z" id="path215"></path>
          <path class="st12" d="M225.16,66.61l5.84-18.65,7.89,2.47-5.71,18.23c-.24.75.31,1.34,1.65,1.75l14.05,4.4-1.72,5.31-14.68-4.59c-.52-.16-.98-.32-1.36-.46-2.79-1.05-4.63-2.24-5.53-3.57-.89-1.33-1.04-2.95-.44-4.88Z" id="path216"></path>
          <path class="st12" d="M260.77,64.06c.21-.36.5-.72.88-1.07,1.18-1.08,2.56-1.54,4.13-1.4,1.45.13,3.22.81,5.31,2.03l8.46,4.94c4.97,2.9,6.52,5.96,4.65,9.17l-7.41,12.7c-1.88,3.21-5.32,3.35-10.33.43l-8.43-4.92c-2.19-1.28-3.68-2.48-4.47-3.6-.87-1.28-1.09-2.72-.67-4.31.15-.55.31-.97.48-1.27l7.41-12.7ZM261.39,79.4c-.6,1.02-.1,1.99,1.49,2.92l4.38,2.56c.86.5,1.52.77,1.99.8.47.03.87-.23,1.19-.78l5.72-9.8c.33-.57.39-1.08.17-1.51s-.78-.91-1.68-1.43l-4.43-2.58c-.9-.52-1.57-.77-2.02-.75-.44.03-.84.34-1.19.93l-5.62,9.64Z" id="path217"></path>
          <path class="st8" d="M279.51,91.75l13.01-14.59,6.17,5.5-12.71,14.26c-.52.59-.27,1.35.78,2.28l10.98,9.8-3.75,4.13-11.48-10.24c-.41-.37-.76-.69-1.05-.98-2.11-2.11-3.29-3.95-3.56-5.53-.27-1.58.27-3.12,1.61-4.63Z" id="path218"></path>
          <path class="st8" d="M294.92,113.51l24.68-4.3c2.51-.42,4.69.7,6.55,3.34,1.86,2.64,2.17,5.08.91,7.31l-12.37,21.72-4.99-7.09,3.05-5.35-6.76-9.6-6.04,1.11-5.03-7.14ZM315.65,124.07l4.57-8.02-8.48,2.46,3.91,5.55Z" id="path219"></path>
          <path class="st8" d="M339.62,134.59l7.21,18.63c1.02,2.65,1.24,4.82.66,6.51-.4,1.14-1.51,2.07-3.33,2.77l-1.96.76c-2.32.9-4.26.43-5.82-1.41.14,1.99-.59,3.46-2.18,4.39-.39.23-.68.38-.89.46l-2.41.93c-.32.12-.68.22-1.07.3-3.13.58-5.55-1.34-7.26-5.76l-7.06-18.25,24.12-9.34ZM323.68,149.63l3.3,8.53c.54,1.13,1.22,1.54,2.02,1.23l1.55-.6c.8-.31,1.03-1.13.68-2.45l-3.24-8.38c-2.82,1.17-4.26,1.73-4.31,1.67ZM333.19,145.94l3.29,8.5c.46,1.19,1.12,1.61,2,1.27l1.59-.61c.34-.13.58-.42.72-.86.13-.44.1-.92-.1-1.43l-3.29-8.5-4.2,1.63Z" id="path220"></path>
          <path class="st8" d="M346.22,167.79c.46-.08.9-.08,1.31,0,2.66.53,4.33,2.84,5.01,6.93l2.77,16.64-5.5.92-2.41-14.46c-.13-.8-.46-1.33-.98-1.58-.26-.03-.45-.04-.57-.02l-1.69.28c-.17.03-.29.07-.36.12-.61.25-.87.99-.77,2.2,0,.11.01.3.05.55l.99,5.95c.71,4.25-.2,6.99-2.72,8.19-.37.17-.71.29-1.03.34l-5.14.86c-1.7.28-3.15-.23-4.34-1.53-1.19-1.3-2-3.21-2.42-5.73l-2.71-16.26,5.5-.92,2.38,14.29.19.47c.38.91.92,1.31,1.62,1.19l1.82-.3c.73-.12,1.05-.77.95-1.95l-1.13-6.8c-.46-2.79-.07-5.06,1.19-6.79.71-.98,1.55-1.54,2.53-1.71l5.43-.9Z" id="path221"></path>
        </g>
      </g>
    </g>
  </g>
</svg></svg></g></g></svg>